SplineFontDB: 3.0
FontName: AltmanGothic
FullName: Altman Gothic
FamilyName: Altman Gothic
Weight: Book
Copyright: 
Version: 1.000
ItalicAngle: 0
UnderlinePosition: -103
UnderlineWidth: 102
Ascent: 1638
Descent: 410
sfntRevision: 0x00010000
LayerCount: 2
Layer: 0 0 "Back"  1
Layer: 1 1 "Fore"  0
XUID: [1021 740 1454621373 3451089]
FSType: 4
OS2Version: 2
OS2_WeightWidthSlopeOnly: 0
OS2_UseTypoMetrics: 1
CreationTime: 1296414127
ModificationTime: 1299502300
PfmFamily: 81
TTFWeight: 400
TTFWidth: 5
LineGap: 53
VLineGap: 0
Panose: 0 0 0 0 0 0 0 0 0 0
OS2TypoAscent: -120
OS2TypoAOffset: 1
OS2TypoDescent: 70
OS2TypoDOffset: 1
OS2TypoLinegap: 106
OS2WinAscent: 0
OS2WinAOffset: 1
OS2WinDescent: 0
OS2WinDOffset: 1
HheadAscent: 0
HheadAOffset: 1
HheadDescent: 0
HheadDOffset: 1
OS2SubXSize: 1434
OS2SubYSize: 1331
OS2SubXOff: 0
OS2SubYOff: 287
OS2SupXSize: 1434
OS2SupYSize: 1331
OS2SupXOff: 0
OS2SupYOff: 977
OS2StrikeYSize: 102
OS2StrikeYPos: 512
OS2Vendor: 'newt'
OS2CodePages: 00000001.00000000
OS2UnicodeRanges: 8000002f.4800000b.14000000.00000000
MarkAttachClasses: 1
DEI: 91125
LangName: 1033 "" "" "Regular" "1.000;newt;AltmanGothic" "" "Version 1.000" "" "" "" "" "" "" "" "" "" "" "" "" "Altman Gothic" 
Encoding: ISO8859-1
Compacted: 1
UnicodeInterp: none
NameList: Adobe Glyph List
DisplaySize: -48
AntiAlias: 1
FitToEm: 1
WinInfo: 0 25 12
BeginPrivate: 9
BlueValues 37 [-27 0 1135 1153 1518 1525 1536 1546]
OtherBlues 11 [-340 -340]
BlueFuzz 1 1
BlueScale 8 0.039625
BlueShift 1 7
StdHW 4 [20]
StdVW 5 [221]
StemSnapH 48 [20 145 166 190 195 200 207 213 219 223 231 235]
StemSnapV 29 [213 221 226 233 245 250 264]
EndPrivate
Grid
-2048 1536.20019531 m 0
 4096 1536.20019531 l 0
  Named: "CAP_HEIGHT" 
EndSplineSet
BeginChars: 287 194

StartChar: H.alt
Encoding: 256 -1 0
Width: 1024
Flags: W
HStem: 0 21G<147 439 879 1171> 664 233<439 878>
VStem: 147 292<0 664 897 1462.38> 879 292<0 664 897 1462.58>
LayerCount: 2
Fore
SplineSet
879 664 m 1,0,-1
 439 664 l 1,1,-1
 439 0 l 1,2,-1
 147 0 l 1,3,-1
 147 1462.37988281 l 1,4,-1
 439 1462.37988281 l 1,5,-1
 439 897 l 1,6,-1
 878 897 l 1,7,-1
 878 1462.58007812 l 1,8,-1
 1171 1462.58007812 l 1,9,-1
 1171 0 l 1,10,-1
 879 0 l 1,11,-1
 879 664 l 1,0,-1
EndSplineSet
EndChar

StartChar: E
Encoding: 69 69 4
Width: 854
Flags: W
HStem: 0 225<373 842> 674 235<373 707> 1310.2 226<373 824>
VStem: 128 245<225 674 909 1310.2>
LayerCount: 2
Fore
SplineSet
707 674 m 1,0,-1
 373 674 l 1,1,-1
 373 225 l 1,2,-1
 842 225 l 1,3,-1
 842 0 l 1,4,-1
 128 0 l 1,5,-1
 128 1536.20019531 l 5,6,-1
 824 1536.20019531 l 5,7,-1
 824 1310.20019531 l 5,8,-1
 373 1310.20019531 l 5,9,-1
 373 909 l 1,10,-1
 707 909 l 1,11,-1
 707 674 l 1,0,-1
EndSplineSet
EndChar

StartChar: F
Encoding: 70 70 5
Width: 817
Flags: W
HStem: 0 21G<128 378> 678 231<382 709> 1306.2 230<382 826>
VStem: 128 250<0 678 909 1306.2>
LayerCount: 2
Fore
SplineSet
826 1306.20019531 m 5,0,-1
 382 1306.20019531 l 5,1,-1
 382 909 l 1,2,-1
 709 909 l 1,3,-1
 709 678 l 1,4,-1
 378 678 l 1,5,-1
 378 0 l 1,6,-1
 128 0 l 1,7,-1
 128 1536.20019531 l 5,8,-1
 826 1536.20019531 l 5,9,-1
 826 1306.20019531 l 5,0,-1
EndSplineSet
EndChar

StartChar: G
Encoding: 71 71 6
Width: 973
Flags: W
HStem: -20 231<386.319 598.443> 557 209<467 657> 1315 227<381.084 591.047>
VStem: 68 258<273.43 1257.66> 657 248<273.321 557 1024 1241.48> 778 127<-8 38.1938>
LayerCount: 2
Fore
SplineSet
653 1024 m 1,0,1
 653 1072 653 1072 648 1123.5 c 128,-1,2
 643 1175 643 1175 625.5 1217.5 c 128,-1,3
 608 1260 608 1260 573.5 1287.5 c 128,-1,4
 539 1315 539 1315 481 1315 c 0,5,6
 441 1315 441 1315 412 1296.5 c 128,-1,7
 383 1278 383 1278 364 1248.5 c 128,-1,8
 345 1219 345 1219 335.5 1182 c 128,-1,9
 326 1145 326 1145 326 1108 c 2,10,-1
 326 430 l 2,11,12
 326 390 326 390 335.5 351 c 128,-1,13
 345 312 345 312 365.5 281 c 128,-1,14
 386 250 386 250 417.5 230.5 c 128,-1,15
 449 211 449 211 494 211 c 0,16,17
 548 211 548 211 580 237.5 c 128,-1,18
 612 264 612 264 629 306 c 128,-1,19
 646 348 646 348 651.5 400.5 c 128,-1,20
 657 453 657 453 657 504 c 2,21,-1
 657 557 l 1,22,-1
 467 557 l 1,23,-1
 467 766 l 1,24,-1
 905 766 l 1,25,-1
 905 -8 l 1,26,-1
 778 -8 l 1,27,-1
 733 137 l 1,28,29
 709 106 709 106 681 77.5 c 128,-1,30
 653 49 653 49 621 27.5 c 128,-1,31
 589 6 589 6 551.5 -7 c 128,-1,32
 514 -20 514 -20 469 -20 c 0,33,34
 380 -20 380 -20 306 7.5 c 128,-1,35
 232 35 232 35 179 104 c 128,-1,36
 126 173 126 173 97 291.5 c 128,-1,37
 68 410 68 410 68 592 c 2,38,-1
 68 1081 l 2,39,40
 68 1126 68 1126 76 1177.5 c 128,-1,41
 84 1229 84 1229 103.5 1280 c 128,-1,42
 123 1331 123 1331 154.5 1378.5 c 128,-1,43
 186 1426 186 1426 232.5 1462.5 c 128,-1,44
 279 1499 279 1499 342 1520.5 c 128,-1,45
 405 1542 405 1542 487 1542 c 0,46,47
 595 1542 595 1542 673.5 1506.5 c 128,-1,48
 752 1471 752 1471 803 1404.5 c 128,-1,49
 854 1338 854 1338 878.5 1241.5 c 128,-1,50
 903 1145 903 1145 903 1024 c 1,51,-1
 653 1024 l 1,0,1
EndSplineSet
EndChar

StartChar: H
Encoding: 72 72 7
Width: 1152
Flags: W
HStem: 0 21G<128 385 768 1024> 664 233<385 768> 1516.2 20G<128 384 768 1024>
VStem: 128 257<0 664 897 1536.2> 768 256<0 664 897 1536.2>
LayerCount: 2
Fore
SplineSet
768 664 m 1,0,-1
 385 664 l 1,1,-1
 385 0 l 1,2,-1
 128 0 l 1,3,-1
 128 1536.20019531 l 5,4,-1
 384 1536.20019531 l 5,5,-1
 384 897 l 1,6,-1
 768 897 l 1,7,-1
 768 1536.20019531 l 1,8,-1
 1024 1536.20019531 l 1,9,-1
 1024 0 l 1,10,-1
 768 0 l 1,11,-1
 768 664 l 1,0,-1
EndSplineSet
EndChar

StartChar: I
Encoding: 73 73 8
Width: 395
Flags: W
HStem: 0 21G<74 317> 1516.2 20G<74 317>
VStem: 74 243<0 1536.2>
LayerCount: 2
Fore
SplineSet
74 1536.20019531 m 5,0,-1
 317 1536.20019531 l 5,1,-1
 317 0 l 1,2,-1
 74 0 l 1,3,-1
 74 1536.20019531 l 5,0,-1
EndSplineSet
EndChar

StartChar: J
Encoding: 74 74 9
Width: 567
Flags: W
HStem: 0 225<41 201.669> 1516.2 20G<254 492>
VStem: 254 238<264.686 1536.2>
LayerCount: 2
Fore
SplineSet
492 1536.20019531 m 5,0,-1
 492 440 l 2,1,2
 492 330 492 330 481.5 246 c 0,3,4
 471 163 471 163 438.5 108.5 c 128,-1,5
 406 54 406 54 345 27 c 128,-1,6
 284 0 284 0 182 0 c 2,7,-1
 41 0 l 1,8,-1
 41 225 l 1,9,10
 96 225 96 225 136 229 c 128,-1,11
 176 233 176 233 202.5 257 c 128,-1,12
 229 281 229 281 241.5 333 c 128,-1,13
 254 385 254 385 254 481 c 2,14,-1
 254 1536.20019531 l 5,15,-1
 492 1536.20019531 l 5,0,-1
EndSplineSet
EndChar

StartChar: K
Encoding: 75 75 10
Width: 1018
Flags: W
HStem: 0 21G<128 375 736.928 1012> 1516.2 20G<128 373 700.358 977>
VStem: 128 245<0 494 901 1536.2>
LayerCount: 2
Fore
SplineSet
1012 0 m 1,0,-1
 744 0 l 1,1,-1
 494 707 l 1,2,-1
 375 494 l 1,3,-1
 375 0 l 1,4,-1
 128 0 l 1,5,-1
 128 1536.20019531 l 1,6,-1
 373 1536.20019531 l 1,7,-1
 373 901 l 1,8,-1
 711 1536.20019531 l 5,9,-1
 977 1536.20019531 l 5,10,-1
 650 954 l 1,11,-1
 1012 0 l 1,0,-1
EndSplineSet
EndChar

StartChar: L
Encoding: 76 76 11
Width: 815
Flags: W
HStem: 0 231<378 830> 1516.2 20G<128 378>
VStem: 128 250<231 1536.2>
LayerCount: 2
Fore
SplineSet
128 0 m 1,0,-1
 128 1536.20019531 l 5,1,-1
 378 1536.20019531 l 5,2,-1
 378 231 l 1,3,-1
 830 231 l 1,4,-1
 830 0 l 1,5,-1
 128 0 l 1,0,-1
EndSplineSet
EndChar

StartChar: M
Encoding: 77 77 12
Width: 1366
Flags: W
HStem: 0 21G<128 363 602.667 762.333 1002 1238> 1516.2 20G<128 490.04 874.98 1238>
VStem: 128 235<0 1126.2> 1002 236<0 1126.2>
LayerCount: 2
Fore
SplineSet
758 0 m 1,0,-1
 607 0 l 1,1,-1
 363 1126.20019531 l 5,2,-1
 363 0 l 1,3,-1
 128 0 l 1,4,-1
 128 1536.20019531 l 5,5,-1
 486 1536.20019531 l 5,6,-1
 683 561 l 1,7,-1
 879 1536.20019531 l 5,8,-1
 1238 1536.20019531 l 5,9,-1
 1238 0 l 1,10,-1
 1002 0 l 1,11,-1
 1002 1126.20019531 l 5,12,-1
 758 0 l 1,0,-1
EndSplineSet
EndChar

StartChar: N
Encoding: 78 78 13
Width: 1110
Flags: W
HStem: 0 21G<128 365 758.661 982> 1516.2 20G<128 381.42 744 982>
VStem: 128 237<0 964.2> 744 238<655 1536.2>
LayerCount: 2
Fore
SplineSet
767 0 m 1,0,-1
 365 964.200195312 l 5,1,-1
 365 0 l 1,2,-1
 128 0 l 1,3,-1
 128 1536.20019531 l 5,4,-1
 373 1536.20019531 l 5,5,-1
 744 655 l 1,6,-1
 744 1536.20019531 l 5,7,-1
 982 1536.20019531 l 5,8,-1
 982 0 l 1,9,-1
 767 0 l 1,0,-1
EndSplineSet
EndChar

StartChar: O
Encoding: 79 79 14
Width: 977
Flags: W
HStem: -27 244<383.372 596.498> 1309 237<383.992 596.185>
VStem: 66 264<270.926 1246.59> 649 264<270.926 1246.59>
LayerCount: 2
Fore
SplineSet
489 -27 m 256,0,1
 387 -27 387 -27 308 3 c 128,-1,2
 229 33 229 33 175.5 102 c 128,-1,3
 122 171 122 171 94 285 c 128,-1,4
 66 399 66 399 66 567 c 2,5,-1
 66 1006 l 2,6,7
 66 1121 66 1121 85.5 1220 c 128,-1,8
 105 1319 105 1319 153.5 1391.5 c 128,-1,9
 202 1464 202 1464 283.5 1505 c 128,-1,10
 365 1546 365 1546 489 1546 c 256,11,12
 613 1546 613 1546 695 1505 c 128,-1,13
 777 1464 777 1464 825.5 1391.5 c 128,-1,14
 874 1319 874 1319 893.5 1220 c 128,-1,15
 913 1121 913 1121 913 1006 c 2,16,-1
 913 567 l 2,17,18
 913 399 913 399 885 285 c 128,-1,19
 857 171 857 171 803 102 c 128,-1,20
 749 33 749 33 670 3 c 128,-1,21
 591 -27 591 -27 489 -27 c 256,0,1
489 217 m 256,22,23
 530 217 530 217 560 233 c 128,-1,24
 590 249 590 249 610 278.5 c 128,-1,25
 630 308 630 308 639.5 349 c 128,-1,26
 649 390 649 390 649 440 c 2,27,-1
 649 1063 l 2,28,29
 649 1188 649 1188 608.5 1248.5 c 128,-1,30
 568 1309 568 1309 489 1309 c 0,31,32
 411 1309 411 1309 370.5 1248.5 c 128,-1,33
 330 1188 330 1188 330 1063 c 2,34,-1
 330 440 l 2,35,36
 330 390 330 390 339.5 349 c 128,-1,37
 349 308 349 308 369 278.5 c 128,-1,38
 389 249 389 249 418.5 233 c 128,-1,39
 448 217 448 217 489 217 c 256,22,23
EndSplineSet
EndChar

StartChar: P
Encoding: 80 80 15
Width: 952
Flags: W
HStem: 0 21G<128 382> 622 210<382 632.998> 1316.2 220<380 639.074>
VStem: 128 254<0 622 832 1316.2> 705 262<904.366 1251.78>
LayerCount: 2
Fore
SplineSet
560 1536.20019531 m 2,0,1
 662.502758489 1536.20019531 662.502758489 1536.20019531 739.5 1505.20019531 c 0,2,3
 816 1474 816 1474 866.5 1415.70019531 c 0,4,5
 917 1357 917 1357 942 1272.70019531 c 0,6,7
 967 1188 967 1188 967 1071.20019531 c 0,8,9
 967 853 967 853 849 737.600097656 c 0,10,11
 731 622 731 622 513 622 c 2,12,-1
 382 622 l 1,13,-1
 382 0 l 1,14,-1
 128 0 l 1,15,-1
 128 1536.20019531 l 1,16,-1
 560 1536.20019531 l 2,0,1
425 832 m 2,17,18
 489 832 489 832 540.5 840 c 128,-1,19
 592 848 592 848 628.5 873 c 128,-1,20
 665 898 665 898 685 949.100097656 c 0,21,22
 705 1000 705 1000 705 1077.20019531 c 0,23,24
 705 1151 705 1151 691 1195.20019531 c 0,25,26
 677 1239 677 1239 647 1266.20019531 c 0,27,28
 617 1293 617 1293 570 1304.70019531 c 0,29,30
 522.167314839 1316.20019531 522.167314839 1316.20019531 457 1316.20019531 c 2,31,-1
 380 1316.20019531 l 1,32,-1
 380 832 l 1,33,-1
 425 832 l 2,17,18
EndSplineSet
EndChar

StartChar: Q
Encoding: 81 81 16
Width: 1036
Flags: W
HStem: -96 223<853.484 973> -27 244<379.372 592.137> 1309 237<379.94 592.185>
VStem: 61 265<270.926 1246.59> 645 264<272.269 1246.59>
LayerCount: 2
Fore
SplineSet
485 -27 m 0,0,1
 383 -27 383 -27 304 3 c 128,-1,2
 225 33 225 33 171 102 c 128,-1,3
 117 171 117 171 89 285 c 128,-1,4
 61 399 61 399 61 567 c 2,5,-1
 61 1006 l 2,6,7
 61 1121 61 1121 80.5 1220 c 128,-1,8
 100 1319 100 1319 148.5 1391.5 c 128,-1,9
 197 1464 197 1464 279 1505 c 128,-1,10
 361 1546 361 1546 485 1546 c 256,11,12
 609 1546 609 1546 691 1505 c 128,-1,13
 773 1464 773 1464 821.5 1391.5 c 128,-1,14
 870 1319 870 1319 889.5 1220 c 128,-1,15
 909 1121 909 1121 909 1006 c 2,16,-1
 909 567 l 2,17,18
 909 440 909 440 893 345 c 128,-1,19
 877 250 877 250 846 182 c 1,20,21
 858 162 858 162 874.5 151.5 c 128,-1,22
 891 141 891 141 909 135.5 c 128,-1,23
 927 130 927 130 944 129 c 128,-1,24
 961 128 961 128 973 127 c 1,25,-1
 973 -96 l 1,26,27
 970 -96 970 -96 954.5 -96 c 128,-1,28
 939 -96 939 -96 915 -94 c 128,-1,29
 891 -92 891 -92 861 -86.5 c 128,-1,30
 831 -81 831 -81 800 -69 c 128,-1,31
 769 -57 769 -57 739.5 -38 c 128,-1,32
 710 -19 710 -19 686 10 c 1,33,34
 598 -27 598 -27 485 -27 c 0,0,1
485 217 m 256,35,36
 526 217 526 217 556 233 c 128,-1,37
 586 249 586 249 606 278.5 c 128,-1,38
 626 308 626 308 635.5 349 c 128,-1,39
 645 390 645 390 645 440 c 2,40,-1
 645 1063 l 2,41,42
 645 1188 645 1188 604.5 1248.5 c 128,-1,43
 564 1309 564 1309 485 1309 c 0,44,45
 407 1309 407 1309 366.5 1248.5 c 128,-1,46
 326 1188 326 1188 326 1063 c 2,47,-1
 326 440 l 2,48,49
 326 390 326 390 335.5 349 c 128,-1,50
 345 308 345 308 365 278.5 c 128,-1,51
 385 249 385 249 414.5 233 c 128,-1,52
 444 217 444 217 485 217 c 256,35,36
EndSplineSet
EndChar

StartChar: R
Encoding: 82 82 17
Width: 981
Flags: W
HStem: 0 21G<128 380 711.523 978> 639.2 223<380 511> 1312.2 224<380 633.445>
VStem: 128 252<0 639.2 862.2 1312.2> 693 254<918.275 1254.01>
LayerCount: 2
Fore
SplineSet
718 0 m 1,0,-1
 511 639.200195312 l 5,1,-1
 380 639.200195312 l 5,2,-1
 380 0 l 1,3,-1
 128 0 l 1,4,-1
 128 1536.20019531 l 5,5,-1
 515 1536.20019531 l 6,6,7
 633 1536 633 1536 715.5 1501.20019531 c 4,8,9
 798 1466 798 1466 849.5 1405.70019531 c 4,10,11
 901 1345 901 1345 924 1264.20019531 c 4,12,13
 947 1183 947 1183 947 1091.20019531 c 4,14,15
 947 1002 947 1002 928 937.700195312 c 4,16,17
 909 873 909 873 879.5 827.200195312 c 4,18,19
 850 781 850 781 815 751.200195312 c 4,20,21
 780 721 780 721 748 700.200195312 c 5,22,23
 756 679 756 679 782 600.200195312 c 4,24,25
 793 566 793 566 810 516.200195312 c 4,26,27
 827 466 827 466 850.5 386.600097656 c 0,28,29
 874 307 874 307 905.5 213.5 c 128,-1,30
 937 120 937 120 978 0 c 1,31,-1
 718 0 l 1,0,-1
380 862.200195312 m 5,32,-1
 431 862.200195312 l 6,33,34
 495 862 495 862 544 868.200195312 c 4,35,36
 593 874 593 874 626 897.700195312 c 4,37,38
 659 921 659 921 676 968.700195312 c 4,39,40
 693 1016 693 1016 693 1099.20019531 c 4,41,42
 693 1209 693 1209 643 1260.70019531 c 4,43,44
 592.80487712 1312.20019531 592.80487712 1312.20019531 496 1312.20019531 c 6,45,-1
 380 1312.20019531 l 5,46,-1
 380 862.200195312 l 5,32,-1
EndSplineSet
EndChar

StartChar: S
Encoding: 83 83 18
Width: 991
Flags: W
HStem: -31 226<393.522 631.924> 1311 225<379.748 586.215>
VStem: 94 246<1038.62 1270.93> 682 248<245.228 485.95>
LayerCount: 2
Fore
SplineSet
504 -31 m 0,0,1
 398 -31 398 -31 321.5 2 c 128,-1,2
 245 35 245 35 192 94.5 c 128,-1,3
 139 154 139 154 107 235 c 128,-1,4
 75 316 75 316 57 412 c 1,5,-1
 289 475 l 1,6,7
 304 427 304 427 317.5 377 c 128,-1,8
 331 327 331 327 355 286.5 c 128,-1,9
 379 246 379 246 418 220.5 c 128,-1,10
 457 195 457 195 522 195 c 0,11,12
 557 195 557 195 586.5 208 c 128,-1,13
 616 221 616 221 637 244 c 128,-1,14
 658 267 658 267 670 299 c 128,-1,15
 682 331 682 331 682 369 c 0,16,17
 682 393 682 393 674.5 417.5 c 128,-1,18
 667 442 667 442 649.5 469 c 128,-1,19
 632 496 632 496 603 525.5 c 128,-1,20
 574 555 574 555 532 588 c 2,21,-1
 268 795 l 2,22,23
 224 829 224 829 191.5 872 c 128,-1,24
 159 915 159 915 137.5 961 c 128,-1,25
 116 1007 116 1007 105 1053 c 128,-1,26
 94 1099 94 1099 94 1141 c 0,27,28
 94 1224 94 1224 121 1296 c 128,-1,29
 148 1368 148 1368 198.5 1421.5 c 128,-1,30
 249 1475 249 1475 320 1505.5 c 128,-1,31
 391 1536 391 1536 479 1536 c 256,32,33
 567 1536 567 1536 635.5 1509.5 c 128,-1,34
 704 1483 704 1483 757 1433.5 c 128,-1,35
 810 1384 810 1384 849 1313.5 c 128,-1,36
 888 1243 888 1243 918 1155 c 1,37,-1
 690 1083 l 1,38,39
 677 1116 677 1116 659.5 1155.5 c 128,-1,40
 642 1195 642 1195 618 1229.5 c 128,-1,41
 594 1264 594 1264 561 1287.5 c 128,-1,42
 528 1311 528 1311 483 1311 c 0,43,44
 451 1311 451 1311 424.5 1299 c 128,-1,45
 398 1287 398 1287 379 1266 c 128,-1,46
 360 1245 360 1245 350 1217.5 c 128,-1,47
 340 1190 340 1190 340 1159 c 0,48,49
 340 1135 340 1135 345.5 1113 c 128,-1,50
 351 1091 351 1091 364 1068 c 128,-1,51
 377 1045 377 1045 399.5 1020.5 c 128,-1,52
 422 996 422 996 457 969 c 2,53,-1
 741 741 l 2,54,55
 799 695 799 695 835.5 647.5 c 128,-1,56
 872 600 872 600 893 552.5 c 128,-1,57
 914 505 914 505 922 458 c 128,-1,58
 930 411 930 411 930 367 c 0,59,60
 930 276 930 276 898.5 202.5 c 128,-1,61
 867 129 867 129 810.5 77 c 128,-1,62
 754 25 754 25 676 -3 c 128,-1,63
 598 -31 598 -31 504 -31 c 0,0,1
EndSplineSet
EndChar

StartChar: T
Encoding: 84 84 19
Width: 952
Flags: W
HStem: 0 21G<354 604> 1308.2 228<70 354 604 889>
VStem: 354 250<0 1308.2>
LayerCount: 2
Fore
SplineSet
889 1536.20019531 m 5,0,-1
 889 1308.20019531 l 5,1,-1
 604 1308.20019531 l 5,2,-1
 604 0 l 1,3,-1
 354 0 l 1,4,-1
 354 1308.20019531 l 5,5,-1
 70 1308.20019531 l 5,6,-1
 70 1536.20019531 l 5,7,-1
 889 1536.20019531 l 5,0,-1
EndSplineSet
EndChar

StartChar: U
Encoding: 85 85 20
Width: 954
Flags: W
HStem: -35 219<378.082 576.026> 1516.2 20G<72 317 637 883>
VStem: 72 245<238.949 1536.2> 637 246<238.949 1536.2>
LayerCount: 2
Fore
SplineSet
477 -35 m 256,0,1
 387 -35 387 -35 322 -14 c 128,-1,2
 257 7 257 7 212 45 c 128,-1,3
 167 83 167 83 139.5 135 c 128,-1,4
 112 187 112 187 97 248.5 c 128,-1,5
 82 310 82 310 77 379 c 128,-1,6
 72 448 72 448 72 520 c 2,7,-1
 72 1536.20019531 l 5,8,-1
 317 1536.20019531 l 5,9,-1
 317 520 l 2,10,11
 317 455 317 455 320 394 c 128,-1,12
 323 333 323 333 338 286.5 c 128,-1,13
 353 240 353 240 385.5 212 c 128,-1,14
 418 184 418 184 477 184 c 256,15,16
 536 184 536 184 568.5 212 c 128,-1,17
 601 240 601 240 616 286.5 c 128,-1,18
 631 333 631 333 634 394 c 128,-1,19
 637 455 637 455 637 520 c 2,20,-1
 637 1536.20019531 l 5,21,-1
 883 1536.20019531 l 5,22,-1
 883 520 l 2,23,24
 883 448 883 448 878 379 c 128,-1,25
 873 310 873 310 858 248.5 c 128,-1,26
 843 187 843 187 815.5 135 c 128,-1,27
 788 83 788 83 743 45 c 128,-1,28
 698 7 698 7 632.5 -14 c 128,-1,29
 567 -35 567 -35 477 -35 c 256,0,1
EndSplineSet
EndChar

StartChar: V
Encoding: 86 86 21
Width: 1032
Flags: W
HStem: 0 21G<367.055 673.945> 1516.2 20G<68 316.576 723.424 973>
LayerCount: 2
Fore
SplineSet
670 0 m 1,0,-1
 371 0 l 1,1,-1
 68 1536.20019531 l 5,2,-1
 313 1536.20019531 l 5,3,-1
 516 401 l 1,4,-1
 524 401 l 1,5,-1
 727 1536.20019531 l 5,6,-1
 973 1536.20019531 l 5,7,-1
 670 0 l 1,0,-1
EndSplineSet
EndChar

StartChar: W
Encoding: 87 87 22
Width: 1477
Flags: W
HStem: 0 21G<328.537 554.849 930.131 1156.46> 1516.2 20G<66 300.193 631.219 853.781 1184.81 1419>
LayerCount: 2
Fore
SplineSet
850 1536.20019531 m 5,0,-1
 1030 584 l 1,1,-1
 1036 584 l 1,2,-1
 1188 1536.20019531 l 5,3,-1
 1419 1536.20019531 l 5,4,-1
 1153 0 l 1,5,-1
 934 0 l 1,6,-1
 745 977 l 1,7,-1
 739 977 l 1,8,-1
 551 0 l 1,9,-1
 332 0 l 1,10,-1
 66 1536.20019531 l 5,11,-1
 297 1536.20019531 l 5,12,-1
 449 584 l 1,13,-1
 455 584 l 1,14,-1
 635 1536.20019531 l 5,15,-1
 850 1536.20019531 l 5,0,-1
EndSplineSet
EndChar

StartChar: X
Encoding: 88 88 23
Width: 1100
Flags: W
HStem: 0 21G<51 334.61 759.544 1042> 1516.2 20G<86 367.971 725.072 1008>
LayerCount: 2
Fore
SplineSet
549 518 m 1,0,-1
 326 0 l 1,1,-1
 51 0 l 1,2,-1
 399 797 l 1,3,-1
 86 1536.20019531 l 5,4,-1
 360 1536.20019531 l 5,5,-1
 547 1067 l 1,6,-1
 733 1536.20019531 l 1,7,-1
 1008 1536.20019531 l 1,8,-1
 694 797 l 1,9,-1
 1042 0 l 1,10,-1
 768 0 l 1,11,-1
 549 518 l 1,0,-1
EndSplineSet
EndChar

StartChar: Y
Encoding: 89 89 24
Width: 1053
Flags: W
HStem: 0 21G<395 649> 1516.2 20G<59 325.494 718.506 985>
VStem: 395 254<0 606>
LayerCount: 2
Fore
SplineSet
395 0 m 1,0,-1
 395 606 l 1,1,-1
 59 1536.20019531 l 5,2,-1
 319 1536.20019531 l 5,3,-1
 522 911 l 1,4,-1
 725 1536.20019531 l 5,5,-1
 985 1536.20019531 l 5,6,-1
 649 606 l 1,7,-1
 649 0 l 1,8,-1
 395 0 l 1,0,-1
EndSplineSet
EndChar

StartChar: Z
Encoding: 90 90 25
Width: 934
Flags: W
HStem: 0 221<334 856> 1314.2 222<121 584>
LayerCount: 2
Fore
SplineSet
334 221 m 1,0,-1
 856 221 l 1,1,-1
 856 0 l 1,2,-1
 63 0 l 1,3,-1
 63 219 l 1,4,-1
 584 1314.20019531 l 5,5,-1
 121 1314.20019531 l 5,6,-1
 121 1536.20019531 l 5,7,-1
 856 1536.20019531 l 5,8,-1
 856 1312.20019531 l 5,9,-1
 334 221 l 1,0,-1
EndSplineSet
EndChar

StartChar: m
Encoding: 109 109 26
Width: 1389
Flags: W
HStem: 0 21G<119 340 586 809 1053 1274> 961 192<465.632 616 948.52 1116.5> 1115 20G<119 334>
VStem: 119 221<0 905.173 991 1135> 586 223<0 911.143> 1053 221<0 949.275>
LayerCount: 2
Fore
SplineSet
586 825 m 1,0,1
 586 859 586 859 583 884.5 c 128,-1,2
 580 910 580 910 571.5 927 c 128,-1,3
 563 944 563 944 547 952.5 c 128,-1,4
 531 961 531 961 504 961 c 0,5,6
 486 961 486 961 469 957 c 128,-1,7
 452 953 452 953 433.5 942 c 128,-1,8
 415 931 415 931 392.5 912 c 128,-1,9
 370 893 370 893 340 864 c 1,10,-1
 340 0 l 1,11,-1
 119 0 l 1,12,-1
 119 1135 l 1,13,-1
 334 1135 l 1,14,-1
 334 991 l 1,15,16
 355 1016 355 1016 384.5 1044.5 c 128,-1,17
 414 1073 414 1073 448.5 1097 c 128,-1,18
 483 1121 483 1121 521.5 1137 c 128,-1,19
 560 1153 560 1153 600 1153 c 0,20,21
 632 1153 632 1153 664.5 1145 c 128,-1,22
 697 1137 697 1137 724 1118 c 128,-1,23
 751 1099 751 1099 771 1067 c 128,-1,24
 791 1035 791 1035 799 987 c 1,25,26
 851 1049 851 1049 895 1083 c 128,-1,27
 939 1117 939 1117 975 1132.5 c 128,-1,28
 1011 1148 1011 1148 1039 1150.5 c 128,-1,29
 1067 1153 1067 1153 1087 1153 c 0,30,31
 1146 1153 1146 1153 1182.5 1129 c 128,-1,32
 1219 1105 1219 1105 1239.5 1063 c 128,-1,33
 1260 1021 1260 1021 1267 963 c 128,-1,34
 1274 905 1274 905 1274 838 c 2,35,-1
 1274 0 l 1,36,-1
 1053 0 l 1,37,-1
 1053 829 l 2,38,39
 1053 853 1053 853 1050 876 c 128,-1,40
 1047 899 1047 899 1038 917.5 c 128,-1,41
 1029 936 1029 936 1012 947 c 128,-1,42
 995 958 995 958 967 958 c 0,43,44
 947 958 947 958 923.5 949.5 c 128,-1,45
 900 941 900 941 878.5 928 c 128,-1,46
 857 915 857 915 838.5 899.5 c 128,-1,47
 820 884 820 884 809 870 c 1,48,-1
 809 0 l 1,49,-1
 586 0 l 1,50,-1
 586 825 l 1,0,1
EndSplineSet
EndChar

StartChar: n
Encoding: 110 110 27
Width: 911
Flags: W
HStem: 0 21G<119 342 580 797> 958 195<462.58 633> 1115 20G<119 336>
VStem: 119 223<0 908.236 997 1135> 580 217<0 932.73>
LayerCount: 2
Fore
SplineSet
119 1135 m 1,0,-1
 336 1135 l 1,1,-1
 336 997 l 1,2,3
 389 1055 389 1055 432 1087 c 128,-1,4
 475 1119 475 1119 508.5 1133.5 c 128,-1,5
 542 1148 542 1148 568 1150.5 c 128,-1,6
 594 1153 594 1153 612 1153 c 0,7,8
 654 1153 654 1153 688.5 1135.5 c 128,-1,9
 723 1118 723 1118 747 1089 c 128,-1,10
 771 1060 771 1060 784 1022.5 c 128,-1,11
 797 985 797 985 797 946 c 2,12,-1
 797 0 l 1,13,-1
 580 0 l 1,14,-1
 580 868 l 2,15,16
 580 909 580 909 555.5 933.5 c 128,-1,17
 531 958 531 958 496 958 c 0,18,19
 473 958 473 958 452.5 949.5 c 128,-1,20
 432 941 432 941 413 928 c 128,-1,21
 394 915 394 915 376.5 899 c 128,-1,22
 359 883 359 883 342 868 c 1,23,-1
 342 0 l 1,24,-1
 119 0 l 1,25,-1
 119 1135 l 1,0,-1
EndSplineSet
EndChar

StartChar: one
Encoding: 49 49 28
Width: 553
Flags: W
HStem: 0 21G<240 479> 1155 148<29 124.719> 1498 20G<326 479>
VStem: 240 239<0 1155>
LayerCount: 2
Fore
SplineSet
29 1303 m 1,0,1
 102 1334 102 1334 150.5 1361.5 c 128,-1,2
 199 1389 199 1389 233 1415 c 128,-1,3
 267 1441 267 1441 290.5 1466.5 c 128,-1,4
 314 1492 314 1492 338 1518 c 1,5,-1
 479 1518 l 1,6,-1
 479 0 l 1,7,-1
 240 0 l 1,8,-1
 240 1155 l 1,9,-1
 29 1155 l 1,10,-1
 29 1303 l 1,0,1
EndSplineSet
EndChar

StartChar: two
Encoding: 50 50 29
Width: 893
Flags: W
HStem: 0 211<330 805> 1321 213<363.68 554.394>
VStem: 80 235<1069 1272.38> 592 239<918.724 1284.73>
LayerCount: 2
Fore
SplineSet
82 1069 m 1,0,1
 80 1081 80 1081 80 1093.5 c 128,-1,2
 80 1106 80 1106 80 1118 c 0,3,4
 80 1209 80 1209 106 1285 c 128,-1,5
 132 1361 132 1361 182 1416.5 c 128,-1,6
 232 1472 232 1472 304.5 1503 c 128,-1,7
 377 1534 377 1534 471 1534 c 0,8,9
 556 1534 556 1534 623 1503.5 c 128,-1,10
 690 1473 690 1473 736 1419.5 c 128,-1,11
 782 1366 782 1366 806.5 1293.5 c 128,-1,12
 831 1221 831 1221 831 1137 c 0,13,14
 831 1021 831 1021 785 905.5 c 128,-1,15
 739 790 739 790 666.5 676.5 c 128,-1,16
 594 563 594 563 505 451 c 128,-1,17
 416 339 416 339 330 229 c 1,18,-1
 330 211 l 1,19,-1
 805 211 l 1,20,-1
 805 0 l 1,21,-1
 63 0 l 1,22,-1
 63 199 l 1,23,-1
 459 756 l 2,24,25
 500 814 500 814 526 869 c 128,-1,26
 552 924 552 924 566.5 972.5 c 128,-1,27
 581 1021 581 1021 586.5 1061 c 128,-1,28
 592 1101 592 1101 592 1130 c 0,29,30
 592 1164 592 1164 586.5 1198 c 128,-1,31
 581 1232 581 1232 566 1259.5 c 128,-1,32
 551 1287 551 1287 524.5 1304 c 128,-1,33
 498 1321 498 1321 457 1321 c 0,34,35
 413 1321 413 1321 385.5 1299 c 128,-1,36
 358 1277 358 1277 342 1243.5 c 128,-1,37
 326 1210 326 1210 320.5 1170 c 128,-1,38
 315 1130 315 1130 315 1094 c 2,39,-1
 315 1069 l 1,40,-1
 82 1069 l 1,0,1
EndSplineSet
EndChar

StartChar: three
Encoding: 51 51 30
Width: 891
Flags: W
HStem: -14 211<338.942 541.757> 692 213<375 517.728> 1337 207<341.595 536.766>
VStem: 59 232<246.205 440> 80 219<236.721 438.625 1118 1295.9> 575 220<229.168 426.936 963.289 1299.98> 592 235<249.162 624.005>
LayerCount: 2
Fore
SplineSet
422 -14 m 0,0,1
 327 -14 327 -14 258.5 21 c 128,-1,2
 190 56 190 56 146 115 c 128,-1,3
 102 174 102 174 80.5 251 c 128,-1,4
 59 328 59 328 59 412 c 2,5,-1
 59 440 l 1,6,-1
 291 440 l 1,7,8
 291 396 291 396 296 353 c 128,-1,9
 301 310 301 310 317.5 275 c 128,-1,10
 334 240 334 240 365 218.5 c 128,-1,11
 396 197 396 197 449 197 c 0,12,13
 493 197 493 197 521 220.5 c 128,-1,14
 549 244 549 244 564.5 279 c 128,-1,15
 580 314 580 314 586 354 c 128,-1,16
 592 394 592 394 592 428 c 0,17,18
 592 484 592 484 584 532.5 c 128,-1,19
 576 581 576 581 553 616.5 c 128,-1,20
 530 652 530 652 487.5 672 c 128,-1,21
 445 692 445 692 375 692 c 1,22,-1
 375 905 l 1,23,24
 485 905 485 905 530 963 c 128,-1,25
 575 1021 575 1021 575 1135 c 0,26,27
 575 1171 575 1171 570 1207 c 128,-1,28
 565 1243 565 1243 550 1272 c 128,-1,29
 535 1301 535 1301 508.5 1319 c 128,-1,30
 482 1337 482 1337 440 1337 c 0,31,32
 396 1337 396 1337 368.5 1318 c 128,-1,33
 341 1299 341 1299 325.5 1268.5 c 128,-1,34
 310 1238 310 1238 304.5 1198.5 c 128,-1,35
 299 1159 299 1159 299 1118 c 1,36,-1
 80 1118 l 1,37,-1
 80 1143 l 2,38,39
 80 1227 80 1227 101 1300.5 c 128,-1,40
 122 1374 122 1374 166 1428 c 128,-1,41
 210 1482 210 1482 278 1513 c 128,-1,42
 346 1544 346 1544 440 1544 c 0,43,44
 533 1544 533 1544 600 1512 c 128,-1,45
 667 1480 667 1480 710.5 1424 c 128,-1,46
 754 1368 754 1368 774.5 1292.5 c 128,-1,47
 795 1217 795 1217 795 1130 c 0,48,49
 795 1083 795 1083 790 1037.5 c 128,-1,50
 785 992 785 992 769.5 950.5 c 128,-1,51
 754 909 754 909 725.5 872.5 c 128,-1,52
 697 836 697 836 651 807 c 1,53,54
 701 776 701 776 734.5 738.5 c 128,-1,55
 768 701 768 701 788.5 655 c 128,-1,56
 809 609 809 609 818 555.5 c 128,-1,57
 827 502 827 502 827 440 c 0,58,59
 827 345 827 345 805 262 c 128,-1,60
 783 179 783 179 735 117.5 c 128,-1,61
 687 56 687 56 610 21 c 128,-1,62
 533 -14 533 -14 422 -14 c 0,0,1
EndSplineSet
EndChar

StartChar: four
Encoding: 52 52 31
Width: 952
Flags: W
HStem: 0 21G<489 729> 391 205<240 489 729 897> 1516 20G<479.033 729>
VStem: 489 240<0 391 596 1167>
LayerCount: 2
Fore
SplineSet
489 391 m 1,0,-1
 39 391 l 1,1,-1
 39 633 l 1,2,-1
 489 1536 l 1,3,-1
 729 1536 l 1,4,-1
 729 596 l 1,5,-1
 897 596 l 1,6,-1
 897 391 l 1,7,-1
 729 391 l 1,8,-1
 729 0 l 1,9,-1
 489 0 l 1,10,-1
 489 391 l 1,0,-1
489 596 m 1,11,-1
 489 1167 l 1,12,-1
 240 596 l 1,13,-1
 489 596 l 1,11,-1
EndSplineSet
EndChar

StartChar: five
Encoding: 53 53 32
Width: 885
Flags: W
HStem: -14 207<334.53 535.058> 874 191<350.019 527.054> 1298 220<297 758>
VStem: 66 235<224.982 440> 100 185<745 817.877 973 1298> 584 235<242.874 820.699>
LayerCount: 2
Fore
SplineSet
758 1298 m 1,0,-1
 297 1298 l 1,1,-1
 287 973 l 1,2,3
 299 982 299 982 317.5 997.5 c 128,-1,4
 336 1013 336 1013 364 1028 c 128,-1,5
 392 1043 392 1043 430.5 1054 c 128,-1,6
 469 1065 469 1065 520 1065 c 0,7,8
 608 1065 608 1065 666 1024.5 c 128,-1,9
 724 984 724 984 758 914.5 c 128,-1,10
 792 845 792 845 805.5 751 c 128,-1,11
 819 657 819 657 819 549 c 0,12,13
 819 487 819 487 814 421 c 128,-1,14
 809 355 809 355 795 292.5 c 128,-1,15
 781 230 781 230 755 174.5 c 128,-1,16
 729 119 729 119 687 77 c 128,-1,17
 645 35 645 35 585 10.5 c 128,-1,18
 525 -14 525 -14 442 -14 c 0,19,20
 327 -14 327 -14 254 21.5 c 128,-1,21
 181 57 181 57 139 118.5 c 128,-1,22
 97 180 97 180 81.5 262.5 c 128,-1,23
 66 345 66 345 66 440 c 1,24,-1
 303 440 l 1,25,26
 301 426 301 426 301 411.5 c 128,-1,27
 301 397 301 397 301 383 c 0,28,29
 301 347 301 347 306 313 c 128,-1,30
 311 279 311 279 325.5 252 c 128,-1,31
 340 225 340 225 365 209 c 128,-1,32
 390 193 390 193 430 193 c 0,33,34
 478 193 478 193 508.5 213 c 128,-1,35
 539 233 539 233 555.5 272.5 c 128,-1,36
 572 312 572 312 578 370.5 c 128,-1,37
 584 429 584 429 584 506 c 0,38,39
 584 579 584 579 581.5 645.5 c 128,-1,40
 579 712 579 712 565.5 763 c 128,-1,41
 552 814 552 814 521.5 844 c 128,-1,42
 491 874 491 874 436 874 c 0,43,44
 398 874 398 874 369.5 853.5 c 128,-1,45
 341 833 341 833 322 809 c 0,46,47
 300 781 300 781 285 745 c 1,48,-1
 100 745 l 1,49,-1
 100 1518 l 1,50,-1
 768 1518 l 1,51,-1
 758 1298 l 1,0,-1
EndSplineSet
EndChar

StartChar: six
Encoding: 54 54 33
Width: 915
Flags: W
HStem: -14 217<365.139 558.664> 752 213<396.324 568.402> 1346 213<360.132 553.455>
VStem: 70 235<269.273 695.013 834 1288.27> 593.5 230<237.531 484.249 485.689 506 509.688 728.214 1130 1305.51> 608 238<253.58 714.01>
LayerCount: 2
Fore
SplineSet
459 -14 m 256,0,1
 380 -14 380 -14 310 16 c 128,-1,2
 240 46 240 46 188 104 c 128,-1,3
 136 162 136 162 105.5 247.5 c 128,-1,4
 75 333 75 333 74 444 c 2,5,-1
 70 1030 l 2,6,7
 69 1133 69 1133 85 1228.5 c 128,-1,8
 101 1324 101 1324 146 1397.5 c 128,-1,9
 191 1471 191 1471 271.5 1515 c 128,-1,10
 352 1559 352 1559 481 1559 c 0,11,12
 562 1559 562 1559 626 1530 c 128,-1,13
 690 1501 690 1501 734.5 1445.5 c 128,-1,14
 779 1390 779 1390 802 1310.5 c 128,-1,15
 825 1231 825 1231 825 1130 c 1,16,-1
 592 1130 l 1,17,18
 592 1169 592 1169 587.5 1207.5 c 128,-1,19
 583 1246 583 1246 568.5 1276.5 c 128,-1,20
 554 1307 554 1307 528.5 1326.5 c 128,-1,21
 503 1346 503 1346 461 1346 c 0,22,23
 410 1346 410 1346 379 1321 c 128,-1,24
 348 1296 348 1296 331.5 1253 c 128,-1,25
 315 1210 315 1210 310 1152.5 c 128,-1,26
 305 1095 305 1095 305 1030 c 2,27,-1
 305 834 l 1,28,29
 325 863 325 863 352 887 c 128,-1,30
 379 911 379 911 409.5 928.5 c 128,-1,31
 440 946 440 946 472 955.5 c 128,-1,32
 504 965 504 965 535 965 c 0,33,34
 600 965 600 965 649 946 c 128,-1,35
 698 927 698 927 732.5 894 c 128,-1,36
 767 861 767 861 789 817 c 128,-1,37
 811 773 811 773 823.5 722 c 128,-1,38
 836 671 836 671 841 616.5 c 128,-1,39
 846 562 846 562 846 508 c 0,40,41
 846 444 846 444 839.5 380.5 c 128,-1,42
 833 317 833 317 816.5 259 c 128,-1,43
 800 201 800 201 771.5 151 c 128,-1,44
 743 101 743 101 700 64.5 c 128,-1,45
 657 28 657 28 597.5 7 c 128,-1,46
 538 -14 538 -14 459 -14 c 256,0,1
309 475 m 2,47,48
 309 431 309 431 314 383 c 128,-1,49
 319 335 319 335 335.5 295 c 128,-1,50
 352 255 352 255 383 229 c 128,-1,51
 414 203 414 203 467 203 c 0,52,53
 501 203 501 203 525 217.5 c 128,-1,54
 549 232 549 232 564.5 255.5 c 128,-1,55
 580 279 580 279 589 309 c 128,-1,56
 598 339 598 339 602 370 c 128,-1,57
 606 401 606 401 607 431 c 128,-1,58
 608 461 608 461 608 485 c 0,59,60
 608 507 608 507 607.5 536 c 128,-1,61
 607 565 607 565 604 594.5 c 128,-1,62
 601 624 601 624 593.5 652.5 c 128,-1,63
 586 681 586 681 571.5 703 c 128,-1,64
 557 725 557 725 534.5 738.5 c 128,-1,65
 512 752 512 752 479 752 c 0,66,67
 455 752 455 752 430 743 c 128,-1,68
 405 734 405 734 382.5 719.5 c 128,-1,69
 360 705 360 705 341 687.5 c 128,-1,70
 322 670 322 670 309 653 c 1,71,-1
 309 475 l 2,47,48
EndSplineSet
EndChar

StartChar: seven
Encoding: 55 55 34
Width: 858
Flags: W
HStem: 0 21G<221 471.674> 1305 213<76 549>
LayerCount: 2
Fore
SplineSet
76 1518 m 1,0,-1
 793 1518 l 1,1,-1
 793 1395 l 1,2,-1
 467 0 l 1,3,-1
 221 0 l 1,4,-1
 549 1305 l 1,5,-1
 76 1305 l 1,6,-1
 76 1518 l 1,0,-1
EndSplineSet
EndChar

StartChar: eight
Encoding: 56 56 35
Width: 915
Flags: W
HStem: -14 207<360.433 552.889> 698 209<361.728 551.902> 1346 200<355.967 557.14>
VStem: 74 229<254.149 641.074> 96 223<234.813 428.905 949.021 1310.68> 594 223<232.434 428.905 948.938 1310.68> 610 230<254.149 641.074>
LayerCount: 2
Fore
SplineSet
457 1346 m 256,0,1
 414 1346 414 1346 387 1329.5 c 128,-1,2
 360 1313 360 1313 345 1285.5 c 128,-1,3
 330 1258 330 1258 324.5 1222 c 128,-1,4
 319 1186 319 1186 319 1147 c 0,5,6
 319 1106 319 1106 323.5 1063.5 c 128,-1,7
 328 1021 328 1021 342 986 c 128,-1,8
 356 951 356 951 383.5 929 c 128,-1,9
 411 907 411 907 457 907 c 256,10,11
 503 907 503 907 530 929 c 128,-1,12
 557 951 557 951 571.5 986 c 128,-1,13
 586 1021 586 1021 590 1063.5 c 128,-1,14
 594 1106 594 1106 594 1147 c 0,15,16
 594 1186 594 1186 588.5 1222 c 128,-1,17
 583 1258 583 1258 568 1285.5 c 128,-1,18
 553 1313 553 1313 526.5 1329.5 c 128,-1,19
 500 1346 500 1346 457 1346 c 256,0,1
457 1546 m 0,20,21
 548 1546 548 1546 615.5 1518 c 128,-1,22
 683 1490 683 1490 728 1438.5 c 128,-1,23
 773 1387 773 1387 795 1313 c 128,-1,24
 817 1239 817 1239 817 1147 c 0,25,26
 817 1096 817 1096 811 1049 c 128,-1,27
 805 1002 805 1002 789.5 959.5 c 128,-1,28
 774 917 774 917 746 878.5 c 128,-1,29
 718 840 718 840 674 807 c 1,30,31
 712 782 712 782 743 751.5 c 128,-1,32
 774 721 774 721 795.5 677.5 c 128,-1,33
 817 634 817 634 828.5 574.5 c 128,-1,34
 840 515 840 515 840 432 c 256,35,36
 840 349 840 349 820 269 c 128,-1,37
 800 189 800 189 755 126 c 128,-1,38
 710 63 710 63 636.5 24.5 c 128,-1,39
 563 -14 563 -14 457 -14 c 0,40,41
 350 -14 350 -14 277 24.5 c 128,-1,42
 204 63 204 63 159 126 c 128,-1,43
 114 189 114 189 94 269 c 128,-1,44
 74 349 74 349 74 432 c 256,45,46
 74 515 74 515 85.5 574.5 c 128,-1,47
 97 634 97 634 118.5 677.5 c 128,-1,48
 140 721 140 721 170.5 751.5 c 128,-1,49
 201 782 201 782 240 807 c 1,50,51
 196 840 196 840 168 878.5 c 128,-1,52
 140 917 140 917 124 959.5 c 128,-1,53
 108 1002 108 1002 102 1049 c 128,-1,54
 96 1096 96 1096 96 1147 c 0,55,56
 96 1239 96 1239 118 1313 c 128,-1,57
 140 1387 140 1387 185 1438.5 c 128,-1,58
 230 1490 230 1490 297.5 1518 c 128,-1,59
 365 1546 365 1546 457 1546 c 0,20,21
457 193 m 256,60,61
 503 193 503 193 532.5 217 c 128,-1,62
 562 241 562 241 579.5 276.5 c 128,-1,63
 597 312 597 312 603.5 353.5 c 128,-1,64
 610 395 610 395 610 430 c 0,65,66
 610 470 610 470 605.5 517 c 128,-1,67
 601 564 601 564 585.5 604 c 128,-1,68
 570 644 570 644 539.5 671 c 128,-1,69
 509 698 509 698 457 698 c 0,70,71
 404 698 404 698 373.5 671 c 128,-1,72
 343 644 343 644 327.5 604 c 128,-1,73
 312 564 312 564 307.5 517 c 128,-1,74
 303 470 303 470 303 430 c 0,75,76
 303 395 303 395 310 353.5 c 128,-1,77
 317 312 317 312 334 276.5 c 128,-1,78
 351 241 351 241 381 217 c 128,-1,79
 411 193 411 193 457 193 c 256,60,61
EndSplineSet
EndChar

StartChar: nine
Encoding: 57 57 36
Width: 918
Flags: W
HStem: -14 213<361.373 557.43> 580 213<348.406 521.125> 1341 218<357.412 550.861>
VStem: 70 237<832.062 1287.54> 90 234<235.99 414 813.646 1033.47 1039 1057.93 1059.72 1308.98> 610 236<255.971 711 849.011 1277.89>
LayerCount: 2
Fore
SplineSet
457 1559 m 0,0,1
 536 1559 536 1559 606 1529 c 128,-1,2
 676 1499 676 1499 728 1441 c 128,-1,3
 780 1383 780 1383 810.5 1297 c 128,-1,4
 841 1211 841 1211 842 1100 c 2,5,-1
 846 514 l 2,6,7
 847 411 847 411 831 316 c 128,-1,8
 815 221 815 221 770 147.5 c 128,-1,9
 725 74 725 74 644 30 c 128,-1,10
 563 -14 563 -14 434 -14 c 0,11,12
 353 -14 353 -14 289 15 c 128,-1,13
 225 44 225 44 180.5 99 c 128,-1,14
 136 154 136 154 113 233.5 c 128,-1,15
 90 313 90 313 90 414 c 1,16,-1
 324 414 l 1,17,18
 324 375 324 375 328.5 337 c 128,-1,19
 333 299 333 299 347 268 c 128,-1,20
 361 237 361 237 387 218 c 128,-1,21
 413 199 413 199 455 199 c 0,22,23
 506 199 506 199 537 223.5 c 128,-1,24
 568 248 568 248 584 291 c 128,-1,25
 600 334 600 334 605 391.5 c 128,-1,26
 610 449 610 449 610 514 c 2,27,-1
 610 711 l 1,28,29
 590 682 590 682 563.5 657.5 c 128,-1,30
 537 633 537 633 506.5 616 c 128,-1,31
 476 599 476 599 444 589.5 c 128,-1,32
 412 580 412 580 381 580 c 0,33,34
 283 580 283 580 222 621 c 128,-1,35
 161 662 161 662 127 727.5 c 128,-1,36
 93 793 93 793 81.5 874 c 128,-1,37
 70 955 70 955 70 1036 c 0,38,39
 70 1132 70 1132 85.5 1225.5 c 128,-1,40
 101 1319 101 1319 144 1393.5 c 128,-1,41
 187 1468 187 1468 262.5 1513.5 c 128,-1,42
 338 1559 338 1559 457 1559 c 0,0,1
606 1069 m 2,43,44
 606 1113 606 1113 601.5 1161 c 128,-1,45
 597 1209 597 1209 580.5 1249 c 128,-1,46
 564 1289 564 1289 533 1315 c 128,-1,47
 502 1341 502 1341 449 1341 c 0,48,49
 415 1341 415 1341 391 1326.5 c 128,-1,50
 367 1312 367 1312 351 1288.5 c 128,-1,51
 335 1265 335 1265 326 1235 c 128,-1,52
 317 1205 317 1205 313 1174 c 128,-1,53
 309 1143 309 1143 308 1112.5 c 128,-1,54
 307 1082 307 1082 307 1059 c 0,55,56
 307 1025 307 1025 308.5 979.5 c 128,-1,57
 310 934 310 934 321.5 892.5 c 128,-1,58
 333 851 333 851 359.5 822 c 128,-1,59
 386 793 386 793 436 793 c 0,60,61
 461 793 461 793 485.5 802 c 128,-1,62
 510 811 510 811 532.5 825 c 128,-1,63
 555 839 555 839 574 856.5 c 128,-1,64
 593 874 593 874 606 891 c 1,65,-1
 606 1069 l 2,43,44
EndSplineSet
EndChar

StartChar: zero
Encoding: 48 48 37
Width: 918
Flags: W
HStem: -14 215<364.08 549.228> 1337 215<358.799 554.294>
VStem: 70 233<268.789 1277.75> 610 234<268.789 1277.75>
LayerCount: 2
Fore
SplineSet
457 1552 m 256,0,1
 484 1552 484 1552 523 1547 c 128,-1,2
 562 1542 562 1542 605 1525.5 c 128,-1,3
 648 1509 648 1509 691 1477 c 128,-1,4
 734 1445 734 1445 768 1391.5 c 128,-1,5
 802 1338 802 1338 823 1259 c 128,-1,6
 844 1180 844 1180 844 1069 c 2,7,-1
 844 477 l 2,8,9
 844 344 844 344 811 251 c 128,-1,10
 778 158 778 158 724 99 c 128,-1,11
 670 40 670 40 600 13 c 128,-1,12
 530 -14 530 -14 457 -14 c 0,13,14
 383 -14 383 -14 313.5 13 c 128,-1,15
 244 40 244 40 190 99 c 128,-1,16
 136 158 136 158 103 251 c 128,-1,17
 70 344 70 344 70 477 c 2,18,-1
 70 1069 l 2,19,20
 70 1180 70 1180 91 1259 c 128,-1,21
 112 1338 112 1338 146 1391.5 c 128,-1,22
 180 1445 180 1445 222.5 1477 c 128,-1,23
 265 1509 265 1509 308 1525.5 c 128,-1,24
 351 1542 351 1542 390.5 1547 c 128,-1,25
 430 1552 430 1552 457 1552 c 256,0,1
457 201 m 256,26,27
 505 201 505 201 535 230 c 128,-1,28
 565 259 565 259 581.5 301 c 128,-1,29
 598 343 598 343 604 390 c 128,-1,30
 610 437 610 437 610 473 c 2,31,-1
 610 1069 l 2,32,33
 610 1106 610 1106 605.5 1152.5 c 128,-1,34
 601 1199 601 1199 585 1240 c 128,-1,35
 569 1281 569 1281 538.5 1309 c 128,-1,36
 508 1337 508 1337 457 1337 c 0,37,38
 405 1337 405 1337 374.5 1309 c 128,-1,39
 344 1281 344 1281 328 1240 c 128,-1,40
 312 1199 312 1199 307.5 1152.5 c 128,-1,41
 303 1106 303 1106 303 1069 c 2,42,-1
 303 473 l 2,43,44
 303 437 303 437 309 390 c 128,-1,45
 315 343 315 343 331.5 301 c 128,-1,46
 348 259 348 259 378.5 230 c 128,-1,47
 409 201 409 201 457 201 c 256,26,27
EndSplineSet
EndChar

StartChar: dollar
Encoding: 36 36 38
Width: 905
Flags: W
VStem: 76 207<1045.4 1315.25> 381 131<-201 17.8185 231 612 997 1343 1546.64 1604> 625 225<265.292 544.854>
LayerCount: 2
Fore
SplineSet
381 8 m 1,0,1
 327 17 327 17 282 38.5 c 128,-1,2
 237 60 237 60 197 89.5 c 128,-1,3
 157 119 157 119 122 154 c 128,-1,4
 87 189 87 189 53 227 c 1,5,-1
 203 383 l 1,6,7
 235 336 235 336 266 307 c 128,-1,8
 297 278 297 278 323 261 c 0,9,10
 353 241 353 241 381 231 c 1,11,-1
 381 707 l 1,12,13
 322 746 322 746 267 790 c 128,-1,14
 212 834 212 834 169.5 888 c 128,-1,15
 127 942 127 942 101.5 1009 c 128,-1,16
 76 1076 76 1076 76 1161 c 0,17,18
 76 1241 76 1241 98.5 1307 c 128,-1,19
 121 1373 121 1373 161 1423 c 128,-1,20
 201 1473 201 1473 257 1505.5 c 128,-1,21
 313 1538 313 1538 381 1552 c 1,22,-1
 381 1604 l 1,23,-1
 512 1604 l 1,24,-1
 512 1552 l 1,25,26
 549 1550 549 1550 588 1538.5 c 128,-1,27
 627 1527 627 1527 665.5 1506 c 128,-1,28
 704 1485 704 1485 739 1455 c 128,-1,29
 774 1425 774 1425 803 1386 c 1,30,31
 777 1356 777 1356 752 1328 c 0,32,33
 731 1304 731 1304 707.5 1277.5 c 128,-1,34
 684 1251 684 1251 668 1233 c 1,35,36
 660 1240 660 1240 641.5 1258 c 128,-1,37
 623 1276 623 1276 600 1294.5 c 128,-1,38
 577 1313 577 1313 553.5 1327.5 c 128,-1,39
 530 1342 530 1342 512 1343 c 1,40,-1
 512 920 l 1,41,42
 557 885 557 885 599.5 852 c 128,-1,43
 642 819 642 819 679.5 784.5 c 128,-1,44
 717 750 717 750 748.5 712 c 128,-1,45
 780 674 780 674 802.5 628.5 c 128,-1,46
 825 583 825 583 837.5 528 c 128,-1,47
 850 473 850 473 850 406 c 0,48,49
 850 323 850 323 822 254.5 c 128,-1,50
 794 186 794 186 747 135 c 128,-1,51
 700 84 700 84 639 52.5 c 128,-1,52
 578 21 578 21 512 12 c 1,53,-1
 512 -201 l 1,54,-1
 381 -201 l 1,55,-1
 381 8 l 1,0,1
512 219 m 1,56,57
 542 224 542 224 563.5 245.5 c 128,-1,58
 585 267 585 267 598.5 294.5 c 128,-1,59
 612 322 612 322 618.5 351 c 128,-1,60
 625 380 625 380 625 401 c 0,61,62
 625 418 625 418 621.5 443.5 c 128,-1,63
 618 469 618 469 606 498 c 128,-1,64
 594 527 594 527 571.5 557 c 128,-1,65
 549 587 549 587 512 612 c 1,66,-1
 512 219 l 1,56,57
283 1176 m 0,67,68
 283 1157 283 1157 288.5 1132 c 128,-1,69
 294 1107 294 1107 306 1081.5 c 128,-1,70
 318 1056 318 1056 336.5 1033.5 c 128,-1,71
 355 1011 355 1011 381 997 c 1,72,-1
 381 1343 l 1,73,74
 353 1341 353 1341 334.5 1322.5 c 128,-1,75
 316 1304 316 1304 304.5 1278.5 c 128,-1,76
 293 1253 293 1253 288 1225 c 128,-1,77
 283 1197 283 1197 283 1176 c 0,67,68
EndSplineSet
EndChar

StartChar: ampersand
Encoding: 38 38 39
Width: 1057
Flags: W
HStem: -14 231<345.198 543.881 915.663 998.624> 1395 151<381.033 525.842>
VStem: 59 238<265.71 558.836> 156 194<1014.08 1365.5> 545 205<1087.59 1380.75> 742.5 205<485.998 700>
LayerCount: 2
Fore
SplineSet
59 362 m 0,0,1
 59 364 59 364 59.5 382 c 128,-1,2
 60 400 60 400 65 430.5 c 128,-1,3
 70 461 70 461 82 501 c 128,-1,4
 94 541 94 541 116.5 587 c 128,-1,5
 139 633 139 633 174.5 683 c 128,-1,6
 210 733 210 733 262 784 c 1,7,8
 236 837 236 837 216.5 884 c 128,-1,9
 197 931 197 931 183.5 976 c 128,-1,10
 170 1021 170 1021 163 1066 c 128,-1,11
 156 1111 156 1111 156 1159 c 0,12,13
 156 1230 156 1230 176 1299.5 c 128,-1,14
 196 1369 196 1369 235 1423.5 c 128,-1,15
 274 1478 274 1478 332.5 1512 c 128,-1,16
 391 1546 391 1546 469 1546 c 0,17,18
 537 1546 537 1546 589.5 1519 c 128,-1,19
 642 1492 642 1492 677.5 1446.5 c 128,-1,20
 713 1401 713 1401 731.5 1341.5 c 128,-1,21
 750 1282 750 1282 750 1217 c 0,22,23
 750 1177 750 1177 739.5 1137 c 128,-1,24
 729 1097 729 1097 712.5 1058.5 c 128,-1,25
 696 1020 696 1020 674 984.5 c 128,-1,26
 652 949 652 949 630 918 c 0,27,28
 577 845 577 845 510 778 c 1,29,-1
 694 477 l 1,30,31
 702 496 702 496 710.5 519 c 128,-1,32
 719 542 719 542 727 571.5 c 128,-1,33
 735 601 735 601 742.5 639 c 128,-1,34
 750 677 750 677 756 727 c 1,35,-1
 956 700 l 1,36,37
 956 658 956 658 947.5 607 c 128,-1,38
 939 556 939 556 924 505 c 128,-1,39
 909 454 909 454 889 406.5 c 128,-1,40
 869 359 869 359 846 324 c 1,41,42
 861 303 861 303 884 285 c 0,43,44
 903 269 903 269 932 251.5 c 128,-1,45
 961 234 961 234 999 223 c 1,46,-1
 999 -8 l 1,47,48
 987 -14 987 -14 969 -14 c 0,49,50
 943 -14 943 -14 909 -1 c 128,-1,51
 875 12 875 12 839 33 c 128,-1,52
 803 54 803 54 768.5 80.5 c 128,-1,53
 734 107 734 107 707 135 c 1,54,55
 651 63 651 63 569 24.5 c 128,-1,56
 487 -14 487 -14 391 -14 c 0,57,58
 317 -14 317 -14 256 19 c 128,-1,59
 195 52 195 52 151.5 105 c 128,-1,60
 108 158 108 158 83.5 225.5 c 128,-1,61
 59 293 59 293 59 362 c 0,0,1
418 954 m 1,62,63
 439 979 439 979 461.5 1015 c 128,-1,64
 484 1051 484 1051 502.5 1092 c 128,-1,65
 521 1133 521 1133 533 1176.5 c 128,-1,66
 545 1220 545 1220 545 1260 c 0,67,68
 545 1284 545 1284 540.5 1308 c 128,-1,69
 536 1332 536 1332 525.5 1351.5 c 128,-1,70
 515 1371 515 1371 497.5 1383 c 128,-1,71
 480 1395 480 1395 455 1395 c 0,72,73
 428 1395 428 1395 408 1380 c 128,-1,74
 388 1365 388 1365 375.5 1341 c 128,-1,75
 363 1317 363 1317 356.5 1286 c 128,-1,76
 350 1255 350 1255 350 1223 c 0,77,78
 350 1163 350 1163 368.5 1096.5 c 128,-1,79
 387 1030 387 1030 418 954 c 1,62,63
297 410 m 0,80,81
 297 380 297 380 304 347 c 128,-1,82
 311 314 311 314 327 286.5 c 128,-1,83
 343 259 343 259 367 239.5 c 128,-1,84
 391 220 391 220 426 217 c 1,85,86
 461 217 461 217 487 227.5 c 128,-1,87
 513 238 513 238 531 251 c 0,88,89
 552 266 552 266 567 285 c 1,90,91
 491 394 491 394 449 456 c 128,-1,92
 407 518 407 518 388 548 c 1,93,94
 364 583 364 583 360 592 c 1,95,96
 346 574 346 574 334.5 552 c 128,-1,97
 323 530 323 530 315 505.5 c 128,-1,98
 307 481 307 481 302 456.5 c 128,-1,99
 297 432 297 432 297 410 c 0,80,81
EndSplineSet
EndChar

StartChar: r
Encoding: 114 114 40
Width: 571
Flags: W
HStem: 0 21G<49 274> 920 227<387.444 550.469>
VStem: 49 225<0 877.496 983 1135>
LayerCount: 2
Fore
SplineSet
268 1135 m 1,0,-1
 268 983 l 1,1,-1
 281 983 l 1,2,3
 298 1016 298 1016 323.5 1045.5 c 128,-1,4
 349 1075 349 1075 380.5 1097.5 c 128,-1,5
 412 1120 412 1120 448 1133.5 c 128,-1,6
 484 1147 484 1147 522 1147 c 0,7,8
 527 1147 527 1147 539 1146 c 128,-1,9
 551 1145 551 1145 551 1143 c 2,10,-1
 551 895 l 1,11,12
 534 902 534 902 516 907 c 0,13,14
 499 912 499 912 478 916 c 128,-1,15
 457 920 457 920 432 920 c 0,16,17
 398 920 398 920 369 909 c 128,-1,18
 340 898 340 898 319 877.5 c 128,-1,19
 298 857 298 857 286 828 c 128,-1,20
 274 799 274 799 274 764 c 2,21,-1
 274 0 l 1,22,-1
 49 0 l 1,23,-1
 49 1135 l 1,24,-1
 268 1135 l 1,0,-1
EndSplineSet
EndChar

StartChar: s
Encoding: 115 115 41
Width: 850
Flags: W
HStem: -14 213<329.112 541.617> 946 207<322.896 515.942>
VStem: 88 219<773.028 927.079> 555 231<216.293 397.941>
LayerCount: 2
Fore
SplineSet
258 387 m 1,0,1
 276 322 276 322 299 284.5 c 128,-1,2
 322 247 322 247 346 228 c 128,-1,3
 370 209 370 209 393 204 c 128,-1,4
 416 199 416 199 434 199 c 0,5,6
 459 199 459 199 481 204 c 128,-1,7
 503 209 503 209 519.5 220 c 128,-1,8
 536 231 536 231 545.5 249.5 c 128,-1,9
 555 268 555 268 555 295 c 0,10,11
 555 304 555 304 552 320.5 c 128,-1,12
 549 337 549 337 538.5 357.5 c 128,-1,13
 528 378 528 378 508.5 400 c 128,-1,14
 489 422 489 422 455 442 c 2,15,-1
 289 539 l 2,16,17
 230 573 230 573 191 611.5 c 128,-1,18
 152 650 152 650 129 688 c 128,-1,19
 106 726 106 726 97 762.5 c 128,-1,20
 88 799 88 799 88 829 c 0,21,22
 88 900 88 900 115.5 959.5 c 128,-1,23
 143 1019 143 1019 189.5 1062 c 128,-1,24
 236 1105 236 1105 298 1129 c 128,-1,25
 360 1153 360 1153 428 1153 c 0,26,27
 484 1153 484 1153 538 1137.5 c 128,-1,28
 592 1122 592 1122 639 1088 c 128,-1,29
 686 1054 686 1054 723 1000 c 128,-1,30
 760 946 760 946 782 870 c 1,31,-1
 590 784 l 1,32,33
 586 788 586 788 579.5 801.5 c 128,-1,34
 573 815 573 815 563 833 c 128,-1,35
 553 851 553 851 540 871 c 128,-1,36
 527 891 527 891 509.5 907.5 c 128,-1,37
 492 924 492 924 470 935 c 128,-1,38
 448 946 448 946 422 946 c 0,39,40
 399 946 399 946 378.5 940 c 128,-1,41
 358 934 358 934 342 922 c 128,-1,42
 326 910 326 910 316.5 891.5 c 128,-1,43
 307 873 307 873 307 848 c 0,44,45
 307 838 307 838 309.5 826 c 128,-1,46
 312 814 312 814 325.5 798 c 128,-1,47
 339 782 339 782 367.5 761 c 128,-1,48
 396 740 396 740 449 711 c 1,49,-1
 586 633 l 2,50,51
 653 594 653 594 693 549.5 c 128,-1,52
 733 505 733 505 753.5 460.5 c 128,-1,53
 774 416 774 416 780 375 c 128,-1,54
 786 334 786 334 786 303 c 0,55,56
 786 233 786 233 758 175 c 128,-1,57
 730 117 730 117 682 75 c 128,-1,58
 634 33 634 33 569.5 9.5 c 128,-1,59
 505 -14 505 -14 432 -14 c 0,60,61
 367 -14 367 -14 306.5 10 c 128,-1,62
 246 34 246 34 195.5 77.5 c 128,-1,63
 145 121 145 121 108.5 181.5 c 128,-1,64
 72 242 72 242 57 315 c 1,65,-1
 57 317 l 1,66,-1
 258 387 l 1,0,1
EndSplineSet
EndChar

StartChar: t
Encoding: 116 116 42
Width: 682
Flags: W
HStem: -14 207<438.557 620.031> 938 197<41 197 418 614>
VStem: 197 221<211.77 934 1135 1444>
LayerCount: 2
Fore
SplineSet
621 0 m 1,0,1
 590 -8 590 -8 558.5 -11 c 128,-1,2
 527 -14 527 -14 483 -14 c 0,3,4
 412 -14 412 -14 363 -0.5 c 128,-1,5
 314 13 314 13 282 39 c 128,-1,6
 250 65 250 65 233 103 c 128,-1,7
 216 141 216 141 208 189 c 128,-1,8
 200 237 200 237 198.5 295.5 c 128,-1,9
 197 354 197 354 197 422 c 2,10,-1
 197 934 l 1,11,-1
 41 934 l 1,12,-1
 41 1135 l 1,13,-1
 205 1135 l 1,14,-1
 205 1444 l 1,15,-1
 416 1444 l 1,16,-1
 416 1135 l 1,17,-1
 614 1135 l 1,18,-1
 614 938 l 1,19,-1
 418 938 l 1,20,-1
 418 383 l 2,21,22
 418 326 418 326 423 289 c 128,-1,23
 428 252 428 252 443 231 c 128,-1,24
 458 210 458 210 485 201.5 c 128,-1,25
 512 193 512 193 557 193 c 0,26,27
 571 193 571 193 586.5 193 c 128,-1,28
 602 193 602 193 621 195 c 1,29,-1
 621 0 l 1,0,1
EndSplineSet
EndChar

StartChar: u
Encoding: 117 117 43
Width: 836
Flags: W
HStem: -14 186<274.438 421.309> 1115 20G<76 297 532 756>
VStem: 76 221<179.245 1135> 532 224<0 137 220.79 1135>
LayerCount: 2
Fore
SplineSet
756 0 m 1,0,-1
 535 0 l 1,1,-1
 535 137 l 1,2,3
 494 89 494 89 458.5 59 c 128,-1,4
 423 29 423 29 392 13 c 128,-1,5
 361 -3 361 -3 333.5 -8.5 c 128,-1,6
 306 -14 306 -14 281 -14 c 0,7,8
 237 -14 237 -14 199.5 -1 c 128,-1,9
 162 12 162 12 134.5 39 c 128,-1,10
 107 66 107 66 91.5 106.5 c 128,-1,11
 76 147 76 147 76 203 c 2,12,-1
 76 1135 l 1,13,-1
 297 1135 l 1,14,-1
 297 309 l 2,15,16
 297 267 297 267 304 240.5 c 128,-1,17
 311 214 311 214 321.5 198.5 c 128,-1,18
 332 183 332 183 345.5 177.5 c 128,-1,19
 359 172 359 172 371 172 c 0,20,21
 390 172 390 172 412.5 179 c 128,-1,22
 435 186 435 186 456.5 199 c 128,-1,23
 478 212 478 212 498 230 c 128,-1,24
 518 248 518 248 532 270 c 1,25,-1
 532 1135 l 1,26,-1
 756 1135 l 1,27,-1
 756 0 l 1,0,-1
EndSplineSet
EndChar

StartChar: v
Encoding: 118 118 44
Width: 881
Flags: W
HStem: 0 21G<331.154 551.828> 1115 20G<61 287.198 595.722 821>
LayerCount: 2
Fore
SplineSet
440 387 m 1,0,-1
 600 1135 l 1,1,-1
 821 1135 l 1,2,-1
 547 0 l 1,3,-1
 336 0 l 1,4,-1
 61 1135 l 1,5,-1
 283 1135 l 1,6,-1
 440 387 l 1,0,-1
EndSplineSet
EndChar

StartChar: w
Encoding: 119 119 45
Width: 1284
Flags: W
HStem: 0 21G<292.806 508.018 773.982 989.194> 1115 20G<59 273.861 536.994 745.006 1008.14 1223>
LayerCount: 2
Fore
SplineSet
741 1135 m 1,0,-1
 879 446 l 1,1,-1
 1012 1135 l 1,2,-1
 1223 1135 l 1,3,-1
 985 0 l 1,4,-1
 778 0 l 1,5,-1
 641 682 l 1,6,-1
 504 0 l 1,7,-1
 297 0 l 1,8,-1
 59 1135 l 1,9,-1
 270 1135 l 1,10,-1
 403 446 l 1,11,-1
 541 1135 l 1,12,-1
 741 1135 l 1,0,-1
EndSplineSet
EndChar

StartChar: x
Encoding: 120 120 46
Width: 889
Flags: W
HStem: 12 25<262 264> 1115 20G<82 311.544 569.806 805>
LayerCount: 2
Fore
SplineSet
309 567 m 1,0,-1
 309 612 l 1,1,-1
 82 1114 l 1,2,-1
 82 1135 l 1,3,-1
 303 1135 l 1,4,-1
 438 819 l 2,5,6
 438 817 438 817 440 817 c 0,7,8
 448 817 448 817 451 825 c 2,9,-1
 578 1135 l 1,10,-1
 805 1135 l 1,11,-1
 573 612 l 1,12,-1
 573 580 l 1,13,-1
 823 12 l 1,14,-1
 602 12 l 1,15,-1
 451 367 l 1,16,-1
 438 367 l 1,17,-1
 289 12 l 1,18,19
 256 11 256 11 224 10 c 0,20,21
 197 9 197 9 168.5 8 c 128,-1,22
 140 7 140 7 121 6 c 1,23,-1
 106 6 l 2,24,25
 103 6 103 6 96 6.5 c 128,-1,26
 89 7 89 7 81.5 8.5 c 128,-1,27
 74 10 74 10 68.5 12 c 128,-1,28
 63 14 63 14 63 16 c 2,29,-1
 63 18 l 1,30,-1
 309 567 l 1,0,-1
328 627 m 2,31,32
 327 627 327 627 326 626 c 1,33,-1
 326 625 l 2,34,35
 326 623 326 623 328 623 c 2,36,-1
 329 623 l 1,37,38
 329 623 329 623 330 625 c 1,39,-1
 328 627 l 2,31,32
586 717 m 2,40,41
 585 717 585 717 584 716 c 1,42,-1
 584 715 l 2,43,44
 584 713 584 713 586 713 c 2,45,-1
 587 713 l 1,46,47
 587 713 587 713 588 715 c 1,48,-1
 586 717 l 2,40,41
193 143 m 2,49,50
 192 143 192 143 191 142 c 1,51,-1
 190 142 l 1,52,-1
 190 141 l 2,53,54
 190 139 190 139 193 139 c 2,55,-1
 194 139 l 1,56,57
 194 139 194 139 195 141 c 1,58,-1
 193 143 l 2,49,50
586 485 m 2,59,60
 585 485 585 485 584 484 c 1,61,-1
 584 483 l 2,62,63
 584 481 584 481 586 481 c 2,64,-1
 587 481 l 1,65,66
 587 481 587 481 588 483 c 1,67,-1
 586 485 l 2,59,60
475 391 m 1,68,-1
 476 391 l 1,69,70
 476 391 476 391 477 393 c 1,71,-1
 475 395 l 1,72,-1
 475 391 l 1,68,-1
264 41 m 1,73,74
 263 41 263 41 262 40 c 1,75,-1
 262 39 l 2,76,77
 262 37 262 37 264 37 c 1,78,-1
 264 41 l 1,73,74
354 485 m 1,79,80
 353 485 353 485 352 484 c 1,81,-1
 352 483 l 2,82,83
 352 481 352 481 354 481 c 1,84,-1
 354 485 l 1,79,80
354 381 m 1,85,86
 352 381 352 381 352 379 c 1,87,-1
 354 379 l 1,88,-1
 354 381 l 1,85,86
346 604 m 1,89,-1
 348 604 l 1,90,91
 348 605 348 605 347 606 c 1,92,-1
 346 606 l 1,93,-1
 346 604 l 1,89,-1
EndSplineSet
EndChar

StartChar: y
Encoding: 121 121 47
Width: 862
Flags: W
HStem: -354 207<70 233.726> 1115 20G<93.5 97 577.601 802>
LayerCount: 2
Fore
SplineSet
63 -354 m 1,0,-1
 63 -174 l 1,1,-1
 70 -147 l 1,2,3
 114 -146 114 -146 154 -137 c 128,-1,4
 194 -128 194 -128 224.5 -108.5 c 128,-1,5
 255 -89 255 -89 273 -56.5 c 128,-1,6
 291 -24 291 -24 291 25 c 0,7,8
 291 27 291 27 291 30 c 128,-1,9
 291 33 291 33 289 33 c 1,10,-1
 51 1122 l 1,11,12
 49 1124 49 1124 53.5 1126.5 c 128,-1,13
 58 1129 58 1129 66 1131 c 128,-1,14
 74 1133 74 1133 82.5 1134 c 128,-1,15
 91 1135 91 1135 96 1135 c 0,16,17
 98 1135 98 1135 108.5 1134 c 128,-1,18
 119 1133 119 1133 131 1131.5 c 128,-1,19
 143 1130 143 1130 154 1129 c 128,-1,20
 165 1128 165 1128 168 1128 c 2,21,-1
 270 1128 l 1,22,-1
 354 762 l 1,23,-1
 354 754 l 1,24,-1
 422 442 l 1,25,-1
 432 453 l 1,26,-1
 582 1135 l 1,27,-1
 799 1135 l 2,28,29
 805 1135 805 1135 806 1126.5 c 128,-1,30
 807 1118 807 1118 807 1116 c 0,31,32
 807 1113 807 1113 806 1108.5 c 128,-1,33
 805 1104 805 1104 805 1102 c 2,34,-1
 489 -135 l 2,35,36
 481 -168 481 -168 461 -201 c 128,-1,37
 441 -234 441 -234 414 -262 c 128,-1,38
 387 -290 387 -290 355 -311.5 c 128,-1,39
 323 -333 323 -333 289 -342 c 1,40,-1
 131 -360 l 2,41,42
 126 -360 126 -360 121.5 -360 c 128,-1,43
 117 -360 117 -360 115 -354 c 1,44,-1
 63 -354 l 1,0,-1
238 1098 m 2,45,46
 237 1098 237 1098 236 1097 c 1,47,-1
 236 1096 l 2,48,49
 236 1094 236 1094 238 1094 c 2,50,-1
 239 1094 l 1,51,52
 239 1094 239 1094 240 1096 c 1,53,-1
 238 1098 l 2,45,46
154 901 m 1,54,-1
 155 901 l 1,55,56
 155 901 155 901 156 903 c 1,57,-1
 154 905 l 1,58,-1
 154 901 l 1,54,-1
244 502 m 1,59,-1
 245 502 l 1,60,61
 245 502 245 502 246 504 c 1,62,-1
 244 506 l 1,63,-1
 244 502 l 1,59,-1
309 -199 m 2,64,65
 307 -199 307 -199 307 -201 c 1,66,-1
 309 -201 l 1,67,-1
 311 -201 l 1,68,69
 311 -200 311 -200 310 -199 c 1,70,-1
 309 -199 l 2,64,65
EndSplineSet
EndChar

StartChar: z
Encoding: 122 122 48
Width: 823
Flags: W
HStem: 0 213<336 741> 928 207<117 477>
VStem: 72 676<12.1875 213>
LayerCount: 2
Fore
SplineSet
477 915 m 1,0,-1
 477 928 l 1,1,-1
 117 928 l 1,2,-1
 117 1135 l 1,3,-1
 741 1135 l 1,4,-1
 741 915 l 1,5,-1
 336 225 l 1,6,-1
 336 213 l 1,7,-1
 741 213 l 2,8,9
 744 213 744 213 745.5 200.5 c 128,-1,10
 747 188 747 188 748 168.5 c 128,-1,11
 749 149 749 149 749.5 124.5 c 128,-1,12
 750 100 750 100 750 76 c 0,13,14
 750 70 750 70 750 61 c 128,-1,15
 750 52 750 52 750 43 c 128,-1,16
 750 34 750 34 749.5 27 c 128,-1,17
 749 20 749 20 748 18 c 2,18,-1
 741 6 l 1,19,-1
 98 0 l 2,20,21
 96 0 96 0 88.5 2 c 128,-1,22
 81 4 81 4 78 6 c 2,23,-1
 72 12 l 1,24,-1
 72 213 l 1,25,-1
 477 915 l 1,0,-1
EndSplineSet
EndChar

StartChar: a
Encoding: 97 97 49
Width: 842
Flags: W
HStem: -14 194<261.411 415.154> 963 190<332.635 513.243>
VStem: 53 226<204.225 420.796> 92 207<809 919.165> 532 224<218.003 575 698.488 944.457>
LayerCount: 2
Fore
SplineSet
281 -14 m 0,0,1
 219 -14 219 -14 175.5 9 c 128,-1,2
 132 32 132 32 105 70 c 128,-1,3
 78 108 78 108 65.5 156 c 128,-1,4
 53 204 53 204 53 254 c 0,5,6
 53 297 53 297 58 337 c 128,-1,7
 63 377 63 377 79.5 415 c 128,-1,8
 96 453 96 453 127.5 489 c 128,-1,9
 159 525 159 525 212 562 c 128,-1,10
 265 599 265 599 343.5 636.5 c 128,-1,11
 422 674 422 674 532 715 c 1,12,-1
 532 848 l 2,13,14
 532 880 532 880 522 902 c 128,-1,15
 512 924 512 924 497.5 937.5 c 128,-1,16
 483 951 483 951 466 957 c 128,-1,17
 449 963 449 963 434 963 c 0,18,19
 366 963 366 963 332.5 920.5 c 128,-1,20
 299 878 299 878 299 809 c 1,21,-1
 92 809 l 1,22,23
 93 890 93 890 118.5 954 c 128,-1,24
 144 1018 144 1018 190.5 1062.5 c 128,-1,25
 237 1107 237 1107 301 1130 c 128,-1,26
 365 1153 365 1153 442 1153 c 0,27,28
 533 1153 533 1153 593.5 1132 c 128,-1,29
 654 1111 654 1111 690 1070 c 128,-1,30
 726 1029 726 1029 741 968 c 128,-1,31
 756 907 756 907 756 827 c 2,32,-1
 756 264 l 2,33,34
 756 206 756 206 757 167 c 128,-1,35
 758 128 758 128 760.5 99.5 c 128,-1,36
 763 71 763 71 766 48 c 128,-1,37
 769 25 769 25 774 0 c 1,38,-1
 551 0 l 1,39,-1
 532 129 l 1,40,41
 458 55 458 55 398 20.5 c 128,-1,42
 338 -14 338 -14 281 -14 c 0,0,1
279 305 m 0,43,44
 279 270 279 270 290.5 246.5 c 128,-1,45
 302 223 302 223 319 208 c 128,-1,46
 336 193 336 193 355.5 186.5 c 128,-1,47
 375 180 375 180 391 180 c 0,48,49
 417 180 417 180 442 192 c 128,-1,50
 467 204 467 204 487 218 c 0,51,52
 511 235 511 235 532 256 c 1,53,-1
 532 575 l 1,54,55
 468 537 468 537 420.5 504.5 c 128,-1,56
 373 472 373 472 341.5 440.5 c 128,-1,57
 310 409 310 409 294.5 376 c 128,-1,58
 279 343 279 343 279 305 c 0,43,44
EndSplineSet
EndChar

StartChar: b
Encoding: 98 98 50
Width: 813
Flags: W
HStem: 0 168<380.56 546.832> 979 174<386.583 542.5> 1498 20G<72 293>
VStem: 75.5 217.5<0 121 198.454 949.006 1024 1518> 549 213<192.511 947.036>
LayerCount: 2
Fore
SplineSet
293 1518 m 1,0,-1
 293 1024 l 1,1,2
 345 1084 345 1084 402.5 1118.5 c 128,-1,3
 460 1153 460 1153 520 1153 c 0,4,5
 565 1153 565 1153 608.5 1135.5 c 128,-1,6
 652 1118 652 1118 686 1073 c 128,-1,7
 720 1028 720 1028 741 949.5 c 128,-1,8
 762 871 762 871 762 748 c 2,9,-1
 762 365 l 2,10,11
 762 328 762 328 758 286 c 128,-1,12
 754 244 754 244 744.5 203.5 c 128,-1,13
 735 163 735 163 717.5 126 c 128,-1,14
 700 89 700 89 673.5 61 c 128,-1,15
 647 33 647 33 609.5 16.5 c 128,-1,16
 572 0 572 0 522 0 c 0,17,18
 471 0 471 0 430 18.5 c 128,-1,19
 389 37 389 37 358 60 c 0,20,21
 322 86 322 86 293 121 c 1,22,-1
 293 0 l 1,23,-1
 78 0 l 1,24,-1
 78 168 l 2,25,26
 78 261 78 261 77.5 369 c 128,-1,27
 77 477 77 477 76.5 589.5 c 128,-1,28
 76 702 76 702 75.5 814.5 c 128,-1,29
 75 927 75 927 75 1030 c 0,30,31
 73 1272 73 1272 72 1518 c 1,32,-1
 293 1518 l 1,0,-1
293 223 m 1,33,34
 319 207 319 207 345 195 c 0,35,36
 368 184 368 184 393 176 c 128,-1,37
 418 168 418 168 440 168 c 0,38,39
 470 168 470 168 491 182 c 128,-1,40
 512 196 512 196 524.5 217.5 c 128,-1,41
 537 239 537 239 543 266 c 128,-1,42
 549 293 549 293 549 319 c 2,43,-1
 549 819 l 2,44,45
 549 844 549 844 543 872.5 c 128,-1,46
 537 901 537 901 523 924.5 c 128,-1,47
 509 948 509 948 486.5 963.5 c 128,-1,48
 464 979 464 979 432 979 c 0,49,50
 398 979 398 979 362.5 962 c 128,-1,51
 327 945 327 945 293 922 c 1,52,-1
 293 223 l 1,33,34
EndSplineSet
EndChar

StartChar: c
Encoding: 99 99 51
Width: 842
Flags: W
HStem: -14 202<339.191 516.036> 954 199<322.745 519.135>
VStem: 70 219<223.892 925.103> 553 217.5<222.597 422 741 923.09>
LayerCount: 2
Fore
SplineSet
424 -14 m 0,0,1
 336 -14 336 -14 275 10.5 c 128,-1,2
 214 35 214 35 175 78 c 128,-1,3
 136 121 136 121 114.5 180 c 128,-1,4
 93 239 93 239 83 307 c 128,-1,5
 73 375 73 375 71.5 450 c 128,-1,6
 70 525 70 525 70 600 c 0,7,8
 70 663 70 663 72 729 c 128,-1,9
 74 795 74 795 85 856.5 c 128,-1,10
 96 918 96 918 118.5 972 c 128,-1,11
 141 1026 141 1026 181 1066 c 128,-1,12
 221 1106 221 1106 282 1129.5 c 128,-1,13
 343 1153 343 1153 432 1153 c 0,14,15
 517 1153 517 1153 575 1128.5 c 128,-1,16
 633 1104 633 1104 671 1065.5 c 128,-1,17
 709 1027 709 1027 729.5 980 c 128,-1,18
 750 933 750 933 759.5 887 c 128,-1,19
 769 841 769 841 770.5 802 c 128,-1,20
 772 763 772 763 772 741 c 1,21,-1
 551 741 l 1,22,23
 551 790 551 790 545.5 829.5 c 128,-1,24
 540 869 540 869 526.5 896.5 c 128,-1,25
 513 924 513 924 490.5 939 c 128,-1,26
 468 954 468 954 434 954 c 0,27,28
 405 954 405 954 383 951 c 128,-1,29
 361 948 361 948 345 936 c 128,-1,30
 329 924 329 924 318.5 901 c 128,-1,31
 308 878 308 878 301.5 838.5 c 128,-1,32
 295 799 295 799 292 740 c 128,-1,33
 289 681 289 681 289 598 c 0,34,35
 289 484 289 484 292 405.5 c 128,-1,36
 295 327 295 327 308 278.5 c 128,-1,37
 321 230 321 230 348.5 209 c 128,-1,38
 376 188 376 188 424 188 c 0,39,40
 470 188 470 188 496 210.5 c 128,-1,41
 522 233 522 233 534.5 267.5 c 128,-1,42
 547 302 547 302 550 343 c 128,-1,43
 553 384 553 384 553 422 c 1,44,-1
 770 422 l 1,45,46
 770 418 770 418 770.5 397 c 128,-1,47
 771 376 771 376 768 344.5 c 128,-1,48
 765 313 765 313 758 274 c 128,-1,49
 751 235 751 235 735.5 195.5 c 128,-1,50
 720 156 720 156 695.5 118 c 128,-1,51
 671 80 671 80 633.5 51 c 128,-1,52
 596 22 596 22 544.5 4 c 128,-1,53
 493 -14 493 -14 424 -14 c 0,0,1
EndSplineSet
EndChar

StartChar: d
Encoding: 100 100 52
Width: 834
Flags: W
HStem: -14 174<283.454 447.803> 985 168<276 457.889> 1498 20G<543 762>
VStem: 68 223<179.923 958.881> 543 219<0 111 194.955 954.977 1040 1518>
LayerCount: 2
Fore
SplineSet
543 1518 m 1,0,-1
 762 1518 l 1,1,-1
 762 0 l 1,2,-1
 541 0 l 1,3,-1
 541 111 l 1,4,5
 498 66 498 66 462 40.5 c 128,-1,6
 426 15 426 15 397.5 3 c 128,-1,7
 369 -9 369 -9 348 -11.5 c 128,-1,8
 327 -14 327 -14 313 -14 c 0,9,10
 248 -14 248 -14 201.5 20 c 128,-1,11
 155 54 155 54 125.5 111.5 c 128,-1,12
 96 169 96 169 82 245 c 128,-1,13
 68 321 68 321 68 406 c 2,14,-1
 68 764 l 2,15,16
 68 844 68 844 82 914.5 c 128,-1,17
 96 985 96 985 125 1038 c 128,-1,18
 154 1091 154 1091 199.5 1122 c 128,-1,19
 245 1153 245 1153 307 1153 c 0,20,21
 367 1153 367 1153 425 1126 c 128,-1,22
 483 1099 483 1099 543 1040 c 1,23,-1
 543 1518 l 1,0,-1
291 375 m 2,24,25
 291 303 291 303 300.5 260.5 c 128,-1,26
 310 218 310 218 324 195.5 c 128,-1,27
 338 173 338 173 355.5 166.5 c 128,-1,28
 373 160 373 160 389 160 c 0,29,30
 395 160 395 160 413.5 164 c 128,-1,31
 432 168 432 168 455 176 c 128,-1,32
 478 184 478 184 501.5 196.5 c 128,-1,33
 525 209 525 209 543 227 c 1,34,-1
 543 920 l 1,35,36
 525 938 525 938 503 952 c 0,37,38
 484 964 484 964 458 974.5 c 128,-1,39
 432 985 432 985 401 985 c 0,40,41
 363 985 363 985 341.5 966 c 128,-1,42
 320 947 320 947 308.5 917.5 c 128,-1,43
 297 888 297 888 294 851.5 c 128,-1,44
 291 815 291 815 291 780 c 2,45,-1
 291 375 l 2,24,25
EndSplineSet
EndChar

StartChar: e
Encoding: 101 101 53
Width: 846
Flags: W
HStem: -14 190<327.236 516.464> 549 145<291 549> 971 182<338.546 506.453>
VStem: 70 221<210.698 549 694 933.777> 549 223<207.318 387 694 941.391>
LayerCount: 2
Fore
SplineSet
434 -14 m 0,0,1
 344 -14 344 -14 282 9 c 128,-1,2
 220 32 220 32 179.5 73.5 c 128,-1,3
 139 115 139 115 117 172 c 128,-1,4
 95 229 95 229 84.5 298 c 128,-1,5
 74 367 74 367 72 444.5 c 128,-1,6
 70 522 70 522 70 604 c 0,7,8
 70 672 70 672 73.5 739.5 c 128,-1,9
 77 807 77 807 88.5 868 c 128,-1,10
 100 929 100 929 123 981 c 128,-1,11
 146 1033 146 1033 184.5 1071.5 c 128,-1,12
 223 1110 223 1110 280 1131.5 c 128,-1,13
 337 1153 337 1153 418 1153 c 0,14,15
 507 1153 507 1153 573.5 1127 c 128,-1,16
 640 1101 640 1101 684 1046 c 128,-1,17
 728 991 728 991 750 905.5 c 128,-1,18
 772 820 772 820 772 702 c 2,19,-1
 772 602 l 1,20,-1
 772 549 l 1,21,-1
 291 549 l 1,22,-1
 291 328 l 2,23,24
 291 298 291 298 300 270.5 c 128,-1,25
 309 243 309 243 325.5 222 c 128,-1,26
 342 201 342 201 366 188.5 c 128,-1,27
 390 176 390 176 420 176 c 0,28,29
 466 176 466 176 492.5 196 c 128,-1,30
 519 216 519 216 532.5 247 c 128,-1,31
 546 278 546 278 549.5 315 c 128,-1,32
 553 352 553 352 553 387 c 1,33,-1
 772 387 l 1,34,35
 772 295 772 295 751 221 c 128,-1,36
 730 147 730 147 688 95 c 128,-1,37
 646 43 646 43 582.5 14.5 c 128,-1,38
 519 -14 519 -14 434 -14 c 0,0,1
420 971 m 0,39,40
 372 971 372 971 346 946 c 128,-1,41
 320 921 320 921 308 881 c 128,-1,42
 296 841 296 841 293.5 791.5 c 128,-1,43
 291 742 291 742 291 694 c 1,44,-1
 549 694 l 1,45,46
 549 747 549 747 548 797 c 128,-1,47
 547 847 547 847 536 885.5 c 128,-1,48
 525 924 525 924 498 947.5 c 128,-1,49
 471 971 471 971 420 971 c 0,39,40
EndSplineSet
EndChar

StartChar: f
Encoding: 102 102 54
Width: 653
Flags: W
HStem: 0 21G<197 412> 952 183<47 197 414 582> 1337 203<428.219 595.282>
VStem: 197 215<0 952 1135 1323.49>
LayerCount: 2
Fore
SplineSet
197 952 m 1,0,-1
 47 952 l 1,1,-1
 47 1135 l 1,2,-1
 197 1135 l 1,3,-1
 197 1141 l 2,4,5
 197 1184 197 1184 197.5 1230.5 c 128,-1,6
 198 1277 198 1277 204 1321 c 128,-1,7
 210 1365 210 1365 224 1405 c 128,-1,8
 238 1445 238 1445 266 1475 c 128,-1,9
 294 1505 294 1505 337.5 1522.5 c 128,-1,10
 381 1540 381 1540 446 1540 c 0,11,12
 482 1540 482 1540 510.5 1538 c 128,-1,13
 539 1536 539 1536 559 1534 c 0,14,15
 582 1531 582 1531 600 1528 c 1,16,-1
 596 1327 l 1,17,18
 573 1332 573 1332 553.5 1334.5 c 128,-1,19
 534 1337 534 1337 518 1337 c 0,20,21
 482 1337 482 1337 461 1326 c 128,-1,22
 440 1315 440 1315 429.5 1295 c 128,-1,23
 419 1275 419 1275 416.5 1247.5 c 128,-1,24
 414 1220 414 1220 414 1188 c 2,25,-1
 414 1135 l 1,26,-1
 582 1135 l 1,27,-1
 582 952 l 1,28,-1
 412 952 l 1,29,-1
 412 0 l 1,30,-1
 197 0 l 1,31,-1
 197 952 l 1,0,-1
EndSplineSet
EndChar

StartChar: g
Encoding: 103 103 55
Width: 993
Flags: W
HStem: -340 166<283.842 686.557> 301 193<351.381 532.828> 961 192<349.34 533.941 791.184 917.468>
VStem: 68 204<-153.927 -59.5762> 113 194<152.742 264.17 538.719 920.544> 565 215<522.305 923.279> 700 199<-150.749 -42.5297>
LayerCount: 2
Fore
SplineSet
918 946 m 1,0,1
 901 952 901 952 880 957.5 c 128,-1,2
 859 963 859 963 827 963 c 0,3,4
 812 963 812 963 800 957 c 128,-1,5
 788 951 788 951 779 943 c 0,6,7
 768 934 768 934 760 924 c 1,8,9
 766 901 766 901 770 870 c 0,10,11
 774 844 774 844 777 805 c 128,-1,12
 780 766 780 766 780 717 c 0,13,14
 780 630 780 630 760 554 c 128,-1,15
 740 478 740 478 700 422 c 128,-1,16
 660 366 660 366 599 333.5 c 128,-1,17
 538 301 538 301 457 301 c 0,18,19
 442 301 442 301 430 301.5 c 128,-1,20
 418 302 418 302 406 303 c 128,-1,21
 394 304 394 304 380.5 305.5 c 128,-1,22
 367 307 367 307 350 309 c 1,23,24
 336 297 336 297 321.5 281.5 c 128,-1,25
 307 266 307 266 307 246 c 0,26,27
 307 219 307 219 332 206.5 c 128,-1,28
 357 194 357 194 397.5 189 c 128,-1,29
 438 184 438 184 490.5 182.5 c 128,-1,30
 543 181 543 181 598 176 c 128,-1,31
 653 171 653 171 705.5 158 c 128,-1,32
 758 145 758 145 800.5 117 c 128,-1,33
 843 89 843 89 869.5 42 c 128,-1,34
 896 -5 896 -5 899 -78 c 1,35,36
 899 -157 899 -157 861.5 -208 c 128,-1,37
 824 -259 824 -259 766 -288 c 128,-1,38
 708 -317 708 -317 637.5 -328.5 c 128,-1,39
 567 -340 567 -340 500 -340 c 0,40,41
 472 -340 472 -340 429 -339 c 128,-1,42
 386 -338 386 -338 338 -333.5 c 128,-1,43
 290 -329 290 -329 241.5 -319 c 128,-1,44
 193 -309 193 -309 154.5 -290.5 c 128,-1,45
 116 -272 116 -272 92 -243 c 128,-1,46
 68 -214 68 -214 68 -172 c 2,47,-1
 68 -162 l 1,48,49
 69 -156 69 -156 70 -138.5 c 128,-1,50
 71 -121 71 -121 84.5 -96.5 c 128,-1,51
 98 -72 98 -72 130.5 -42 c 128,-1,52
 163 -12 163 -12 227 20 c 1,53,54
 175 36 175 36 144 71.5 c 128,-1,55
 113 107 113 107 113 152 c 256,56,57
 113 197 113 197 134 231 c 128,-1,58
 155 265 155 265 181 288 c 0,59,60
 211 315 211 315 250 336 c 1,61,-1
 250 356 l 1,62,63
 208 384 208 384 180 424 c 128,-1,64
 152 464 152 464 135 513.5 c 128,-1,65
 118 563 118 563 111 620 c 128,-1,66
 104 677 104 677 104 739 c 0,67,68
 104 854 104 854 131.5 933.5 c 128,-1,69
 159 1013 159 1013 205 1061.5 c 128,-1,70
 251 1110 251 1110 311.5 1131.5 c 128,-1,71
 372 1153 372 1153 438 1153 c 0,72,73
 522 1153 522 1153 594 1123 c 128,-1,74
 666 1093 666 1093 717 1018 c 1,75,76
 736 1055 736 1055 765 1085 c 0,77,78
 790 1111 790 1111 827.5 1132 c 128,-1,79
 865 1153 865 1153 918 1153 c 1,80,-1
 918 946 l 1,0,1
272 -92 m 0,81,82
 272 -126 272 -126 297.5 -143 c 128,-1,83
 323 -160 323 -160 358 -167 c 128,-1,84
 393 -174 393 -174 428.5 -174 c 128,-1,85
 464 -174 464 -174 485 -174 c 0,86,87
 498 -174 498 -174 519 -174 c 128,-1,88
 540 -174 540 -174 564 -172 c 128,-1,89
 588 -170 588 -170 612 -165 c 128,-1,90
 636 -160 636 -160 655.5 -151.5 c 128,-1,91
 675 -143 675 -143 687.5 -129.5 c 128,-1,92
 700 -116 700 -116 700 -96 c 0,93,94
 700 -67 700 -67 675.5 -47.5 c 128,-1,95
 651 -28 651 -28 588 -23 c 2,96,-1
 330 -6 l 1,97,98
 313 -20 313 -20 301 -34 c 0,99,100
 290 -46 290 -46 281 -61.5 c 128,-1,101
 272 -77 272 -77 272 -92 c 0,81,82
317 731 m 0,102,103
 317 696 317 696 318 655 c 128,-1,104
 319 614 319 614 331 578 c 128,-1,105
 343 542 343 542 370.5 518 c 128,-1,106
 398 494 398 494 451 494 c 0,107,108
 492 494 492 494 515 516.5 c 128,-1,109
 538 539 538 539 549 573 c 128,-1,110
 560 607 560 607 562.5 645 c 128,-1,111
 565 683 565 683 565 715 c 0,112,113
 565 770 565 770 562 815.5 c 128,-1,114
 559 861 559 861 546.5 893 c 128,-1,115
 534 925 534 925 509.5 943 c 128,-1,116
 485 961 485 961 442 961 c 0,117,118
 398 961 398 961 373 942 c 128,-1,119
 348 923 348 923 335.5 891 c 128,-1,120
 323 859 323 859 320 817.5 c 128,-1,121
 317 776 317 776 317 731 c 0,102,103
EndSplineSet
EndChar

StartChar: h
Encoding: 104 104 56
Width: 813
Flags: W
HStem: 0 21G<76 291 541 760> 969 184<417.701 587.5> 1498 20G<76 291>
VStem: 76 215<0 912.81 995 1518> 541 219<0 939.598>
LayerCount: 2
Fore
SplineSet
541 0 m 1,0,-1
 541 836 l 2,1,2
 541 912 541 912 521 940.5 c 128,-1,3
 501 969 501 969 467 969 c 0,4,5
 414 969 414 969 369.5 939 c 128,-1,6
 325 909 325 909 291 868 c 1,7,-1
 291 0 l 1,8,-1
 76 0 l 1,9,-1
 76 1518 l 1,10,-1
 291 1518 l 1,11,-1
 291 995 l 1,12,13
 317 1031 317 1031 350.5 1060 c 128,-1,14
 384 1089 384 1089 420 1109.5 c 128,-1,15
 456 1130 456 1130 492 1141.5 c 128,-1,16
 528 1153 528 1153 559 1153 c 0,17,18
 616 1153 616 1153 654.5 1134 c 128,-1,19
 693 1115 693 1115 716.5 1080 c 128,-1,20
 740 1045 740 1045 750 996 c 128,-1,21
 760 947 760 947 760 887 c 2,22,-1
 760 0 l 1,23,-1
 541 0 l 1,0,-1
EndSplineSet
EndChar

StartChar: i
Encoding: 105 105 57
Width: 375
Flags: W
HStem: 0 21G<0 256> 1132 20G<0 256> 1280 256.2<-2 254>
VStem: 0 256<0 1152 1280 1536.2>
LayerCount: 2
Fore
SplineSet
0 1152 m 1,0,-1
 256 1152 l 1,1,-1
 256 0 l 1,2,-1
 0 0 l 1,3,-1
 0 1152 l 1,0,-1
-2 1536.20019531 m 1,4,-1
 254 1536.20019531 l 1,5,-1
 254 1280 l 1,6,-1
 -2 1280 l 1,7,-1
 -2 1536.20019531 l 1,4,-1
EndSplineSet
EndChar

StartChar: j
Encoding: 106 106 58
Width: 506
Flags: W
HStem: -358 219<35.859 187.829> 1115 20G<215 434> 1282 223<213 434>
VStem: 215 219<-112.737 1135 1282 1505>
LayerCount: 2
Fore
SplineSet
35 -133 m 1,0,1
 62 -139 62 -139 86 -139 c 0,2,3
 134 -139 134 -139 160.5 -120.5 c 128,-1,4
 187 -102 187 -102 199 -77.5 c 128,-1,5
 211 -53 211 -53 213 -28 c 128,-1,6
 215 -3 215 -3 215 10 c 2,7,-1
 215 1135 l 1,8,-1
 434 1135 l 1,9,-1
 434 -45 l 2,10,11
 434 -122 434 -122 411.5 -180.5 c 128,-1,12
 389 -239 389 -239 349.5 -278.5 c 128,-1,13
 310 -318 310 -318 257.5 -338 c 128,-1,14
 205 -358 205 -358 145 -358 c 0,15,16
 119 -358 119 -358 91 -354.5 c 128,-1,17
 63 -351 63 -351 35 -342 c 1,18,-1
 35 -133 l 1,0,1
213 1505 m 1,19,-1
 434 1505 l 1,20,-1
 434 1282 l 1,21,-1
 213 1282 l 1,22,-1
 213 1505 l 1,19,-1
EndSplineSet
EndChar

StartChar: k
Encoding: 107 107 59
Width: 866
Flags: W
HStem: 0 21G<70 293 558.759 801> 1115 20G<527.451 778> 1498 20G<70 293>
VStem: 70 223<0 360 709 1518>
LayerCount: 2
Fore
SplineSet
293 1518 m 1,0,-1
 293 709 l 1,1,-1
 539 1135 l 1,2,-1
 778 1135 l 1,3,-1
 555 766 l 1,4,-1
 801 0 l 1,5,-1
 565 0 l 1,6,-1
 399 532 l 1,7,-1
 293 360 l 1,8,-1
 293 0 l 1,9,-1
 70 0 l 1,10,-1
 70 1518 l 1,11,-1
 293 1518 l 1,0,-1
EndSplineSet
EndChar

StartChar: l
Encoding: 108 108 60
Width: 371
Flags: W
HStem: 0 21G<72 291> 1498 20G<72 291>
VStem: 72 219<0 1518>
LayerCount: 2
Fore
SplineSet
291 0 m 1,0,-1
 72 0 l 1,1,-1
 72 1518 l 1,2,-1
 291 1518 l 1,3,-1
 291 0 l 1,0,-1
EndSplineSet
EndChar

StartChar: o
Encoding: 111 111 61
Width: 899
Flags: W
HStem: -14 200<349.542 543.165> 952 201<347.989 543.165>
VStem: 100 213<218.603 919.793> 575 226<213.823 925.177>
LayerCount: 2
Fore
SplineSet
100 729 m 2,0,1
 100 825 100 825 117 903 c 128,-1,2
 134 981 134 981 174.5 1036.5 c 128,-1,3
 215 1092 215 1092 282.5 1122.5 c 128,-1,4
 350 1153 350 1153 451 1153 c 0,5,6
 544 1153 544 1153 610.5 1121.5 c 128,-1,7
 677 1090 677 1090 719.5 1033.5 c 128,-1,8
 762 977 762 977 781.5 899 c 128,-1,9
 801 821 801 821 801 729 c 2,10,-1
 801 410 l 2,11,12
 801 318 801 318 781.5 240 c 128,-1,13
 762 162 762 162 719.5 105.5 c 128,-1,14
 677 49 677 49 610.5 17.5 c 128,-1,15
 544 -14 544 -14 451 -14 c 0,16,17
 350 -14 350 -14 282.5 16 c 128,-1,18
 215 46 215 46 174.5 101.5 c 128,-1,19
 134 157 134 157 117 235.5 c 128,-1,20
 100 314 100 314 100 410 c 2,21,-1
 100 729 l 2,0,1
313 451 m 2,22,23
 313 364 313 364 322 311.5 c 128,-1,24
 331 259 331 259 348 231.5 c 128,-1,25
 365 204 365 204 389.5 195 c 128,-1,26
 414 186 414 186 446 186 c 0,27,28
 479 186 479 186 503.5 194.5 c 128,-1,29
 528 203 528 203 544 230.5 c 128,-1,30
 560 258 560 258 567.5 310.5 c 128,-1,31
 575 363 575 363 575 451 c 2,32,-1
 575 688 l 2,33,34
 575 776 575 776 567.5 828 c 128,-1,35
 560 880 560 880 544 907.5 c 128,-1,36
 528 935 528 935 503.5 943.5 c 128,-1,37
 479 952 479 952 446 952 c 0,38,39
 414 952 414 952 389.5 943.5 c 128,-1,40
 365 935 365 935 348 907 c 128,-1,41
 331 879 331 879 322 827 c 128,-1,42
 313 775 313 775 313 688 c 2,43,-1
 313 451 l 2,22,23
EndSplineSet
EndChar

StartChar: p
Encoding: 112 112 62
Width: 838
Flags: W
HStem: -340 21G<72 291> -14 178<387.29 553.5> 979 174<386.133 559.5> 1115 20G<72 291>
VStem: 72 219<-340 109 198.585 947.078 1024 1135> 545 225<191.312 952.182>
LayerCount: 2
Fore
SplineSet
72 1135 m 1,0,-1
 291 1135 l 1,1,-1
 291 1024 l 1,2,3
 335 1071 335 1071 370 1097 c 128,-1,4
 405 1123 405 1123 432.5 1135.5 c 128,-1,5
 460 1148 460 1148 481.5 1150.5 c 128,-1,6
 503 1153 503 1153 520 1153 c 0,7,8
 599 1153 599 1153 648 1116 c 128,-1,9
 697 1079 697 1079 724 1000 c 128,-1,10
 751 921 751 921 760.5 796.5 c 128,-1,11
 770 672 770 672 770 498 c 0,12,13
 770 447 770 447 767 389 c 128,-1,14
 764 331 764 331 755.5 274 c 128,-1,15
 747 217 747 217 730.5 165 c 128,-1,16
 714 113 714 113 686.5 73 c 128,-1,17
 659 33 659 33 620 9.5 c 128,-1,18
 581 -14 581 -14 526 -14 c 0,19,20
 494 -14 494 -14 461.5 -3.5 c 128,-1,21
 429 7 429 7 398.5 24 c 128,-1,22
 368 41 368 41 340.5 63.5 c 128,-1,23
 313 86 313 86 291 109 c 1,24,-1
 291 -340 l 1,25,-1
 72 -340 l 1,26,-1
 72 1135 l 1,0,-1
291 223 m 1,27,28
 392 164 392 164 446 164 c 0,29,30
 480 164 480 164 500 190 c 128,-1,31
 520 216 520 216 530 272.5 c 128,-1,32
 540 329 540 329 542.5 418 c 128,-1,33
 545 507 545 507 545 633 c 0,34,35
 545 707 545 707 544.5 770.5 c 128,-1,36
 544 834 544 834 535 880.5 c 128,-1,37
 526 927 526 927 504 953 c 128,-1,38
 482 979 482 979 440 979 c 256,39,40
 398 979 398 979 362 961 c 128,-1,41
 326 943 326 943 291 922 c 1,42,-1
 291 223 l 1,27,28
EndSplineSet
EndChar

StartChar: q
Encoding: 113 113 63
Width: 831
Flags: W
HStem: -340 21G<545 764> -14 178<281.5 447.692> 979 174<275.5 448.966> 1115 20G<545 764>
VStem: 66 225<190.82 952.182> 545 219<-340 109 199.593 947.078 1024 1135>
LayerCount: 2
Fore
SplineSet
764 -340 m 1,0,-1
 545 -340 l 1,1,-1
 545 109 l 1,2,3
 522 86 522 86 494.5 63.5 c 128,-1,4
 467 41 467 41 436.5 24 c 128,-1,5
 406 7 406 7 373.5 -3.5 c 128,-1,6
 341 -14 341 -14 309 -14 c 0,7,8
 254 -14 254 -14 214.5 9.5 c 128,-1,9
 175 33 175 33 148 73 c 128,-1,10
 121 113 121 113 104.5 165 c 128,-1,11
 88 217 88 217 79.5 274 c 128,-1,12
 71 331 71 331 68.5 389 c 128,-1,13
 66 447 66 447 66 498 c 0,14,15
 66 672 66 672 75 796.5 c 128,-1,16
 84 921 84 921 111 1000 c 128,-1,17
 138 1079 138 1079 187 1116 c 128,-1,18
 236 1153 236 1153 315 1153 c 0,19,20
 332 1153 332 1153 353 1150.5 c 128,-1,21
 374 1148 374 1148 402 1135.5 c 128,-1,22
 430 1123 430 1123 465 1097 c 128,-1,23
 500 1071 500 1071 545 1024 c 1,24,-1
 545 1135 l 1,25,-1
 764 1135 l 1,26,-1
 764 -340 l 1,0,-1
545 922 m 1,27,28
 510 943 510 943 473.5 961 c 128,-1,29
 437 979 437 979 395 979 c 256,30,31
 353 979 353 979 331.5 953 c 128,-1,32
 310 927 310 927 301 880.5 c 128,-1,33
 292 834 292 834 291.5 770.5 c 128,-1,34
 291 707 291 707 291 633 c 0,35,36
 291 507 291 507 293.5 418 c 128,-1,37
 296 329 296 329 306 272.5 c 128,-1,38
 316 216 316 216 335.5 190 c 128,-1,39
 355 164 355 164 389 164 c 0,40,41
 417 164 417 164 454.5 179 c 128,-1,42
 492 194 492 194 545 223 c 1,43,-1
 545 922 l 1,27,28
EndSplineSet
EndChar

StartChar: D
Encoding: 68 68 65
Width: 963
Flags: W
HStem: 0 219<380 625.479> 1312.2 224<380 621.33>
VStem: 128 252<219 1312.2> 703 244<287.005 1227.74>
LayerCount: 2
Fore
SplineSet
128 0 m 1,0,-1
 128 1536.20019531 l 5,1,-1
 507 1536.20019531 l 6,2,3
 617 1536 617 1536 699.5 1502.20019531 c 4,4,5
 782 1468 782 1468 837 1408.20019531 c 4,6,7
 892 1348 892 1348 919.5 1266.70019531 c 4,8,9
 947 1185 947 1185 947 1091.20019531 c 6,10,-1
 947 432 l 2,11,12
 947 331 947 331 917 251 c 128,-1,13
 887 171 887 171 834 115.5 c 128,-1,14
 781 60 781 60 709.5 30 c 128,-1,15
 638 0 638 0 554 0 c 2,16,-1
 128 0 l 1,0,-1
539 219 m 2,17,18
 594 219 594 219 626.5 246.5 c 128,-1,19
 659 274 659 274 676 325 c 128,-1,20
 693 376 693 376 698 447.5 c 128,-1,21
 703 519 703 519 703 606 c 2,22,-1
 703 979.200195312 l 6,23,24
 703 1064 703 1064 694.5 1126.70019531 c 4,25,26
 686 1189 686 1189 657.5 1230.70019531 c 4,27,28
 629 1272 629 1272 575 1292.20019531 c 4,29,30
 520.454007398 1312.20019531 520.454007398 1312.20019531 431 1312.20019531 c 6,31,-1
 380 1312.20019531 l 5,32,-1
 380 219 l 1,33,-1
 539 219 l 2,17,18
EndSplineSet
EndChar

StartChar: exclam
Encoding: 33 33 66
Width: 375
Flags: W
HStem: 0 223<76 297> 1498 20G<57 319>
VStem: 76 221<0 223> 119 139<371 636.216>
LayerCount: 2
Fore
SplineSet
57 1518 m 1,0,-1
 319 1518 l 1,1,-1
 258 371 l 1,2,-1
 119 371 l 1,3,-1
 57 1518 l 1,0,-1
76 223 m 1,4,-1
 297 223 l 1,5,-1
 297 0 l 1,6,-1
 76 0 l 1,7,-1
 76 223 l 1,4,-1
EndSplineSet
EndChar

StartChar: OE
Encoding: 260 338 67
Width: 1831
Flags: W
HStem: 0 244<384.316 678> 0 225<924 1362> 674 235<924 1227> 1292 226<395.264 678 924 1343>
VStem: 66 264<297.924 1217.59> 678 246<244 674 909 1282>
LayerCount: 2
Fore
SplineSet
489 0 m 2,0,1
 387 0 387 0 308 29.5 c 128,-1,2
 229 59 229 59 175.5 128.5 c 128,-1,3
 122 198 122 198 94 312 c 128,-1,4
 66 426 66 426 66 594 c 2,5,-1
 66 977 l 2,6,7
 66 1092 66 1092 85.5 1191 c 128,-1,8
 105 1290 105 1290 153.5 1362.5 c 128,-1,9
 202 1435 202 1435 283.5 1476.5 c 128,-1,10
 365 1518 365 1518 489 1518 c 2,11,-1
 1343 1518 l 1,12,-1
 1343 1292 l 1,13,-1
 924 1292 l 1,14,-1
 924 909 l 1,15,-1
 1227 909 l 1,16,-1
 1227 674 l 1,17,-1
 924 674 l 1,18,-1
 924 225 l 1,19,-1
 1362 225 l 1,20,-1
 1362 0 l 1,21,-1
 489 0 l 2,0,1
678 244 m 1,22,-1
 678 1282 l 1,23,24
 656 1281 656 1281 628 1281 c 1,25,26
 604 1280 604 1280 569 1280 c 128,-1,27
 534 1280 534 1280 489 1280 c 0,28,29
 411 1280 411 1280 370.5 1219.5 c 128,-1,30
 330 1159 330 1159 330 1034 c 2,31,-1
 330 467 l 2,32,33
 330 417 330 417 339.5 376 c 128,-1,34
 349 335 349 335 369 305.5 c 128,-1,35
 389 276 389 276 418.5 260 c 128,-1,36
 448 244 448 244 489 244 c 2,37,-1
 678 244 l 1,22,-1
EndSplineSet
EndChar

StartChar: oe
Encoding: 261 339 68
Width: 1743
Flags: W
HStem: -14 200<347.542 540.854 828.756 1022.52> 549 145<795 1053> 952 201<345.989 540.854> 971 182<842.947 1010.45>
VStem: 98 213<218.603 919.793> 573 222<218.653 549 694 926.085> 1053 223<216.396 387 694 941.391>
LayerCount: 2
Fore
SplineSet
938 -14 m 0,0,1
 847 -14 847 -14 785.5 18 c 128,-1,2
 724 50 724 50 684 115 c 1,3,4
 644 50 644 50 586.5 18 c 128,-1,5
 529 -14 529 -14 449 -14 c 0,6,7
 348 -14 348 -14 280.5 16 c 128,-1,8
 213 46 213 46 172.5 101.5 c 128,-1,9
 132 157 132 157 115 235.5 c 128,-1,10
 98 314 98 314 98 410 c 2,11,-1
 98 729 l 2,12,13
 98 825 98 825 115 903 c 128,-1,14
 132 981 132 981 172.5 1036.5 c 128,-1,15
 213 1092 213 1092 280.5 1122.5 c 128,-1,16
 348 1153 348 1153 449 1153 c 0,17,18
 529 1153 529 1153 586.5 1118.5 c 128,-1,19
 644 1084 644 1084 684 1024 c 1,20,21
 722 1084 722 1084 779.5 1118.5 c 128,-1,22
 837 1153 837 1153 922 1153 c 0,23,24
 1011 1153 1011 1153 1077.5 1127 c 128,-1,25
 1144 1101 1144 1101 1188 1046 c 128,-1,26
 1232 991 1232 991 1254 905.5 c 128,-1,27
 1276 820 1276 820 1276 702 c 2,28,-1
 1276 549 l 1,29,-1
 795 549 l 1,30,-1
 795 328 l 2,31,32
 795 300 795 300 804 274.5 c 128,-1,33
 813 249 813 249 829.5 229.5 c 128,-1,34
 846 210 846 210 870 198 c 128,-1,35
 894 186 894 186 924 186 c 0,36,37
 970 186 970 186 996.5 205 c 128,-1,38
 1023 224 1023 224 1036.5 253.5 c 128,-1,39
 1050 283 1050 283 1053.5 318.5 c 128,-1,40
 1057 354 1057 354 1057 387 c 1,41,-1
 1276 387 l 1,42,43
 1276 295 1276 295 1255 221 c 128,-1,44
 1234 147 1234 147 1192 95 c 128,-1,45
 1150 43 1150 43 1086.5 14.5 c 128,-1,46
 1023 -14 1023 -14 938 -14 c 0,0,1
311 451 m 2,47,48
 311 364 311 364 320 311.5 c 128,-1,49
 329 259 329 259 346 231.5 c 128,-1,50
 363 204 363 204 387.5 195 c 128,-1,51
 412 186 412 186 444 186 c 0,52,53
 477 186 477 186 501.5 194.5 c 128,-1,54
 526 203 526 203 541.5 230.5 c 128,-1,55
 557 258 557 258 565 310.5 c 128,-1,56
 573 363 573 363 573 451 c 2,57,-1
 573 688 l 2,58,59
 573 776 573 776 565 828 c 128,-1,60
 557 880 557 880 541.5 907.5 c 128,-1,61
 526 935 526 935 501.5 943.5 c 128,-1,62
 477 952 477 952 444 952 c 0,63,64
 412 952 412 952 387.5 943.5 c 128,-1,65
 363 935 363 935 346 907 c 128,-1,66
 329 879 329 879 320 827 c 128,-1,67
 311 775 311 775 311 688 c 2,68,-1
 311 451 l 2,47,48
924 971 m 0,69,70
 876 971 876 971 850 946 c 128,-1,71
 824 921 824 921 812 881 c 128,-1,72
 800 841 800 841 797.5 791.5 c 128,-1,73
 795 742 795 742 795 694 c 1,74,-1
 1053 694 l 1,75,76
 1053 747 1053 747 1052 797 c 128,-1,77
 1051 847 1051 847 1040 885.5 c 128,-1,78
 1029 924 1029 924 1002 947.5 c 128,-1,79
 975 971 975 971 924 971 c 0,69,70
EndSplineSet
EndChar

StartChar: grave
Encoding: 96 96 69
Width: 1706
Flags: W
HStem: 1192 326<625 631>
VStem: 373 383
LayerCount: 2
Fore
SplineSet
373 1518 m 1,0,-1
 631 1518 l 1,1,-1
 756 1192 l 1,2,-1
 625 1192 l 1,3,-1
 373 1518 l 1,0,-1
EndSplineSet
EndChar

StartChar: dotlessi
Encoding: 262 305 72
Width: 375
Flags: W
HStem: 0 21G<78 299> 1115 20G<78 299>
VStem: 78 221<0 1135>
LayerCount: 2
Fore
SplineSet
78 1135 m 1,0,-1
 299 1135 l 1,1,-1
 299 0 l 1,2,-1
 78 0 l 1,3,-1
 78 1135 l 1,0,-1
EndSplineSet
EndChar

StartChar: acute
Encoding: 180 180 76
Width: 1706
Flags: W
HStem: 1192 326<678 684>
VStem: 553 383
LayerCount: 2
Fore
SplineSet
684 1192 m 1,0,-1
 553 1192 l 1,1,-1
 678 1518 l 1,2,-1
 936 1518 l 1,3,-1
 684 1192 l 1,0,-1
EndSplineSet
EndChar

StartChar: circumflex
Encoding: 263 710 94
Width: 1706
Flags: W
HStem: 1192 326<678 705 909 936>
VStem: 553 508
LayerCount: 2
Fore
SplineSet
807 1432 m 1,0,-1
 705 1192 l 1,1,-1
 553 1192 l 1,2,-1
 678 1518 l 1,3,-1
 936 1518 l 1,4,-1
 1061 1192 l 1,5,-1
 909 1192 l 1,6,-1
 807 1432 l 1,0,-1
EndSplineSet
EndChar

StartChar: period
Encoding: 46 46 105
Width: 375
Flags: W
HStem: 0 223<76 297>
VStem: 76 221<0 223>
LayerCount: 2
Fore
SplineSet
76 223 m 1,0,-1
 297 223 l 1,1,-1
 297 0 l 1,2,-1
 76 0 l 1,3,-1
 76 223 l 1,0,-1
EndSplineSet
EndChar

StartChar: dieresis
Encoding: 168 168 106
Width: 692
Flags: W
HStem: 1198 223<51 272 420 641>
VStem: 51 221<1198 1421> 420 221<1198 1421>
LayerCount: 2
Fore
SplineSet
51 1421 m 1,0,-1
 272 1421 l 1,1,-1
 272 1198 l 1,2,-1
 51 1198 l 1,3,-1
 51 1421 l 1,0,-1
420 1421 m 1,4,-1
 641 1421 l 1,5,-1
 641 1198 l 1,6,-1
 420 1198 l 1,7,-1
 420 1421 l 1,4,-1
EndSplineSet
EndChar

StartChar: hyphen
Encoding: 45 45 118
Width: 375
Flags: W
HStem: 451 165<0 375>
VStem: 0 375<451 616>
LayerCount: 2
Fore
SplineSet
0 616 m 1,0,-1
 375 616 l 1,1,-1
 375 451 l 1,2,-1
 0 451 l 1,3,-1
 0 616 l 1,0,-1
EndSplineSet
EndChar

StartChar: Eth
Encoding: 208 208 119
Width: 963
Flags: W
HStem: 0 219<324 569.479> 666 165<0 72 324 436> 1294 224<324 565.33>
VStem: 72 252<219 666 831 1294> 647 244<287.005 1209.61>
LayerCount: 2
Fore
SplineSet
0 831 m 1,0,-1
 72 831 l 1,1,-1
 72 1518 l 1,2,-1
 451 1518 l 2,3,4
 561 1518 561 1518 643.5 1484 c 128,-1,5
 726 1450 726 1450 781 1390 c 128,-1,6
 836 1330 836 1330 863.5 1248.5 c 128,-1,7
 891 1167 891 1167 891 1073 c 2,8,-1
 891 432 l 2,9,10
 891 331 891 331 861 251 c 128,-1,11
 831 171 831 171 778 115.5 c 128,-1,12
 725 60 725 60 653.5 30 c 128,-1,13
 582 0 582 0 498 0 c 2,14,-1
 72 0 l 1,15,-1
 72 666 l 1,16,-1
 0 666 l 1,17,-1
 0 831 l 1,0,-1
483 219 m 2,18,19
 538 219 538 219 570.5 246.5 c 128,-1,20
 603 274 603 274 620 325 c 128,-1,21
 637 376 637 376 642 447.5 c 128,-1,22
 647 519 647 519 647 606 c 2,23,-1
 647 961 l 2,24,25
 647 1046 647 1046 638.5 1108.5 c 128,-1,26
 630 1171 630 1171 601.5 1212.5 c 128,-1,27
 573 1254 573 1254 519 1274 c 128,-1,28
 465 1294 465 1294 375 1294 c 2,29,-1
 324 1294 l 1,30,-1
 324 831 l 1,31,-1
 436 831 l 1,32,-1
 436 666 l 1,33,-1
 324 666 l 1,34,-1
 324 219 l 1,35,-1
 483 219 l 2,18,19
EndSplineSet
EndChar

StartChar: ae
Encoding: 230 230 120
Width: 1688
Flags: W
HStem: -14 200<300.162 495.472 788.263 983.52> 549 145<756 1014> 963 190<332.635 512.681 800.979 973.806>
VStem: 53 226<204.4 420.796> 92 207<809 919.165> 532 224<218.184 549 698.488 934.894> 1014 223<216.396 387 694 941.391>
LayerCount: 2
Fore
SplineSet
899 -14 m 0,0,1
 792 -14 792 -14 732 35.5 c 128,-1,2
 672 85 672 85 643 170 c 1,3,4
 617 125 617 125 580.5 91 c 128,-1,5
 544 57 544 57 500.5 33.5 c 128,-1,6
 457 10 457 10 410 -2 c 128,-1,7
 363 -14 363 -14 317 -14 c 0,8,9
 265 -14 265 -14 217 2 c 128,-1,10
 169 18 169 18 132.5 51 c 128,-1,11
 96 84 96 84 74.5 134.5 c 128,-1,12
 53 185 53 185 53 254 c 0,13,14
 53 297 53 297 58 337 c 128,-1,15
 63 377 63 377 79.5 415 c 128,-1,16
 96 453 96 453 127.5 489 c 128,-1,17
 159 525 159 525 212 562 c 128,-1,18
 265 599 265 599 343.5 636.5 c 128,-1,19
 422 674 422 674 532 715 c 1,20,-1
 532 848 l 2,21,22
 532 880 532 880 522 902 c 128,-1,23
 512 924 512 924 497.5 937.5 c 128,-1,24
 483 951 483 951 466 957 c 128,-1,25
 449 963 449 963 434 963 c 0,26,27
 366 963 366 963 332.5 920.5 c 128,-1,28
 299 878 299 878 299 809 c 1,29,-1
 92 809 l 1,30,31
 93 890 93 890 118.5 954 c 128,-1,32
 144 1018 144 1018 190.5 1062.5 c 128,-1,33
 237 1107 237 1107 301 1130 c 128,-1,34
 365 1153 365 1153 442 1153 c 0,35,36
 515 1153 515 1153 569 1120 c 128,-1,37
 623 1087 623 1087 657 1028 c 1,38,39
 699 1085 699 1085 752.5 1119 c 128,-1,40
 806 1153 806 1153 883 1153 c 0,41,42
 972 1153 972 1153 1038.5 1127 c 128,-1,43
 1105 1101 1105 1101 1149 1046 c 128,-1,44
 1193 991 1193 991 1215 905.5 c 128,-1,45
 1237 820 1237 820 1237 702 c 2,46,-1
 1237 549 l 1,47,-1
 756 549 l 1,48,-1
 756 315 l 1,49,50
 757 289 757 289 767 265.5 c 128,-1,51
 777 242 777 242 793.5 224.5 c 128,-1,52
 810 207 810 207 833 196.5 c 128,-1,53
 856 186 856 186 885 186 c 0,54,55
 931 186 931 186 957.5 205 c 128,-1,56
 984 224 984 224 997.5 253.5 c 128,-1,57
 1011 283 1011 283 1014.5 318.5 c 128,-1,58
 1018 354 1018 354 1018 387 c 1,59,-1
 1237 387 l 1,60,61
 1237 295 1237 295 1216 221 c 128,-1,62
 1195 147 1195 147 1153 95 c 128,-1,63
 1111 43 1111 43 1047.5 14.5 c 128,-1,64
 984 -14 984 -14 899 -14 c 0,0,1
279 305 m 0,65,66
 279 270 279 270 290.5 246.5 c 128,-1,67
 302 223 302 223 319 208 c 128,-1,68
 336 193 336 193 355.5 186.5 c 128,-1,69
 375 180 375 180 391 180 c 0,70,71
 417 180 417 180 442 192 c 128,-1,72
 467 204 467 204 487 218 c 0,73,74
 511 235 511 235 532 256 c 1,75,-1
 532 575 l 1,76,77
 468 537 468 537 420.5 504.5 c 128,-1,78
 373 472 373 472 341.5 440.5 c 128,-1,79
 310 409 310 409 294.5 376 c 128,-1,80
 279 343 279 343 279 305 c 0,65,66
885 971 m 0,81,82
 837 971 837 971 811 946 c 128,-1,83
 785 921 785 921 773 881 c 128,-1,84
 761 841 761 841 758.5 791.5 c 128,-1,85
 756 742 756 742 756 694 c 1,86,-1
 1014 694 l 1,87,88
 1014 747 1014 747 1013 797 c 128,-1,89
 1012 847 1012 847 1001 885.5 c 128,-1,90
 990 924 990 924 963 947.5 c 128,-1,91
 936 971 936 971 885 971 c 0,81,82
EndSplineSet
EndChar

StartChar: ring
Encoding: 264 730 121
Width: 819
Flags: W
HStem: 1188 78<346.204 481.096> 1454 82<341.286 485.979>
VStem: 238 90<1295.39 1444.47> 500 88<1295.39 1442.63>
LayerCount: 2
Fore
SplineSet
412 1454 m 0,0,1
 391 1454 391 1454 375 1446 c 128,-1,2
 359 1438 359 1438 348.5 1424.5 c 128,-1,3
 338 1411 338 1411 333 1394.5 c 128,-1,4
 328 1378 328 1378 328 1360 c 0,5,6
 328 1323 328 1323 349 1294.5 c 128,-1,7
 370 1266 370 1266 412 1266 c 0,8,9
 456 1266 456 1266 478 1294.5 c 128,-1,10
 500 1323 500 1323 500 1360 c 0,11,12
 500 1378 500 1378 494.5 1394.5 c 128,-1,13
 489 1411 489 1411 478 1424.5 c 128,-1,14
 467 1438 467 1438 450.5 1446 c 128,-1,15
 434 1454 434 1454 412 1454 c 0,0,1
412 1536 m 0,16,17
 455 1536 455 1536 488 1521 c 128,-1,18
 521 1506 521 1506 543.5 1481 c 128,-1,19
 566 1456 566 1456 577 1424.5 c 128,-1,20
 588 1393 588 1393 588 1360 c 0,21,22
 588 1328 588 1328 577 1297 c 128,-1,23
 566 1266 566 1266 543.5 1242 c 128,-1,24
 521 1218 521 1218 488 1203 c 128,-1,25
 455 1188 455 1188 412 1188 c 0,26,27
 368 1188 368 1188 335.5 1203 c 128,-1,28
 303 1218 303 1218 281 1242 c 128,-1,29
 259 1266 259 1266 248.5 1297 c 128,-1,30
 238 1328 238 1328 238 1360 c 0,31,32
 238 1393 238 1393 248.5 1424.5 c 128,-1,33
 259 1456 259 1456 281 1481 c 128,-1,34
 303 1506 303 1506 335.5 1521 c 128,-1,35
 368 1536 368 1536 412 1536 c 0,16,17
EndSplineSet
EndChar

StartChar: caron
Encoding: 265 711 124
Width: 1706
Flags: W
HStem: 1192 326<678 705 909 936>
VStem: 553 508
LayerCount: 2
Fore
SplineSet
909 1518 m 1,0,-1
 1061 1518 l 1,1,-1
 936 1192 l 1,2,-1
 678 1192 l 1,3,-1
 553 1518 l 1,4,-1
 705 1518 l 1,5,-1
 807 1278 l 1,6,-1
 909 1518 l 1,0,-1
EndSplineSet
EndChar

StartChar: colon
Encoding: 58 58 127
Width: 375
Flags: W
HStem: 129 223<76 297> 727 223<76 297>
VStem: 76 221<129 352 727 950>
LayerCount: 2
Fore
SplineSet
76 352 m 1,0,-1
 297 352 l 1,1,-1
 297 129 l 1,2,-1
 76 129 l 1,3,-1
 76 352 l 1,0,-1
76 950 m 1,4,-1
 297 950 l 1,5,-1
 297 727 l 1,6,-1
 76 727 l 1,7,-1
 76 950 l 1,4,-1
EndSplineSet
EndChar

StartChar: semicolon
Encoding: 59 59 128
Width: 375
Flags: W
HStem: 217 240<74 176> 774 240<74 317>
VStem: 74 243<219.205 457 774 1014> 176 138.5<103.058 217>
LayerCount: 2
Fore
SplineSet
74 457 m 1,0,-1
 317 457 l 1,1,2
 317 366 317 366 314.5 284.5 c 128,-1,3
 312 203 312 203 296.5 141 c 128,-1,4
 281 79 281 79 248 42.5 c 128,-1,5
 215 6 215 6 154 6 c 1,6,-1
 115 88 l 1,7,8
 132 101 132 101 145 119 c 0,9,10
 156 135 156 135 166 159.5 c 128,-1,11
 176 184 176 184 176 217 c 1,12,-1
 74 217 l 1,13,-1
 74 457 l 1,0,-1
74 1014 m 1,14,-1
 317 1014 l 1,15,-1
 317 774 l 1,16,-1
 74 774 l 1,17,-1
 74 1014 l 1,14,-1
EndSplineSet
EndChar

StartChar: comma
Encoding: 44 44 129
Width: 1706
Flags: W
HStem: 0 240<74 176>
VStem: 74 240.5<2.20496 240> 176 138.5<-113.942 0>
LayerCount: 2
Fore
SplineSet
74 240 m 1,0,-1
 317 240 l 1,1,2
 317 149 317 149 314.5 67.5 c 128,-1,3
 312 -14 312 -14 296.5 -76 c 128,-1,4
 281 -138 281 -138 248 -174.5 c 128,-1,5
 215 -211 215 -211 154 -211 c 1,6,-1
 115 -129 l 1,7,8
 132 -116 132 -116 145 -98 c 0,9,10
 156 -82 156 -82 166 -57.5 c 128,-1,11
 176 -33 176 -33 176 0 c 1,12,-1
 74 0 l 1,13,-1
 74 240 l 1,0,-1
EndSplineSet
EndChar

StartChar: slash
Encoding: 47 47 130
Width: 575
Flags: W
HStem: 0 21G<37 259.729> 1498 20G<315.285 539>
VStem: 37 502
LayerCount: 2
Fore
SplineSet
319 1518 m 1,0,-1
 539 1518 l 1,1,-1
 256 0 l 1,2,-1
 37 0 l 1,3,-1
 319 1518 l 1,0,-1
EndSplineSet
EndChar

StartChar: backslash
Encoding: 92 92 131
Width: 575
Flags: W
HStem: 0 21G<315.285 539> 1498 20G<37 259.729>
VStem: 37 502
LayerCount: 2
Fore
SplineSet
539 0 m 1,0,-1
 319 0 l 1,1,-1
 37 1518 l 1,2,-1
 256 1518 l 1,3,-1
 539 0 l 1,0,-1
EndSplineSet
EndChar

StartChar: plus
Encoding: 43 43 132
Width: 375
Flags: W
HStem: 451 165<-41 102 268 416>
VStem: 102 166<305 451 616 762>
LayerCount: 2
Fore
SplineSet
102 305 m 1,0,-1
 102 451 l 1,1,-1
 -41 451 l 1,2,-1
 -41 616 l 1,3,-1
 102 616 l 1,4,-1
 102 762 l 1,5,-1
 268 762 l 1,6,-1
 268 616 l 1,7,-1
 416 616 l 1,8,-1
 416 451 l 1,9,-1
 268 451 l 1,10,-1
 268 305 l 1,11,-1
 102 305 l 1,0,-1
EndSplineSet
EndChar

StartChar: quoteright
Encoding: 269 8217 134
Width: 1706
Flags: W
HStem: 1278 240<315 418>
VStem: 315 241.5<1280.2 1518> 418 138.5<1164.22 1278>
LayerCount: 2
Fore
SplineSet
315 1518 m 1,0,-1
 559 1518 l 1,1,2
 559 1427 559 1427 556.5 1345.5 c 128,-1,3
 554 1264 554 1264 538.5 1202 c 128,-1,4
 523 1140 523 1140 489.5 1103.5 c 128,-1,5
 456 1067 456 1067 395 1067 c 1,6,-1
 356 1149 l 1,7,8
 373 1162 373 1162 387 1180 c 1,9,10
 398 1196 398 1196 408 1220.5 c 128,-1,11
 418 1245 418 1245 418 1278 c 1,12,-1
 315 1278 l 1,13,-1
 315 1518 l 1,0,-1
EndSplineSet
EndChar

StartChar: quoteleft
Encoding: 270 8216 135
Width: 1706
Flags: W
HStem: 1085 240<457 559> 1516 20G<448 488.512>
VStem: 315 244<1085 1322.8> 317.5 139.5<1325 1438.94>
LayerCount: 2
Fore
SplineSet
559 1085 m 1,0,-1
 315 1085 l 1,1,2
 315 1176 315 1176 317.5 1257.5 c 128,-1,3
 320 1339 320 1339 335.5 1401 c 128,-1,4
 351 1463 351 1463 384 1499.5 c 128,-1,5
 417 1536 417 1536 479 1536 c 1,6,-1
 518 1454 l 1,7,8
 500 1440 500 1440 487 1422 c 0,9,10
 476 1406 476 1406 466.5 1382 c 128,-1,11
 457 1358 457 1358 457 1325 c 1,12,-1
 559 1325 l 1,13,-1
 559 1085 l 1,0,-1
EndSplineSet
EndChar

StartChar: quotedblleft
Encoding: 271 8220 136
Width: 1706
Flags: W
HStem: 1085 240<457 559 770 872> 1516 20G<448 488.512 762 802.268>
VStem: 315 244<1085 1322.8> 317.5 139.5<1325 1438.94> 629 243<1085 1322.8> 631.5 138.5<1325 1438.94>
LayerCount: 2
Fore
SplineSet
559 1085 m 1,0,-1
 315 1085 l 1,1,2
 315 1176 315 1176 317.5 1257.5 c 128,-1,3
 320 1339 320 1339 335.5 1401 c 128,-1,4
 351 1463 351 1463 384 1499.5 c 128,-1,5
 417 1536 417 1536 479 1536 c 1,6,-1
 518 1454 l 1,7,8
 500 1440 500 1440 487 1422 c 0,9,10
 476 1406 476 1406 466.5 1382 c 128,-1,11
 457 1358 457 1358 457 1325 c 1,12,-1
 559 1325 l 1,13,-1
 559 1085 l 1,0,-1
872 1085 m 1,14,-1
 629 1085 l 1,15,16
 629 1176 629 1176 631.5 1257.5 c 128,-1,17
 634 1339 634 1339 649.5 1401 c 128,-1,18
 665 1463 665 1463 698 1499.5 c 128,-1,19
 731 1536 731 1536 793 1536 c 1,20,-1
 831 1454 l 1,21,22
 813 1440 813 1440 800 1422 c 0,23,24
 789 1406 789 1406 779.5 1382 c 128,-1,25
 770 1358 770 1358 770 1325 c 1,26,-1
 872 1325 l 1,27,-1
 872 1085 l 1,14,-1
EndSplineSet
EndChar

StartChar: quotedblright
Encoding: 272 8221 137
Width: 1706
Flags: W
HStem: 1278 240<315 418 625 727>
VStem: 315 241.5<1280.2 1518> 418 138.5<1164.22 1278> 625 240.5<1280.2 1518> 727 138.5<1164.06 1278>
LayerCount: 2
Fore
SplineSet
315 1518 m 1,0,-1
 559 1518 l 1,1,2
 559 1427 559 1427 556.5 1345.5 c 128,-1,3
 554 1264 554 1264 538.5 1202 c 128,-1,4
 523 1140 523 1140 489.5 1103.5 c 128,-1,5
 456 1067 456 1067 395 1067 c 1,6,-1
 356 1149 l 1,7,8
 373 1162 373 1162 387 1180 c 1,9,10
 398 1196 398 1196 408 1220.5 c 128,-1,11
 418 1245 418 1245 418 1278 c 1,12,-1
 315 1278 l 1,13,-1
 315 1518 l 1,0,-1
625 1518 m 1,14,-1
 868 1518 l 1,15,16
 868 1427 868 1427 865.5 1345.5 c 128,-1,17
 863 1264 863 1264 847.5 1202 c 128,-1,18
 832 1140 832 1140 799 1103.5 c 128,-1,19
 766 1067 766 1067 705 1067 c 1,20,-1
 666 1149 l 1,21,22
 683 1162 683 1162 696 1180 c 0,23,24
 707 1196 707 1196 717 1220.5 c 128,-1,25
 727 1245 727 1245 727 1278 c 1,26,-1
 625 1278 l 1,27,-1
 625 1518 l 1,14,-1
EndSplineSet
EndChar

StartChar: bar
Encoding: 124 124 138
Width: 395
Flags: W
HStem: -14 21G<94 297> 1516 20G<94 297>
VStem: 94 203<-14 1536>
LayerCount: 2
Fore
SplineSet
94 1536 m 1,0,-1
 297 1536 l 1,1,-1
 297 -14 l 1,2,-1
 94 -14 l 1,3,-1
 94 1536 l 1,0,-1
EndSplineSet
EndChar

StartChar: fraction
Encoding: 273 8260 139
Width: 537
Flags: W
VStem: 18 502
LayerCount: 2
Fore
SplineSet
301 1901 m 1,0,-1
 520 1901 l 1,1,-1
 238 383 l 1,2,-1
 18 383 l 1,3,-1
 301 1901 l 1,0,-1
EndSplineSet
EndChar

StartChar: trademark
Encoding: 277 8482 143
Width: 2204
Flags: W
HStem: 1364 154<152 315 485 649>
VStem: 315 170<686 1364> 741 158<686 1241> 1276 160<686 1241>
LayerCount: 2
Fore
SplineSet
649 1518 m 1,0,-1
 649 1364 l 1,1,-1
 485 1364 l 1,2,-1
 485 686 l 1,3,-1
 315 686 l 1,4,-1
 315 1364 l 1,5,-1
 152 1364 l 1,6,-1
 152 1518 l 1,7,-1
 649 1518 l 1,0,-1
1139 686 m 1,8,-1
 1036 686 l 1,9,-1
 899 1241 l 1,10,-1
 899 686 l 1,11,-1
 741 686 l 1,12,-1
 741 1518 l 1,13,-1
 983 1518 l 1,14,-1
 1087 1065 l 1,15,-1
 1194 1518 l 1,16,-1
 1436 1518 l 1,17,-1
 1436 686 l 1,18,-1
 1276 686 l 1,19,-1
 1276 1241 l 1,20,-1
 1139 686 l 1,8,-1
EndSplineSet
EndChar

StartChar: percent
Encoding: 37 37 144
Width: 1999
Flags: W
HStem: 0 195<1476.21 1632.13> 541 194<366.167 522.127> 780 195<1471.22 1637.3> 1321 195<362.023 527.087>
VStem: 78 233<797.356 1266.46> 578 233<796.676 1266.58> 1188 233<256.81 726.659> 1688 233<256.81 726.659>
LayerCount: 2
Fore
SplineSet
78 1032 m 0,0,1
 78 1143 78 1143 98 1222 c 128,-1,2
 118 1301 118 1301 150 1355 c 128,-1,3
 182 1409 182 1409 222.5 1441 c 128,-1,4
 263 1473 263 1473 303.5 1489.5 c 128,-1,5
 344 1506 344 1506 381 1511 c 128,-1,6
 418 1516 418 1516 444 1516 c 256,7,8
 470 1516 470 1516 507 1511 c 128,-1,9
 544 1506 544 1506 585 1489.5 c 128,-1,10
 626 1473 626 1473 666.5 1441 c 128,-1,11
 707 1409 707 1409 739 1355 c 128,-1,12
 771 1301 771 1301 791 1222 c 128,-1,13
 811 1143 811 1143 811 1032 c 0,14,15
 811 899 811 899 780 806 c 128,-1,16
 749 713 749 713 697.5 654 c 128,-1,17
 646 595 646 595 580 568 c 128,-1,18
 514 541 514 541 444 541 c 256,19,20
 374 541 374 541 308 568 c 128,-1,21
 242 595 242 595 191 654 c 128,-1,22
 140 713 140 713 109 806 c 128,-1,23
 78 899 78 899 78 1032 c 0,0,1
311 1032 m 0,24,25
 311 1006 311 1006 313 973.5 c 128,-1,26
 315 941 315 941 320.5 908 c 128,-1,27
 326 875 326 875 335.5 844 c 128,-1,28
 345 813 345 813 360 788.5 c 128,-1,29
 375 764 375 764 395.5 749.5 c 128,-1,30
 416 735 416 735 444 735 c 0,31,32
 486 735 486 735 512.5 766 c 128,-1,33
 539 797 539 797 553.5 843 c 128,-1,34
 568 889 568 889 573 940 c 128,-1,35
 578 991 578 991 578 1032 c 0,36,37
 578 1072 578 1072 574 1122 c 128,-1,38
 570 1172 570 1172 556 1216.5 c 128,-1,39
 542 1261 542 1261 515.5 1291 c 128,-1,40
 489 1321 489 1321 444 1321 c 0,41,42
 400 1321 400 1321 373.5 1291 c 128,-1,43
 347 1261 347 1261 333 1216.5 c 128,-1,44
 319 1172 319 1172 315 1122 c 128,-1,45
 311 1072 311 1072 311 1032 c 0,24,25
1188 492 m 0,46,47
 1188 603 1188 603 1208 682 c 128,-1,48
 1228 761 1228 761 1260 814.5 c 128,-1,49
 1292 868 1292 868 1332.5 900 c 128,-1,50
 1373 932 1373 932 1413.5 948.5 c 128,-1,51
 1454 965 1454 965 1491 970 c 128,-1,52
 1528 975 1528 975 1554 975 c 256,53,54
 1580 975 1580 975 1617 970 c 128,-1,55
 1654 965 1654 965 1695 948.5 c 128,-1,56
 1736 932 1736 932 1776.5 900 c 128,-1,57
 1817 868 1817 868 1849 814.5 c 128,-1,58
 1881 761 1881 761 1901 682 c 128,-1,59
 1921 603 1921 603 1921 492 c 0,60,61
 1921 359 1921 359 1890 265.5 c 128,-1,62
 1859 172 1859 172 1807.5 113 c 128,-1,63
 1756 54 1756 54 1690 27 c 128,-1,64
 1624 0 1624 0 1554 0 c 256,65,66
 1484 0 1484 0 1418 27 c 128,-1,67
 1352 54 1352 54 1301 113 c 128,-1,68
 1250 172 1250 172 1219 265.5 c 128,-1,69
 1188 359 1188 359 1188 492 c 0,46,47
1421 492 m 0,70,71
 1421 452 1421 452 1426 400.5 c 128,-1,72
 1431 349 1431 349 1445.5 303.5 c 128,-1,73
 1460 258 1460 258 1486 226.5 c 128,-1,74
 1512 195 1512 195 1554 195 c 256,75,76
 1596 195 1596 195 1622.5 226 c 128,-1,77
 1649 257 1649 257 1663.5 302.5 c 128,-1,78
 1678 348 1678 348 1683 399.5 c 128,-1,79
 1688 451 1688 451 1688 492 c 0,80,81
 1688 519 1688 519 1686.5 550.5 c 128,-1,82
 1685 582 1685 582 1680 614 c 128,-1,83
 1675 646 1675 646 1666 676 c 128,-1,84
 1657 706 1657 706 1642 729 c 128,-1,85
 1627 752 1627 752 1605.5 766 c 128,-1,86
 1584 780 1584 780 1554 780 c 256,87,88
 1524 780 1524 780 1503 766 c 128,-1,89
 1482 752 1482 752 1467 729 c 128,-1,90
 1452 706 1452 706 1443 676 c 128,-1,91
 1434 646 1434 646 1429 614 c 128,-1,92
 1424 582 1424 582 1422.5 550 c 128,-1,93
 1421 518 1421 518 1421 492 c 0,70,71
1034 1518 m 1,94,-1
 1253 1518 l 1,95,-1
 971 0 l 1,96,-1
 751 0 l 1,97,-1
 1034 1518 l 1,94,-1
EndSplineSet
EndChar

StartChar: onesuperior
Encoding: 185 185 145
Width: 553
Flags: W
HStem: 1196 107<70 153.906> 1498 20G<327.5 438>
VStem: 240 198<614 1196>
LayerCount: 2
Fore
SplineSet
70 1303 m 1,0,1
 134 1334 134 1334 176.5 1361.5 c 128,-1,2
 219 1389 219 1389 248 1415 c 128,-1,3
 277 1441 277 1441 297 1466.5 c 128,-1,4
 317 1492 317 1492 338 1518 c 1,5,-1
 438 1518 l 1,6,-1
 438 614 l 1,7,-1
 240 614 l 1,8,-1
 240 1196 l 1,9,-1
 70 1196 l 1,10,-1
 70 1303 l 1,0,1
EndSplineSet
EndChar

StartChar: twosuperior
Encoding: 178 178 146
Width: 893
Flags: W
HStem: 610 148<381 659> 1384 150<374.529 482.301>
VStem: 182 183<1253 1380.67> 489 187<1122.37 1382.28>
LayerCount: 2
Fore
SplineSet
182 1253 m 1,0,-1
 182 1284 l 2,1,2
 182 1339 182 1339 199 1385 c 128,-1,3
 216 1431 216 1431 248.5 1464 c 128,-1,4
 281 1497 281 1497 328.5 1515.5 c 128,-1,5
 376 1534 376 1534 438 1534 c 0,6,7
 494 1534 494 1534 538.5 1515.5 c 128,-1,8
 583 1497 583 1497 613.5 1465 c 128,-1,9
 644 1433 644 1433 660 1389 c 128,-1,10
 676 1345 676 1345 676 1294 c 0,11,12
 676 1226 676 1226 648 1159.5 c 128,-1,13
 620 1093 620 1093 576.5 1026.5 c 128,-1,14
 533 960 533 960 481 893 c 128,-1,15
 429 826 429 826 381 758 c 1,16,-1
 659 758 l 1,17,-1
 659 610 l 1,18,-1
 172 610 l 1,19,-1
 172 750 l 1,20,-1
 410 1065 l 2,21,22
 436 1100 436 1100 451.5 1133 c 128,-1,23
 467 1166 467 1166 475.5 1195 c 128,-1,24
 484 1224 484 1224 486.5 1248 c 128,-1,25
 489 1272 489 1272 489 1290 c 0,26,27
 489 1307 489 1307 486.5 1323.5 c 128,-1,28
 484 1340 484 1340 477.5 1353.5 c 128,-1,29
 471 1367 471 1367 459.5 1375.5 c 128,-1,30
 448 1384 448 1384 430 1384 c 0,31,32
 409 1384 409 1384 396.5 1373 c 128,-1,33
 384 1362 384 1362 377 1345.5 c 128,-1,34
 370 1329 370 1329 367.5 1308.5 c 128,-1,35
 365 1288 365 1288 365 1270 c 2,36,-1
 365 1253 l 1,37,-1
 182 1253 l 1,0,-1
EndSplineSet
EndChar

StartChar: perthousand
Encoding: 278 8240 148
Width: 2834
Flags: W
HStem: 0 195<1476.21 1632.13 2311.88 2468.12> 541 194<366.167 522.127> 780 195<1471.22 1637.3 2307.88 2472.58> 1321 195<362.023 527.087>
VStem: 78 233<797.356 1266.46> 578 233<796.676 1266.58> 1188 233<256.81 726.659> 1688 233<256.81 726.659> 2023 234<255.607 726.644> 2523 234<253.764 726.644>
LayerCount: 2
Fore
SplineSet
78 1032 m 0,0,1
 78 1143 78 1143 98 1222 c 128,-1,2
 118 1301 118 1301 150 1355 c 128,-1,3
 182 1409 182 1409 222.5 1441 c 128,-1,4
 263 1473 263 1473 303.5 1489.5 c 128,-1,5
 344 1506 344 1506 381 1511 c 128,-1,6
 418 1516 418 1516 444 1516 c 256,7,8
 470 1516 470 1516 507 1511 c 128,-1,9
 544 1506 544 1506 585 1489.5 c 128,-1,10
 626 1473 626 1473 666.5 1441 c 128,-1,11
 707 1409 707 1409 739 1355 c 128,-1,12
 771 1301 771 1301 791 1222 c 128,-1,13
 811 1143 811 1143 811 1032 c 0,14,15
 811 899 811 899 780 806 c 128,-1,16
 749 713 749 713 697.5 654 c 128,-1,17
 646 595 646 595 580 568 c 128,-1,18
 514 541 514 541 444 541 c 256,19,20
 374 541 374 541 308 568 c 128,-1,21
 242 595 242 595 191 654 c 128,-1,22
 140 713 140 713 109 806 c 128,-1,23
 78 899 78 899 78 1032 c 0,0,1
311 1032 m 0,24,25
 311 1006 311 1006 313 973.5 c 128,-1,26
 315 941 315 941 320.5 908 c 128,-1,27
 326 875 326 875 335.5 844 c 128,-1,28
 345 813 345 813 360 788.5 c 128,-1,29
 375 764 375 764 395.5 749.5 c 128,-1,30
 416 735 416 735 444 735 c 0,31,32
 486 735 486 735 512.5 766 c 128,-1,33
 539 797 539 797 553.5 843 c 128,-1,34
 568 889 568 889 573 940 c 128,-1,35
 578 991 578 991 578 1032 c 0,36,37
 578 1072 578 1072 574 1122 c 128,-1,38
 570 1172 570 1172 556 1216.5 c 128,-1,39
 542 1261 542 1261 515.5 1291 c 128,-1,40
 489 1321 489 1321 444 1321 c 0,41,42
 400 1321 400 1321 373.5 1291 c 128,-1,43
 347 1261 347 1261 333 1216.5 c 128,-1,44
 319 1172 319 1172 315 1122 c 128,-1,45
 311 1072 311 1072 311 1032 c 0,24,25
2023 492 m 0,46,47
 2023 603 2023 603 2043 682 c 128,-1,48
 2063 761 2063 761 2095.5 814.5 c 128,-1,49
 2128 868 2128 868 2168.5 900 c 128,-1,50
 2209 932 2209 932 2249.5 948.5 c 128,-1,51
 2290 965 2290 965 2327 970 c 128,-1,52
 2364 975 2364 975 2390 975 c 0,53,54
 2415 975 2415 975 2452.5 970 c 128,-1,55
 2490 965 2490 965 2530.5 948.5 c 128,-1,56
 2571 932 2571 932 2611.5 900 c 128,-1,57
 2652 868 2652 868 2684.5 814.5 c 128,-1,58
 2717 761 2717 761 2737 682 c 128,-1,59
 2757 603 2757 603 2757 492 c 0,60,61
 2757 359 2757 359 2726 265.5 c 128,-1,62
 2695 172 2695 172 2643.5 113 c 128,-1,63
 2592 54 2592 54 2526 27 c 128,-1,64
 2460 0 2460 0 2390 0 c 256,65,66
 2320 0 2320 0 2254 27 c 128,-1,67
 2188 54 2188 54 2136.5 113 c 128,-1,68
 2085 172 2085 172 2054 265.5 c 128,-1,69
 2023 359 2023 359 2023 492 c 0,46,47
2257 492 m 256,70,71
 2257 452 2257 452 2262 400.5 c 128,-1,72
 2267 349 2267 349 2281 303.5 c 128,-1,73
 2295 258 2295 258 2321.5 226.5 c 128,-1,74
 2348 195 2348 195 2390 195 c 256,75,76
 2432 195 2432 195 2458.5 226 c 128,-1,77
 2485 257 2485 257 2499 302.5 c 128,-1,78
 2513 348 2513 348 2518 399.5 c 128,-1,79
 2523 451 2523 451 2523 492 c 0,80,81
 2523 532 2523 532 2519 582 c 128,-1,82
 2515 632 2515 632 2501 676 c 128,-1,83
 2487 720 2487 720 2461 750 c 128,-1,84
 2435 780 2435 780 2390 780 c 256,85,86
 2345 780 2345 780 2319 750 c 128,-1,87
 2293 720 2293 720 2279 676 c 128,-1,88
 2265 632 2265 632 2261 582 c 128,-1,89
 2257 532 2257 532 2257 492 c 256,70,71
1188 492 m 0,90,91
 1188 603 1188 603 1208 682 c 128,-1,92
 1228 761 1228 761 1260 814.5 c 128,-1,93
 1292 868 1292 868 1332.5 900 c 128,-1,94
 1373 932 1373 932 1413.5 948.5 c 128,-1,95
 1454 965 1454 965 1491 970 c 128,-1,96
 1528 975 1528 975 1554 975 c 256,97,98
 1580 975 1580 975 1617 970 c 128,-1,99
 1654 965 1654 965 1695 948.5 c 128,-1,100
 1736 932 1736 932 1776.5 900 c 128,-1,101
 1817 868 1817 868 1849 814.5 c 128,-1,102
 1881 761 1881 761 1901 682 c 128,-1,103
 1921 603 1921 603 1921 492 c 0,104,105
 1921 359 1921 359 1890 265.5 c 128,-1,106
 1859 172 1859 172 1807.5 113 c 128,-1,107
 1756 54 1756 54 1690 27 c 128,-1,108
 1624 0 1624 0 1554 0 c 256,109,110
 1484 0 1484 0 1418 27 c 128,-1,111
 1352 54 1352 54 1301 113 c 128,-1,112
 1250 172 1250 172 1219 265.5 c 128,-1,113
 1188 359 1188 359 1188 492 c 0,90,91
1421 492 m 0,114,115
 1421 452 1421 452 1426 400.5 c 128,-1,116
 1431 349 1431 349 1445.5 303.5 c 128,-1,117
 1460 258 1460 258 1486 226.5 c 128,-1,118
 1512 195 1512 195 1554 195 c 256,119,120
 1596 195 1596 195 1622.5 226 c 128,-1,121
 1649 257 1649 257 1663.5 302.5 c 128,-1,122
 1678 348 1678 348 1683 399.5 c 128,-1,123
 1688 451 1688 451 1688 492 c 0,124,125
 1688 519 1688 519 1686.5 550.5 c 128,-1,126
 1685 582 1685 582 1680 614 c 128,-1,127
 1675 646 1675 646 1666 676 c 128,-1,128
 1657 706 1657 706 1642 729 c 128,-1,129
 1627 752 1627 752 1605.5 766 c 128,-1,130
 1584 780 1584 780 1554 780 c 256,131,132
 1524 780 1524 780 1503 766 c 128,-1,133
 1482 752 1482 752 1467 729 c 128,-1,134
 1452 706 1452 706 1443 676 c 128,-1,135
 1434 646 1434 646 1429 614 c 128,-1,136
 1424 582 1424 582 1422.5 550 c 128,-1,137
 1421 518 1421 518 1421 492 c 0,114,115
1034 1518 m 1,138,-1
 1253 1518 l 1,139,-1
 971 0 l 1,140,-1
 751 0 l 1,141,-1
 1034 1518 l 1,138,-1
EndSplineSet
EndChar

StartChar: numbersign
Encoding: 35 35 149
Width: 575
Flags: W
HStem: 0 21G<37 259.742 508 730.742> 449 165<0 121 371 592 842 969> 971 166<78 217 467 688 938 1047> 1498 20G<315.273 539 787.22 1010>
LayerCount: 2
Fore
SplineSet
592 449 m 1,0,-1
 340 449 l 1,1,-1
 256 0 l 1,2,-1
 37 0 l 1,3,-1
 121 449 l 1,4,-1
 0 449 l 1,5,-1
 0 614 l 1,6,-1
 152 614 l 1,7,-1
 217 971 l 1,8,-1
 78 971 l 1,9,-1
 78 1137 l 1,10,-1
 248 1137 l 1,11,-1
 319 1518 l 1,12,-1
 539 1518 l 1,13,-1
 467 1137 l 1,14,-1
 719 1137 l 1,15,-1
 791 1518 l 1,16,-1
 1010 1518 l 1,17,-1
 938 1137 l 1,18,-1
 1047 1137 l 1,19,-1
 1047 971 l 1,20,-1
 907 971 l 1,21,-1
 842 614 l 1,22,-1
 969 614 l 1,23,-1
 969 449 l 1,24,-1
 811 449 l 1,25,-1
 727 0 l 1,26,-1
 508 0 l 1,27,-1
 592 449 l 1,0,-1
371 614 m 1,28,-1
 623 614 l 1,29,-1
 688 971 l 1,30,-1
 436 971 l 1,31,-1
 371 614 l 1,28,-1
EndSplineSet
EndChar

StartChar: cent
Encoding: 162 162 150
Width: 842
Flags: W
VStem: 70 219<223.893 923.236> 377 102<-199 -6.49854 199 946 1144.62 1352> 551.5 218.5<220.079 422 741 925.779>
LayerCount: 2
Fore
SplineSet
377 -12 m 1,0,1
 300 -6 300 -6 247.5 22 c 128,-1,2
 195 50 195 50 161 94.5 c 128,-1,3
 127 139 127 139 108.5 196.5 c 128,-1,4
 90 254 90 254 81.5 319.5 c 128,-1,5
 73 385 73 385 71.5 456.5 c 128,-1,6
 70 528 70 528 70 600 c 0,7,8
 70 660 70 660 72 722 c 128,-1,9
 74 784 74 784 83 842.5 c 128,-1,10
 92 901 92 901 111 953 c 128,-1,11
 130 1005 130 1005 164.5 1046 c 128,-1,12
 199 1087 199 1087 250.5 1114 c 128,-1,13
 302 1141 302 1141 377 1149 c 1,14,-1
 377 1352 l 1,15,-1
 479 1352 l 1,16,-1
 479 1151 l 1,17,18
 552 1144 552 1144 602.5 1116.5 c 128,-1,19
 653 1089 653 1089 685.5 1050.5 c 128,-1,20
 718 1012 718 1012 735.5 966.5 c 128,-1,21
 753 921 753 921 761 878 c 128,-1,22
 769 835 769 835 770.5 798.5 c 128,-1,23
 772 762 772 762 772 741 c 1,24,-1
 551 741 l 1,25,26
 551 822 551 822 535 875 c 128,-1,27
 519 928 519 928 479 946 c 1,28,-1
 479 199 l 1,29,30
 505 212 505 212 520 236.5 c 128,-1,31
 535 261 535 261 542.5 291.5 c 128,-1,32
 550 322 550 322 551.5 356 c 128,-1,33
 553 390 553 390 553 422 c 1,34,-1
 770 422 l 1,35,36
 770 416 770 416 770 384.5 c 128,-1,37
 770 353 770 353 764 308.5 c 128,-1,38
 758 264 758 264 741.5 212 c 128,-1,39
 725 160 725 160 693 114 c 128,-1,40
 661 68 661 68 609 34 c 128,-1,41
 557 0 557 0 479 -10 c 1,42,-1
 479 -199 l 1,43,-1
 377 -199 l 1,44,-1
 377 -12 l 1,0,1
289 598 m 0,45,46
 289 499 289 499 291 427.5 c 128,-1,47
 293 356 293 356 301.5 307.5 c 128,-1,48
 310 259 310 259 327.5 232 c 128,-1,49
 345 205 345 205 377 195 c 1,50,-1
 377 948 l 1,51,52
 351 943 351 943 334.5 925 c 128,-1,53
 318 907 318 907 307.5 868 c 128,-1,54
 297 829 297 829 293 763.5 c 128,-1,55
 289 698 289 698 289 598 c 0,45,46
EndSplineSet
EndChar

StartChar: copyright
Encoding: 169 169 151
Width: 1528
Flags: W
HStem: -14 147<560.399 967.601> 217 148<695.873 845.835> 1036 144<680.785 847.919> 1260 155<560.264 967.736>
VStem: 70 172<467.462 924.271> 475 180<389.133 1017.86> 874 179<387.663 578 840 981.85> 1286 172<467.462 924.271>
LayerCount: 2
Fore
SplineSet
768 217 m 0,0,1
 695 217 695 217 644.5 237.5 c 128,-1,2
 594 258 594 258 561.5 293.5 c 128,-1,3
 529 329 529 329 511.5 377 c 128,-1,4
 494 425 494 425 486 481.5 c 128,-1,5
 478 538 478 538 476.5 599.5 c 128,-1,6
 475 661 475 661 475 723 c 0,7,8
 475 776 475 776 477 830 c 128,-1,9
 479 884 479 884 488 935 c 128,-1,10
 497 986 497 986 515.5 1030.5 c 128,-1,11
 534 1075 534 1075 567 1108.5 c 128,-1,12
 600 1142 600 1142 650.5 1161 c 128,-1,13
 701 1180 701 1180 774 1180 c 0,14,15
 844 1180 844 1180 892.5 1160 c 128,-1,16
 941 1140 941 1140 972 1108 c 128,-1,17
 1003 1076 1003 1076 1020 1037 c 128,-1,18
 1037 998 1037 998 1044.5 960.5 c 128,-1,19
 1052 923 1052 923 1053.5 890.5 c 128,-1,20
 1055 858 1055 858 1055 840 c 1,21,-1
 872 840 l 1,22,23
 872 931 872 931 851.5 983.5 c 128,-1,24
 831 1036 831 1036 776 1036 c 0,25,26
 741 1036 741 1036 717.5 1028.5 c 128,-1,27
 694 1021 694 1021 680 989.5 c 128,-1,28
 666 958 666 958 660.5 895 c 128,-1,29
 655 832 655 832 655 721 c 0,30,31
 655 622 655 622 657.5 554 c 128,-1,32
 660 486 660 486 671.5 444 c 128,-1,33
 683 402 683 402 705.5 383.5 c 128,-1,34
 728 365 728 365 768 365 c 0,35,36
 805 365 805 365 826.5 385 c 128,-1,37
 848 405 848 405 858.5 436.5 c 128,-1,38
 869 468 869 468 871.5 505.5 c 128,-1,39
 874 543 874 543 874 578 c 1,40,-1
 1053 578 l 1,41,42
 1053 573 1053 573 1053 544.5 c 128,-1,43
 1053 516 1053 516 1046.5 476 c 128,-1,44
 1040 436 1040 436 1024 390.5 c 128,-1,45
 1008 345 1008 345 976.5 306.5 c 128,-1,46
 945 268 945 268 894.5 242.5 c 128,-1,47
 844 217 844 217 768 217 c 0,0,1
242 696 m 0,48,49
 242 579 242 579 283 476.5 c 128,-1,50
 324 374 324 374 394.5 297.5 c 128,-1,51
 465 221 465 221 560.5 177 c 128,-1,52
 656 133 656 133 764 133 c 256,53,54
 872 133 872 133 967.5 177 c 128,-1,55
 1063 221 1063 221 1133.5 297.5 c 128,-1,56
 1204 374 1204 374 1245 476.5 c 128,-1,57
 1286 579 1286 579 1286 696 c 0,58,59
 1286 774 1286 774 1267.5 846 c 128,-1,60
 1249 918 1249 918 1215 981 c 128,-1,61
 1181 1044 1181 1044 1133.5 1095 c 128,-1,62
 1086 1146 1086 1146 1028 1183 c 128,-1,63
 970 1220 970 1220 903 1240 c 128,-1,64
 836 1260 836 1260 764 1260 c 256,65,66
 692 1260 692 1260 625 1240 c 128,-1,67
 558 1220 558 1220 500 1183 c 128,-1,68
 442 1146 442 1146 394.5 1095 c 128,-1,69
 347 1044 347 1044 313 981 c 128,-1,70
 279 918 279 918 260.5 846 c 128,-1,71
 242 774 242 774 242 696 c 0,48,49
70 700 m 256,72,73
 70 799 70 799 95 890.5 c 128,-1,74
 120 982 120 982 165 1061.5 c 128,-1,75
 210 1141 210 1141 273.5 1206 c 128,-1,76
 337 1271 337 1271 414 1317.5 c 128,-1,77
 491 1364 491 1364 579.5 1389.5 c 128,-1,78
 668 1415 668 1415 764 1415 c 256,79,80
 860 1415 860 1415 948.5 1389.5 c 128,-1,81
 1037 1364 1037 1364 1114 1317.5 c 128,-1,82
 1191 1271 1191 1271 1254.5 1206 c 128,-1,83
 1318 1141 1318 1141 1363 1061.5 c 128,-1,84
 1408 982 1408 982 1433 890.5 c 128,-1,85
 1458 799 1458 799 1458 700 c 256,86,87
 1458 601 1458 601 1433 510 c 128,-1,88
 1408 419 1408 419 1363 339.5 c 128,-1,89
 1318 260 1318 260 1254.5 195 c 128,-1,90
 1191 130 1191 130 1114 83.5 c 128,-1,91
 1037 37 1037 37 948.5 11.5 c 128,-1,92
 860 -14 860 -14 764 -14 c 256,93,94
 668 -14 668 -14 579.5 11.5 c 128,-1,95
 491 37 491 37 414 83.5 c 128,-1,96
 337 130 337 130 273.5 195 c 128,-1,97
 210 260 210 260 165 339.5 c 128,-1,98
 120 419 120 419 95 510 c 128,-1,99
 70 601 70 601 70 700 c 256,72,73
EndSplineSet
EndChar

StartChar: registered
Encoding: 174 174 152
Width: 1528
Flags: W
HStem: -14 147<560.399 967.601> 633 96<672 754> 1049 118<672 834.539> 1260 155<560.264 967.736>
VStem: 70 172<467.462 924.271> 516 156<248 633 729 1049> 866 160<752.248 1010.83> 1286 172<467.462 924.271>
LayerCount: 2
Fore
SplineSet
242 696 m 0,0,1
 242 579 242 579 283 476.5 c 128,-1,2
 324 374 324 374 394.5 297.5 c 128,-1,3
 465 221 465 221 560.5 177 c 128,-1,4
 656 133 656 133 764 133 c 256,5,6
 872 133 872 133 967.5 177 c 128,-1,7
 1063 221 1063 221 1133.5 297.5 c 128,-1,8
 1204 374 1204 374 1245 476.5 c 128,-1,9
 1286 579 1286 579 1286 696 c 0,10,11
 1286 774 1286 774 1267.5 846 c 128,-1,12
 1249 918 1249 918 1215 981 c 128,-1,13
 1181 1044 1181 1044 1133.5 1095 c 128,-1,14
 1086 1146 1086 1146 1028 1183 c 128,-1,15
 970 1220 970 1220 903 1240 c 128,-1,16
 836 1260 836 1260 764 1260 c 256,17,18
 692 1260 692 1260 625 1240 c 128,-1,19
 558 1220 558 1220 500 1183 c 128,-1,20
 442 1146 442 1146 394.5 1095 c 128,-1,21
 347 1044 347 1044 313 981 c 128,-1,22
 279 918 279 918 260.5 846 c 128,-1,23
 242 774 242 774 242 696 c 0,0,1
70 700 m 256,24,25
 70 799 70 799 95 890.5 c 128,-1,26
 120 982 120 982 165 1061.5 c 128,-1,27
 210 1141 210 1141 273.5 1206 c 128,-1,28
 337 1271 337 1271 414 1317.5 c 128,-1,29
 491 1364 491 1364 579.5 1389.5 c 128,-1,30
 668 1415 668 1415 764 1415 c 256,31,32
 860 1415 860 1415 948.5 1389.5 c 128,-1,33
 1037 1364 1037 1364 1114 1317.5 c 128,-1,34
 1191 1271 1191 1271 1254.5 1206 c 128,-1,35
 1318 1141 1318 1141 1363 1061.5 c 128,-1,36
 1408 982 1408 982 1433 890.5 c 128,-1,37
 1458 799 1458 799 1458 700 c 256,38,39
 1458 601 1458 601 1433 510 c 128,-1,40
 1408 419 1408 419 1363 339.5 c 128,-1,41
 1318 260 1318 260 1254.5 195 c 128,-1,42
 1191 130 1191 130 1114 83.5 c 128,-1,43
 1037 37 1037 37 948.5 11.5 c 128,-1,44
 860 -14 860 -14 764 -14 c 256,45,46
 668 -14 668 -14 579.5 11.5 c 128,-1,47
 491 37 491 37 414 83.5 c 128,-1,48
 337 130 337 130 273.5 195 c 128,-1,49
 210 260 210 260 165 339.5 c 128,-1,50
 120 419 120 419 95 510 c 128,-1,51
 70 601 70 601 70 700 c 256,24,25
881 248 m 1,52,-1
 754 633 l 1,53,-1
 672 633 l 1,54,-1
 672 248 l 1,55,-1
 516 248 l 1,56,-1
 516 1167 l 1,57,-1
 756 1167 l 2,58,59
 835 1167 835 1167 887 1145.5 c 128,-1,60
 939 1124 939 1124 970 1086.5 c 128,-1,61
 1001 1049 1001 1049 1013.5 999.5 c 128,-1,62
 1026 950 1026 950 1026 893 c 0,63,64
 1026 842 1026 842 1015 805.5 c 128,-1,65
 1004 769 1004 769 986 743 c 128,-1,66
 968 717 968 717 945.5 699.5 c 128,-1,67
 923 682 923 682 901 670 c 1,68,69
 900 658 900 658 916 609 c 0,70,71
 922 588 922 588 933 557 c 128,-1,72
 944 526 944 526 960 482 c 128,-1,73
 976 438 976 438 998 380.5 c 128,-1,74
 1020 323 1020 323 1049 248 c 1,75,-1
 881 248 l 1,52,-1
672 729 m 1,76,-1
 705 729 l 2,77,78
 744 729 744 729 774 733.5 c 128,-1,79
 804 738 804 738 824.5 754.5 c 128,-1,80
 845 771 845 771 855.5 804.5 c 128,-1,81
 866 838 866 838 866 897 c 0,82,83
 866 975 866 975 835.5 1012 c 128,-1,84
 805 1049 805 1049 743 1049 c 2,85,-1
 672 1049 l 1,86,-1
 672 729 l 1,76,-1
EndSplineSet
EndChar

StartChar: Oslash
Encoding: 216 216 153
Width: 977
Flags: W
HStem: -27 244<442.461 596.498> 1309 237<383.992 531.156>
VStem: 66 264<326.751 1246.59> 649 264<270.926 1202.34>
LayerCount: 2
Fore
SplineSet
489 -27 m 0,0,1
 465 -27 465 -27 441.5 -24.5 c 128,-1,2
 418 -22 418 -22 395 -18 c 1,3,-1
 371 -152 l 1,4,-1
 254 -152 l 1,5,-1
 285 12 l 1,6,7
 231 37 231 37 190 82 c 128,-1,8
 149 127 149 127 121.5 194.5 c 128,-1,9
 94 262 94 262 80 354.5 c 128,-1,10
 66 447 66 447 66 567 c 2,11,-1
 66 1006 l 2,12,13
 66 1121 66 1121 85.5 1220 c 128,-1,14
 105 1319 105 1319 153.5 1391.5 c 128,-1,15
 202 1464 202 1464 283.5 1505 c 128,-1,16
 365 1546 365 1546 489 1546 c 0,17,18
 534 1546 534 1546 578 1540 c 1,19,-1
 604 1679 l 1,20,-1
 721 1679 l 1,21,-1
 688 1507 l 1,22,23
 752 1478 752 1478 795.5 1429 c 128,-1,24
 839 1380 839 1380 865 1315 c 128,-1,25
 891 1250 891 1250 902 1171.5 c 128,-1,26
 913 1093 913 1093 913 1006 c 2,27,-1
 913 567 l 2,28,29
 913 399 913 399 885 285 c 128,-1,30
 857 171 857 171 803 102 c 128,-1,31
 749 33 749 33 670 3 c 128,-1,32
 591 -27 591 -27 489 -27 c 0,0,1
489 217 m 0,33,34
 530 217 530 217 560 233 c 128,-1,35
 590 249 590 249 610 278.5 c 128,-1,36
 630 308 630 308 639.5 349 c 128,-1,37
 649 390 649 390 649 440 c 2,38,-1
 649 1063 l 2,39,40
 649 1151 649 1151 629 1204 c 1,41,-1
 442 223 l 1,42,43
 464 217 464 217 489 217 c 0,33,34
489 1309 m 0,44,45
 411 1309 411 1309 370.5 1248.5 c 128,-1,46
 330 1188 330 1188 330 1063 c 2,47,-1
 330 440 l 2,48,49
 330 408 330 408 333.5 379 c 128,-1,50
 337 350 337 350 346 326 c 1,51,-1
 532 1303 l 1,52,53
 511 1309 511 1309 489 1309 c 0,44,45
EndSplineSet
EndChar

StartChar: oslash
Encoding: 248 248 154
Width: 899
Flags: W
HStem: -14 200<434.123 542.333> 952 201<348.003 464.906>
VStem: 100 213<264.972 919.793> 575 226<213.823 852>
LayerCount: 2
Fore
SplineSet
100 729 m 2,0,1
 100 825 100 825 117 903 c 128,-1,2
 134 981 134 981 174.5 1036.5 c 128,-1,3
 215 1092 215 1092 282.5 1122.5 c 128,-1,4
 350 1153 350 1153 451 1153 c 0,5,6
 465 1153 465 1153 477 1152 c 128,-1,7
 489 1151 489 1151 502 1149 c 1,8,-1
 537 1325 l 1,9,-1
 653 1325 l 1,10,-1
 614 1118 l 1,11,12
 663 1095 663 1095 698.5 1057 c 128,-1,13
 734 1019 734 1019 756.5 969 c 128,-1,14
 779 919 779 919 790 858 c 128,-1,15
 801 797 801 797 801 729 c 2,16,-1
 801 410 l 2,17,18
 801 318 801 318 781.5 240 c 128,-1,19
 762 162 762 162 719.5 105.5 c 128,-1,20
 677 49 677 49 610.5 17.5 c 128,-1,21
 544 -14 544 -14 451 -14 c 0,22,23
 437 -14 437 -14 423.5 -13 c 128,-1,24
 410 -12 410 -12 397 -10 c 1,25,-1
 371 -152 l 1,26,-1
 254 -152 l 1,27,-1
 285 14 l 1,28,29
 233 36 233 36 197.5 73.5 c 128,-1,30
 162 111 162 111 140.5 161.5 c 128,-1,31
 119 212 119 212 109.5 274.5 c 128,-1,32
 100 337 100 337 100 410 c 2,33,-1
 100 729 l 2,0,1
313 451 m 2,34,35
 313 384 313 384 318 339.5 c 128,-1,36
 323 295 323 295 334 264 c 1,37,-1
 465 952 l 1,38,-1
 446 952 l 2,39,40
 414 952 414 952 389.5 943.5 c 128,-1,41
 365 935 365 935 348 907 c 128,-1,42
 331 879 331 879 322 827 c 128,-1,43
 313 775 313 775 313 688 c 2,44,-1
 313 451 l 2,34,35
575 688 m 2,45,46
 575 744 575 744 572 783.5 c 128,-1,47
 569 823 569 823 563 852 c 1,48,-1
 434 186 l 1,49,-1
 446 186 l 2,50,51
 479 186 479 186 503.5 194.5 c 128,-1,52
 528 203 528 203 544 230.5 c 128,-1,53
 560 258 560 258 567.5 310.5 c 128,-1,54
 575 363 575 363 575 451 c 2,55,-1
 575 688 l 2,45,46
EndSplineSet
EndChar

StartChar: paragraph
Encoding: 182 182 155
Width: 952
Flags: W
HStem: 0 21G<397 594 733 911> 1498 20G<335 911>
VStem: 31 880<1015.72 1362.8> 397 197<0 858> 733 178<0 858>
LayerCount: 2
Fore
SplineSet
397 858 m 1,0,1
 320 858 320 858 253.5 879.5 c 128,-1,2
 187 901 187 901 137.5 942.5 c 128,-1,3
 88 984 88 984 59.5 1045 c 128,-1,4
 31 1106 31 1106 31 1186 c 0,5,6
 31 1344 31 1344 131.5 1431 c 128,-1,7
 232 1518 232 1518 438 1518 c 2,8,-1
 911 1518 l 1,9,-1
 911 0 l 1,10,-1
 733 0 l 1,11,-1
 733 858 l 1,12,-1
 594 858 l 1,13,-1
 594 0 l 1,14,-1
 397 0 l 1,15,-1
 397 858 l 1,0,1
EndSplineSet
EndChar

StartChar: ordfeminine
Encoding: 170 170 156
Width: 842
Flags: W
HStem: 645 154<238.829 369.524> 1374 144<284.524 415.48>
VStem: 53 195<811.675 971.325> 86 178<1223 1331.2> 430 193<821.559 1063 1126.8 1366.52>
LayerCount: 2
Fore
SplineSet
430 766 m 1,0,1
 395 701 395 701 345.5 673 c 128,-1,2
 296 645 296 645 246 645 c 0,3,4
 208 645 208 645 173 659.5 c 128,-1,5
 138 674 138 674 111.5 699.5 c 128,-1,6
 85 725 85 725 69 760.5 c 128,-1,7
 53 796 53 796 53 838 c 0,8,9
 53 866 53 866 57 892 c 128,-1,10
 61 918 61 918 74 942.5 c 128,-1,11
 87 967 87 967 112 991 c 128,-1,12
 137 1015 137 1015 178.5 1039.5 c 128,-1,13
 220 1064 220 1064 281.5 1089 c 128,-1,14
 343 1114 343 1114 430 1141 c 1,15,-1
 430 1235 l 2,16,17
 430 1283 430 1283 422 1310.5 c 128,-1,18
 414 1338 414 1338 402 1352 c 128,-1,19
 390 1366 390 1366 377 1370 c 128,-1,20
 364 1374 364 1374 354 1374 c 0,21,22
 305 1374 305 1374 284.5 1332.5 c 128,-1,23
 264 1291 264 1291 264 1223 c 1,24,-1
 86 1223 l 1,25,26
 87 1293 87 1293 107.5 1347.5 c 128,-1,27
 128 1402 128 1402 164.5 1440 c 128,-1,28
 201 1478 201 1478 250.5 1498 c 128,-1,29
 300 1518 300 1518 358 1518 c 0,30,31
 437 1518 437 1518 488.5 1496.5 c 128,-1,32
 540 1475 540 1475 570 1432 c 128,-1,33
 600 1389 600 1389 611.5 1325 c 128,-1,34
 623 1261 623 1261 623 1176 c 2,35,-1
 623 883 l 2,36,37
 623 833 623 833 623 799 c 128,-1,38
 623 765 623 765 624.5 740 c 128,-1,39
 626 715 626 715 629 695.5 c 128,-1,40
 632 676 632 676 637 655 c 1,41,-1
 446 655 l 1,42,-1
 430 766 l 1,0,1
248 883 m 0,43,44
 248 839 248 839 269 819 c 128,-1,45
 290 799 290 799 319 799 c 0,46,47
 350 799 350 799 381.5 819 c 128,-1,48
 413 839 413 839 430 874 c 1,49,-1
 430 1063 l 1,50,51
 339 1013 339 1013 293.5 972.5 c 128,-1,52
 248 932 248 932 248 883 c 0,43,44
EndSplineSet
EndChar

StartChar: Thorn
Encoding: 222 222 157
Width: 952
Flags: W
HStem: 0 21G<72 326> 408 225<326 577.624> 1090 223<324 583.234> 1498 20G<72 324>
VStem: 72 252<0 408 633 1090 1313 1518> 649 262<703.604 1025.35>
LayerCount: 2
Fore
SplineSet
324 1518 m 1,0,-1
 324 1313 l 1,1,-1
 504 1313 l 2,2,3
 607 1313 607 1313 683.5 1282 c 128,-1,4
 760 1251 760 1251 810.5 1192.5 c 128,-1,5
 861 1134 861 1134 886 1049.5 c 128,-1,6
 911 965 911 965 911 858 c 0,7,8
 911 635 911 635 793 521.5 c 128,-1,9
 675 408 675 408 457 408 c 2,10,-1
 326 408 l 1,11,-1
 326 0 l 1,12,-1
 72 0 l 1,13,-1
 72 1518 l 1,14,-1
 324 1518 l 1,0,-1
369 633 m 2,15,16
 433 633 433 633 484.5 641 c 128,-1,17
 536 649 536 649 572.5 673 c 128,-1,18
 609 697 609 697 629 741.5 c 128,-1,19
 649 786 649 786 649 860 c 0,20,21
 649 924 649 924 635 968 c 128,-1,22
 621 1012 621 1012 591 1039 c 128,-1,23
 561 1066 561 1066 514 1078 c 128,-1,24
 467 1090 467 1090 401 1090 c 2,25,-1
 324 1090 l 1,26,-1
 324 633 l 1,27,-1
 369 633 l 2,15,16
EndSplineSet
EndChar

StartChar: thorn
Encoding: 254 254 158
Width: 838
Flags: W
HStem: -340 21G<72 291> -14 178<387.29 553.5> 979 174<386.133 559.5> 1498 20G<72 291>
VStem: 72 219<-340 109 198.585 947.078 1024 1518> 545 225<191.312 952.182>
LayerCount: 2
Fore
SplineSet
72 1518 m 1,0,-1
 291 1518 l 1,1,-1
 291 1024 l 1,2,3
 335 1071 335 1071 370 1097 c 128,-1,4
 405 1123 405 1123 432.5 1135.5 c 128,-1,5
 460 1148 460 1148 481.5 1150.5 c 128,-1,6
 503 1153 503 1153 520 1153 c 0,7,8
 599 1153 599 1153 648 1116 c 128,-1,9
 697 1079 697 1079 724 1000 c 128,-1,10
 751 921 751 921 760.5 796.5 c 128,-1,11
 770 672 770 672 770 498 c 0,12,13
 770 447 770 447 767 389 c 128,-1,14
 764 331 764 331 755.5 274 c 128,-1,15
 747 217 747 217 730.5 165 c 128,-1,16
 714 113 714 113 686.5 73 c 128,-1,17
 659 33 659 33 620 9.5 c 128,-1,18
 581 -14 581 -14 526 -14 c 0,19,20
 494 -14 494 -14 461.5 -3.5 c 128,-1,21
 429 7 429 7 398.5 24 c 128,-1,22
 368 41 368 41 340.5 63.5 c 128,-1,23
 313 86 313 86 291 109 c 1,24,-1
 291 -340 l 1,25,-1
 72 -340 l 1,26,-1
 72 1518 l 1,0,-1
291 223 m 1,27,28
 392 164 392 164 446 164 c 0,29,30
 480 164 480 164 500 190 c 128,-1,31
 520 216 520 216 530 272.5 c 128,-1,32
 540 329 540 329 542.5 418 c 128,-1,33
 545 507 545 507 545 633 c 0,34,35
 545 707 545 707 544.5 770.5 c 128,-1,36
 544 834 544 834 535 880.5 c 128,-1,37
 526 927 526 927 504 953 c 128,-1,38
 482 979 482 979 440 979 c 256,39,40
 398 979 398 979 362 961 c 128,-1,41
 326 943 326 943 291 922 c 1,42,-1
 291 223 l 1,27,28
EndSplineSet
EndChar

StartChar: mu
Encoding: 181 181 159
Width: 836
Flags: W
HStem: -12.5 184.5<297.846 477.625> 1115 20G<76 297 532 756>
VStem: 76 221<-227 27 177.776 1135> 532 224<0 137 220.79 1135>
LayerCount: 2
Fore
SplineSet
76 1135 m 1,0,-1
 297 1135 l 1,1,-1
 297 201 l 1,2,3
 310 192 310 192 322 186 c 0,4,5
 333 181 333 181 345.5 176.5 c 128,-1,6
 358 172 358 172 371 172 c 0,7,8
 390 172 390 172 412.5 179 c 128,-1,9
 435 186 435 186 456.5 199 c 128,-1,10
 478 212 478 212 498 230 c 128,-1,11
 518 248 518 248 532 270 c 1,12,-1
 532 1135 l 1,13,-1
 756 1135 l 1,14,-1
 756 0 l 1,15,-1
 535 0 l 1,16,-1
 535 137 l 1,17,18
 521 85 521 85 492.5 49 c 128,-1,19
 464 13 464 13 429.5 -3 c 128,-1,20
 395 -19 395 -19 359.5 -12.5 c 128,-1,21
 324 -6 324 -6 297 27 c 1,22,-1
 297 -227 l 1,23,-1
 76 -227 l 1,24,-1
 76 1135 l 1,0,-1
EndSplineSet
EndChar

StartChar: parenleft
Encoding: 40 40 160
Width: 977
Flags: W
HStem: -27 203<406.516 530> 1350 196<404.875 530>
VStem: 66 243<317.043 1221.67>
LayerCount: 2
Fore
SplineSet
530 176 m 1,0,-1
 530 -27 l 1,1,2
 456 -27 456 -27 392.5 -13 c 128,-1,3
 329 1 329 1 277.5 36 c 128,-1,4
 226 71 226 71 186.5 130.5 c 128,-1,5
 147 190 147 190 120 281.5 c 128,-1,6
 93 373 93 373 79.5 499.5 c 128,-1,7
 66 626 66 626 66 795 c 0,8,9
 66 989 66 989 87.5 1130.5 c 128,-1,10
 109 1272 109 1272 161.5 1364.5 c 128,-1,11
 214 1457 214 1457 303.5 1501.5 c 128,-1,12
 393 1546 393 1546 530 1546 c 1,13,-1
 530 1350 l 1,14,15
 475 1350 475 1350 433.5 1329 c 128,-1,16
 392 1308 392 1308 364.5 1248 c 128,-1,17
 337 1188 337 1188 323 1080.5 c 128,-1,18
 309 973 309 973 309 799 c 0,19,20
 309 668 309 668 315 570.5 c 128,-1,21
 321 473 321 473 333 404 c 128,-1,22
 345 335 345 335 363 290.5 c 128,-1,23
 381 246 381 246 405.5 220.5 c 128,-1,24
 430 195 430 195 461 185.5 c 128,-1,25
 492 176 492 176 530 176 c 1,0,-1
EndSplineSet
EndChar

StartChar: parenright
Encoding: 41 41 161
Width: 977
Flags: W
HStem: -27 203<66 189.087> 1350 196<66 193.908>
VStem: 287 243<317.469 1221.67>
LayerCount: 2
Fore
SplineSet
66 176 m 1,0,1
 104 176 104 176 135 185.5 c 128,-1,2
 166 195 166 195 190.5 220.5 c 128,-1,3
 215 246 215 246 233 290.5 c 128,-1,4
 251 335 251 335 263 404 c 128,-1,5
 275 473 275 473 281 570.5 c 128,-1,6
 287 668 287 668 287 799 c 0,7,8
 287 973 287 973 273 1080.5 c 128,-1,9
 259 1188 259 1188 231.5 1248 c 128,-1,10
 204 1308 204 1308 162.5 1329 c 128,-1,11
 121 1350 121 1350 66 1350 c 1,12,-1
 66 1546 l 1,13,14
 202 1546 202 1546 292 1501.5 c 128,-1,15
 382 1457 382 1457 434.5 1364.5 c 128,-1,16
 487 1272 487 1272 508.5 1130.5 c 128,-1,17
 530 989 530 989 530 795 c 0,18,19
 530 626 530 626 516 499.5 c 128,-1,20
 502 373 502 373 475.5 281.5 c 128,-1,21
 449 190 449 190 409 130.5 c 128,-1,22
 369 71 369 71 317.5 36 c 128,-1,23
 266 1 266 1 203 -13 c 128,-1,24
 140 -27 140 -27 66 -27 c 1,25,-1
 66 176 l 1,0,1
EndSplineSet
EndChar

StartChar: bracketleft
Encoding: 91 91 162
Width: 815
Flags: W
HStem: -61 149<324 571> 1386 150<324 571>
VStem: 94 477<-61 88 1386 1536> 94 230<88 1386>
LayerCount: 2
Fore
SplineSet
94 1536 m 1,0,-1
 571 1536 l 1,1,-1
 571 1386 l 1,2,-1
 324 1386 l 1,3,-1
 324 88 l 1,4,-1
 571 88 l 1,5,-1
 571 -61 l 1,6,-1
 94 -61 l 1,7,-1
 94 1536 l 1,0,-1
EndSplineSet
EndChar

StartChar: bracketright
Encoding: 93 93 163
Width: 815
Flags: W
HStem: -61 149<94 342> 1386 150<94 342>
VStem: 94 477<-61 88 1386 1536> 342 229<88 1386>
LayerCount: 2
Fore
SplineSet
571 -61 m 1,0,-1
 94 -61 l 1,1,-1
 94 88 l 1,2,-1
 342 88 l 1,3,-1
 342 1386 l 1,4,-1
 94 1386 l 1,5,-1
 94 1536 l 1,6,-1
 571 1536 l 1,7,-1
 571 -61 l 1,0,-1
EndSplineSet
EndChar

StartChar: Lslash
Encoding: 279 321 164
Width: 815
Flags: W
HStem: 0 231<324 776> 1498 20G<74 324>
VStem: 74 250<231 641 903 1518>
LayerCount: 2
Fore
SplineSet
0 780 m 1,0,-1
 74 807 l 1,1,-1
 74 1518 l 1,2,-1
 324 1518 l 1,3,-1
 324 903 l 1,4,-1
 594 1006 l 1,5,-1
 594 840 l 1,6,-1
 324 737 l 1,7,-1
 324 231 l 1,8,-1
 776 231 l 1,9,-1
 776 0 l 1,10,-1
 74 0 l 1,11,-1
 74 641 l 1,12,-1
 0 614 l 1,13,-1
 0 780 l 1,0,-1
EndSplineSet
EndChar

StartChar: lslash
Encoding: 280 322 165
Width: 371
Flags: W
HStem: 0 21G<72 291> 1498 20G<72 291>
VStem: 72 219<0 641 891 1518>
LayerCount: 2
Fore
SplineSet
291 891 m 1,0,-1
 371 922 l 1,1,-1
 371 756 l 1,2,-1
 291 725 l 1,3,-1
 291 0 l 1,4,-1
 72 0 l 1,5,-1
 72 641 l 1,6,-1
 0 614 l 1,7,-1
 0 780 l 1,8,-1
 72 807 l 1,9,-1
 72 1518 l 1,10,-1
 291 1518 l 1,11,-1
 291 891 l 1,0,-1
EndSplineSet
EndChar

StartChar: Euro
Encoding: 281 8364 166
Width: 971
Flags: W
HStem: -27 232<385.535 598.122> 508 166<0 68 324 518> 827 166<0 68 322 518> 1309 227<373.362 589.753>
VStem: 0 518<508 674 827 993> 68 254<276.5 508 674 827 993 1253.48> 652.5 250<261.818 541 1018 1238.28>
LayerCount: 2
Fore
SplineSet
0 993 m 1,0,-1
 70 993 l 1,1,2
 74 1117 74 1117 96 1217 c 128,-1,3
 118 1317 118 1317 165.5 1388 c 128,-1,4
 213 1459 213 1459 291.5 1497.5 c 128,-1,5
 370 1536 370 1536 487 1536 c 0,6,7
 610 1536 610 1536 690 1494.5 c 128,-1,8
 770 1453 770 1453 817 1382.5 c 128,-1,9
 864 1312 864 1312 883 1218 c 128,-1,10
 902 1124 902 1124 903 1018 c 1,11,-1
 653 1018 l 1,12,13
 653 1115 653 1115 635.5 1172.5 c 128,-1,14
 618 1230 618 1230 593 1260.5 c 128,-1,15
 568 1291 568 1291 540.5 1300 c 128,-1,16
 513 1309 513 1309 492 1309 c 0,17,18
 437 1309 437 1309 404 1290 c 128,-1,19
 371 1271 371 1271 353 1232 c 128,-1,20
 335 1193 335 1193 329 1133.5 c 128,-1,21
 323 1074 323 1074 322 993 c 1,22,-1
 518 993 l 1,23,-1
 518 827 l 1,24,-1
 322 827 l 1,25,-1
 322 674 l 1,26,-1
 518 674 l 1,27,-1
 518 508 l 1,28,-1
 324 508 l 1,29,30
 328 419 328 419 339.5 360.5 c 128,-1,31
 351 302 351 302 372 267.5 c 128,-1,32
 393 233 393 233 424.5 219 c 128,-1,33
 456 205 456 205 498 205 c 0,34,35
 508 205 508 205 524.5 206.5 c 128,-1,36
 541 208 541 208 559 217 c 128,-1,37
 577 226 577 226 595.5 246 c 128,-1,38
 614 266 614 266 628.5 303.5 c 128,-1,39
 643 341 643 341 652.5 398.5 c 128,-1,40
 662 456 662 456 662 541 c 1,41,-1
 909 541 l 1,42,43
 909 472 909 472 902.5 403.5 c 128,-1,44
 896 335 896 335 879.5 271.5 c 128,-1,45
 863 208 863 208 833.5 153.5 c 128,-1,46
 804 99 804 99 758 59 c 128,-1,47
 712 19 712 19 647 -4 c 128,-1,48
 582 -27 582 -27 494 -27 c 0,49,50
 404 -27 404 -27 338.5 -5.5 c 128,-1,51
 273 16 273 16 226.5 53 c 128,-1,52
 180 90 180 90 150.5 141.5 c 128,-1,53
 121 193 121 193 103.5 252 c 128,-1,54
 86 311 86 311 78 376.5 c 128,-1,55
 70 442 70 442 68 508 c 1,56,-1
 0 508 l 1,57,-1
 0 674 l 1,58,-1
 68 674 l 1,59,-1
 68 827 l 1,60,-1
 0 827 l 1,61,-1
 0 993 l 1,0,-1
EndSplineSet
EndChar

StartChar: florin
Encoding: 282 402 167
Width: 653
Flags: W
HStem: -145 202<8.71851 177.922> 762 182<47 197 414 582> 1214 203<428.219 595.282>
VStem: 197 215<72.626 762 944 1200.49>
LayerCount: 2
Fore
SplineSet
197 762 m 1,0,-1
 47 762 l 1,1,-1
 47 944 l 1,2,-1
 197 944 l 1,3,-1
 197 1018 l 2,4,5
 197 1061 197 1061 197.5 1107.5 c 128,-1,6
 198 1154 198 1154 204 1198 c 128,-1,7
 210 1242 210 1242 224 1282 c 128,-1,8
 238 1322 238 1322 266 1352 c 128,-1,9
 294 1382 294 1382 337.5 1399.5 c 128,-1,10
 381 1417 381 1417 446 1417 c 0,11,12
 482 1417 482 1417 510 1415 c 128,-1,13
 538 1413 538 1413 557 1411 c 0,14,15
 579 1408 579 1408 596 1405 c 1,16,-1
 596 1204 l 1,17,18
 573 1209 573 1209 553.5 1211.5 c 128,-1,19
 534 1214 534 1214 518 1214 c 0,20,21
 482 1214 482 1214 461 1203 c 128,-1,22
 440 1192 440 1192 429.5 1172 c 128,-1,23
 419 1152 419 1152 416.5 1124.5 c 128,-1,24
 414 1097 414 1097 414 1065 c 2,25,-1
 414 944 l 1,26,-1
 582 944 l 1,27,-1
 582 762 l 1,28,-1
 412 762 l 1,29,-1
 412 254 l 2,30,31
 412 211 412 211 411.5 164.5 c 128,-1,32
 411 118 411 118 405 74 c 128,-1,33
 399 30 399 30 384.5 -10 c 128,-1,34
 370 -50 370 -50 342.5 -80 c 128,-1,35
 315 -110 315 -110 271 -127.5 c 128,-1,36
 227 -145 227 -145 162 -145 c 0,37,38
 126 -145 126 -145 97.5 -143 c 128,-1,39
 69 -141 69 -141 49 -139 c 0,40,41
 25 -136 25 -136 8 -133 c 1,42,-1
 8 68 l 1,43,44
 31 63 31 63 53 60 c 128,-1,45
 75 57 75 57 90 57 c 0,46,47
 126 57 126 57 147 68.5 c 128,-1,48
 168 80 168 80 178.5 100 c 128,-1,49
 189 120 189 120 192 147.5 c 128,-1,50
 195 175 195 175 195 207 c 2,51,-1
 197 762 l 1,0,-1
EndSplineSet
EndChar

StartChar: AE
Encoding: 198 198 168
Width: 1892
Flags: W
HStem: 0 225<821 1249> 350 195<383 602> 674 235<821 1114> 1292 226<821 1231>
VStem: 602 219<225 350 545 674 909 1239>
LayerCount: 2
Fore
SplineSet
1114 674 m 1,0,-1
 821 674 l 1,1,-1
 821 225 l 1,2,-1
 1249 225 l 1,3,-1
 1249 0 l 1,4,-1
 602 0 l 1,5,-1
 602 350 l 1,6,-1
 324 350 l 1,7,-1
 211 0 l 1,8,-1
 -47 0 l 1,9,-1
 475 1518 l 1,10,-1
 1231 1518 l 1,11,-1
 1231 1292 l 1,12,-1
 821 1292 l 1,13,-1
 821 909 l 1,14,-1
 1114 909 l 1,15,-1
 1114 674 l 1,0,-1
602 545 m 1,16,-1
 602 1239 l 1,17,-1
 383 545 l 1,18,-1
 602 545 l 1,16,-1
EndSplineSet
EndChar

StartChar: cedilla
Encoding: 184 184 169
Width: 1706
Flags: W
HStem: -512 100<539 720.184> -205 205<627 730.928>
VStem: 627 135<-164.559 0> 766 160<-366.506 -233.133>
LayerCount: 2
Fore
SplineSet
539 -512 m 1,0,-1
 539 -412 l 1,1,2
 593 -411 593 -411 635 -401 c 128,-1,3
 677 -391 677 -391 706 -375.5 c 128,-1,4
 735 -360 735 -360 750.5 -341 c 128,-1,5
 766 -322 766 -322 766 -303 c 0,6,7
 766 -266 766 -266 732 -236.5 c 128,-1,8
 698 -207 698 -207 627 -205 c 1,9,-1
 627 0 l 1,10,-1
 762 0 l 1,11,-1
 762 -150 l 1,12,13
 847 -173 847 -173 886.5 -216.5 c 128,-1,14
 926 -260 926 -260 926 -309 c 0,15,16
 926 -346 926 -346 899 -382.5 c 128,-1,17
 872 -419 872 -419 822 -447.5 c 128,-1,18
 772 -476 772 -476 700.5 -494 c 128,-1,19
 629 -512 629 -512 539 -512 c 1,0,-1
EndSplineSet
EndChar

StartChar: brokenbar
Encoding: 166 166 172
Width: 395
Flags: W
HStem: -14 21G<94 297> 1498 20G<94 297>
VStem: 94 203<-14 614 889 1518>
LayerCount: 2
Fore
SplineSet
94 614 m 1,0,-1
 297 614 l 1,1,-1
 297 -14 l 1,2,-1
 94 -14 l 1,3,-1
 94 614 l 1,0,-1
94 1518 m 1,4,-1
 297 1518 l 1,5,-1
 297 889 l 1,6,-1
 94 889 l 1,7,-1
 94 1518 l 1,4,-1
EndSplineSet
EndChar

StartChar: yen
Encoding: 165 165 173
Width: 1053
Flags: W
HStem: 0 21G<395 649> 258 166<229 395 649 809> 553 166<229 352 690 809> 1498 20G<59 325.078 718.922 985>
VStem: 395 254<0 258 424 553>
LayerCount: 2
Fore
SplineSet
395 0 m 1,0,-1
 395 258 l 1,1,-1
 229 258 l 1,2,-1
 229 424 l 1,3,-1
 395 424 l 1,4,-1
 395 553 l 1,5,-1
 229 553 l 1,6,-1
 229 719 l 1,7,-1
 352 719 l 1,8,-1
 59 1518 l 1,9,-1
 319 1518 l 1,10,-1
 522 850 l 1,11,-1
 725 1518 l 1,12,-1
 985 1518 l 1,13,-1
 690 719 l 1,14,-1
 809 719 l 1,15,-1
 809 553 l 1,16,-1
 649 553 l 1,17,-1
 649 424 l 1,18,-1
 809 424 l 1,19,-1
 809 258 l 1,20,-1
 649 258 l 1,21,-1
 649 0 l 1,22,-1
 395 0 l 1,0,-1
EndSplineSet
EndChar

StartChar: fi
Encoding: 283 64257 174
Width: 1028
Flags: W
HStem: 0 21G<197 412 731 952> 952 183<47 197 414 731> 1282 223<729 950> 1337 203<428.219 595.282>
VStem: 197 215<0 952 1135 1323.49> 731 221<0 951 1282 1505>
LayerCount: 2
Fore
SplineSet
731 951 m 1,0,-1
 412 952 l 1,1,-1
 412 0 l 1,2,-1
 197 0 l 1,3,-1
 197 952 l 1,4,-1
 47 952 l 1,5,-1
 47 1135 l 1,6,-1
 197 1135 l 1,7,-1
 197 1141 l 2,8,9
 197 1184 197 1184 197.5 1230.5 c 128,-1,10
 198 1277 198 1277 204 1321 c 128,-1,11
 210 1365 210 1365 224 1405 c 128,-1,12
 238 1445 238 1445 266 1475 c 128,-1,13
 294 1505 294 1505 337.5 1522.5 c 128,-1,14
 381 1540 381 1540 446 1540 c 0,15,16
 482 1540 482 1540 510 1538 c 128,-1,17
 538 1536 538 1536 557 1534 c 0,18,19
 579 1531 579 1531 596 1528 c 1,20,-1
 596 1327 l 1,21,22
 573 1332 573 1332 553.5 1334.5 c 128,-1,23
 534 1337 534 1337 518 1337 c 0,24,25
 482 1337 482 1337 461 1326 c 128,-1,26
 440 1315 440 1315 429.5 1295 c 128,-1,27
 419 1275 419 1275 416.5 1247.5 c 128,-1,28
 414 1220 414 1220 414 1188 c 2,29,-1
 414 1135 l 1,30,-1
 952 1135 l 1,31,-1
 952 0 l 1,32,-1
 731 0 l 1,33,-1
 731 951 l 1,0,-1
729 1505 m 1,34,-1
 950 1505 l 1,35,-1
 950 1282 l 1,36,-1
 729 1282 l 1,37,-1
 729 1505 l 1,34,-1
EndSplineSet
EndChar

StartChar: fl
Encoding: 284 64258 175
Width: 1024
Flags: W
HStem: 0 21G<197 412 725 944> 952 183<47 197 414 582> 1361 176<451.688 724.155>
VStem: 197 215<0 952 1135 1320.34> 725 219<0 1355.83>
LayerCount: 2
Fore
SplineSet
197 952 m 1,0,-1
 47 952 l 1,1,-1
 47 1135 l 1,2,-1
 197 1135 l 1,3,-1
 197 1141 l 2,4,5
 197 1252 197 1252 220 1327.5 c 128,-1,6
 243 1403 243 1403 291 1449.5 c 128,-1,7
 339 1496 339 1496 413 1516.5 c 128,-1,8
 487 1537 487 1537 588 1537 c 0,9,10
 662 1537 662 1537 750.5 1528 c 128,-1,11
 839 1519 839 1519 944 1502 c 1,12,-1
 944 0 l 1,13,-1
 725 0 l 1,14,-1
 725 1350 l 1,15,16
 698 1354 698 1354 665 1357.5 c 128,-1,17
 632 1361 632 1361 597 1361 c 256,18,19
 562 1361 562 1361 529.5 1355 c 128,-1,20
 497 1349 497 1349 471 1332 c 128,-1,21
 445 1315 445 1315 429.5 1285 c 128,-1,22
 414 1255 414 1255 414 1208 c 2,23,-1
 414 1135 l 1,24,-1
 582 1135 l 1,25,-1
 582 952 l 1,26,-1
 412 952 l 1,27,-1
 412 0 l 1,28,-1
 197 0 l 1,29,-1
 197 952 l 1,0,-1
EndSplineSet
EndChar

StartChar: tilde
Encoding: 285 732 176
Width: 1706
Flags: W
HStem: 1188 194<822.32 988.253> 1275 196<613.974 778.197>
VStem: 453 153<1208 1260.04> 997 153<1397.47 1451>
LayerCount: 2
Fore
SplineSet
672 1471 m 0,0,1
 709 1471 709 1471 748 1457 c 128,-1,2
 787 1443 787 1443 823 1426.5 c 128,-1,3
 859 1410 859 1410 890.5 1396 c 128,-1,4
 922 1382 922 1382 946 1382 c 0,5,6
 969 1382 969 1382 983 1397 c 128,-1,7
 997 1412 997 1412 997 1451 c 1,8,-1
 1149 1451 l 1,9,10
 1150 1448 1150 1448 1150 1433 c 0,11,12
 1150 1410 1150 1410 1143 1369 c 128,-1,13
 1136 1328 1136 1328 1112.5 1287.5 c 128,-1,14
 1089 1247 1089 1247 1046 1217.5 c 128,-1,15
 1003 1188 1003 1188 931 1188 c 0,16,17
 891 1188 891 1188 851 1201.5 c 128,-1,18
 811 1215 811 1215 775 1231.5 c 128,-1,19
 739 1248 739 1248 708 1261.5 c 128,-1,20
 677 1275 677 1275 654 1275 c 256,21,22
 631 1275 631 1275 618.5 1260.5 c 128,-1,23
 606 1246 606 1246 606 1208 c 1,24,-1
 454 1208 l 1,25,26
 453 1211 453 1211 453 1226 c 0,27,28
 453 1249 453 1249 460 1290 c 128,-1,29
 467 1331 467 1331 490.5 1371.5 c 128,-1,30
 514 1412 514 1412 557 1441.5 c 128,-1,31
 600 1471 600 1471 672 1471 c 0,0,1
EndSplineSet
EndChar

StartChar: exclamdown
Encoding: 161 161 183
Width: 375
Flags: W
HStem: 0 21G<57 319> 1127 20G<117.919 259.064> 1295 223<76 297>
VStem: 76 221<1295 1518> 119 139<881.784 1147>
LayerCount: 2
Fore
SplineSet
119 1147 m 1,0,-1
 258 1147 l 1,1,-1
 319 0 l 1,2,-1
 57 0 l 1,3,-1
 119 1147 l 1,0,-1
76 1518 m 1,4,-1
 297 1518 l 1,5,-1
 297 1295 l 1,6,-1
 76 1295 l 1,7,-1
 76 1518 l 1,4,-1
EndSplineSet
EndChar

StartChar: germandbls
Encoding: 223 223 184
Width: 979
Flags: W
HStem: 0 208<429 584.338> 684 188<429 532.146> 1306 219<360.387 552.847>
VStem: 72 252<0 1268.45> 598 251<942.38 1259.84> 653 262<274.354 595.144>
LayerCount: 2
Fore
SplineSet
78 0 m 1,0,1
 78 77 78 77 77.5 140 c 128,-1,2
 77 203 77 203 77 258.5 c 128,-1,3
 77 314 77 314 76.5 366.5 c 128,-1,4
 76 419 76 419 75 475.5 c 128,-1,5
 74 532 74 532 73.5 596 c 128,-1,6
 73 660 73 660 73 739.5 c 128,-1,7
 73 819 73 819 72.5 917.5 c 128,-1,8
 72 1016 72 1016 72 1141 c 0,9,10
 72 1244 72 1244 105 1317 c 128,-1,11
 138 1390 138 1390 193 1436.5 c 128,-1,12
 248 1483 248 1483 320 1504 c 128,-1,13
 392 1525 392 1525 470 1525 c 0,14,15
 536 1525 536 1525 603.5 1495.5 c 128,-1,16
 671 1466 671 1466 725.5 1414.5 c 128,-1,17
 780 1363 780 1363 814.5 1292.5 c 128,-1,18
 849 1222 849 1222 849 1141 c 0,19,20
 849 1078 849 1078 838 1024.5 c 128,-1,21
 827 971 827 971 801.5 927.5 c 128,-1,22
 776 884 776 884 732.5 849.5 c 128,-1,23
 689 815 689 815 625 791 c 1,24,25
 700 766 700 766 755 734 c 128,-1,26
 810 702 810 702 845.5 658.5 c 128,-1,27
 881 615 881 615 898 557.5 c 128,-1,28
 915 500 915 500 915 424 c 0,29,30
 915 328 915 328 883.5 249.5 c 128,-1,31
 852 171 852 171 790.5 115.5 c 128,-1,32
 729 60 729 60 638 30 c 128,-1,33
 547 0 547 0 429 0 c 1,34,-1
 429 208 l 1,35,36
 483 211 483 211 525 223.5 c 128,-1,37
 567 236 567 236 595.5 261.5 c 128,-1,38
 624 287 624 287 638.5 327 c 128,-1,39
 653 367 653 367 653 426 c 0,40,41
 653 488 653 488 637 536 c 128,-1,42
 621 584 621 584 591.5 617 c 128,-1,43
 562 650 562 650 521 667 c 128,-1,44
 480 684 480 684 429 684 c 1,45,-1
 429 872 l 1,46,47
 470 872 470 872 501.5 892 c 128,-1,48
 533 912 533 912 554.5 944 c 128,-1,49
 576 976 576 976 587 1017 c 128,-1,50
 598 1058 598 1058 598 1100 c 0,51,52
 598 1139 598 1139 590 1176.5 c 128,-1,53
 582 1214 582 1214 565.5 1242.5 c 128,-1,54
 549 1271 549 1271 524.5 1288.5 c 128,-1,55
 500 1306 500 1306 467 1306 c 0,56,57
 438 1306 438 1306 412.5 1297 c 128,-1,58
 387 1288 387 1288 367 1269 c 128,-1,59
 347 1250 347 1250 335.5 1219 c 128,-1,60
 324 1188 324 1188 324 1145 c 2,61,-1
 324 0 l 1,62,-1
 78 0 l 1,0,1
EndSplineSet
EndChar

StartChar: threesuperior
Encoding: 179 179 185
Width: 891
Flags: W
HStem: 597 137<358.092 506.613> 1021 129<393 485.662> 1399 135<359.781 502.196>
VStem: 183 160<746.063 870 1278 1387.99> 513 153<740.277 862.405 1176.67 1391.27> 524 161<745.811 997.536>
LayerCount: 2
Fore
SplineSet
421 597 m 0,0,1
 359 597 359 597 314 618 c 128,-1,2
 269 639 269 639 240 674.5 c 128,-1,3
 211 710 211 710 197 756 c 128,-1,4
 183 802 183 802 183 853 c 2,5,-1
 183 870 l 1,6,-1
 343 870 l 1,7,8
 343 846 343 846 346 821.5 c 128,-1,9
 349 797 349 797 358.5 777.5 c 128,-1,10
 368 758 368 758 387 746 c 128,-1,11
 406 734 406 734 438 734 c 0,12,13
 465 734 465 734 481.5 747 c 128,-1,14
 498 760 498 760 507.5 779.5 c 128,-1,15
 517 799 517 799 520.5 821.5 c 128,-1,16
 524 844 524 844 524 863 c 0,17,18
 524 897 524 897 519.5 926 c 128,-1,19
 515 955 515 955 500.5 976 c 128,-1,20
 486 997 486 997 460.5 1009 c 128,-1,21
 435 1021 435 1021 393 1021 c 1,22,-1
 393 1150 l 1,23,24
 460 1150 460 1150 486.5 1184.5 c 128,-1,25
 513 1219 513 1219 513 1288 c 0,26,27
 513 1308 513 1308 510 1328 c 128,-1,28
 507 1348 507 1348 498 1363.5 c 128,-1,29
 489 1379 489 1379 473 1389 c 128,-1,30
 457 1399 457 1399 432 1399 c 0,31,32
 405 1399 405 1399 388.5 1388.5 c 128,-1,33
 372 1378 372 1378 363 1361 c 128,-1,34
 354 1344 354 1344 350.5 1322 c 128,-1,35
 347 1300 347 1300 347 1278 c 1,36,-1
 196 1278 l 1,37,-1
 196 1293 l 2,38,39
 196 1344 196 1344 210 1388 c 128,-1,40
 224 1432 224 1432 252.5 1464.5 c 128,-1,41
 281 1497 281 1497 325.5 1515.5 c 128,-1,42
 370 1534 370 1534 432 1534 c 0,43,44
 493 1534 493 1534 537.5 1515 c 128,-1,45
 582 1496 582 1496 610.5 1462 c 128,-1,46
 639 1428 639 1428 652.5 1382.5 c 128,-1,47
 666 1337 666 1337 666 1285 c 0,48,49
 666 1256 666 1256 662.5 1229 c 128,-1,50
 659 1202 659 1202 649.5 1177 c 128,-1,51
 640 1152 640 1152 623 1130.5 c 128,-1,52
 606 1109 606 1109 579 1091 c 1,53,54
 639 1053 639 1053 662 999 c 128,-1,55
 685 945 685 945 685 870 c 0,56,57
 685 813 685 813 670.5 763 c 128,-1,58
 656 713 656 713 624.5 676 c 128,-1,59
 593 639 593 639 543 618 c 128,-1,60
 493 597 493 597 421 597 c 0,0,1
EndSplineSet
EndChar

StartChar: foursuperior
Encoding: 286 8308 188
Width: 952
Flags: W
HStem: 846 123<284 434 599 700> 1516 20G<394.037 599>
VStem: 434 165<610 846 969 1314>
LayerCount: 2
Fore
SplineSet
434 846 m 1,0,-1
 133 846 l 1,1,-1
 133 992 l 1,2,-1
 404 1536 l 1,3,-1
 599 1536 l 1,4,-1
 599 969 l 1,5,-1
 700 969 l 1,6,-1
 700 846 l 1,7,-1
 599 846 l 1,8,-1
 599 610 l 1,9,-1
 434 610 l 1,10,-1
 434 846 l 1,0,-1
434 969 m 1,11,-1
 434 1314 l 1,12,-1
 284 969 l 1,13,-1
 434 969 l 1,11,-1
EndSplineSet
EndChar

StartChar: question
Encoding: 63 63 189
Width: 891
Flags: W
HStem: 0 223<306 527> 1127 207<341.595 528.41>
VStem: 80 219<908 1085.9> 306 221<0 223 300 570.979> 552 238<852.022 1100.61>
LayerCount: 2
Fore
SplineSet
305 300 m 1,0,-1
 305 545 l 2,1,2
 305 546 305 546 323.5 569.5 c 128,-1,3
 342 593 342 593 369 630.5 c 128,-1,4
 396 668 396 668 428.5 716 c 128,-1,5
 461 764 461 764 488 814.5 c 128,-1,6
 515 865 515 865 533.5 913.5 c 128,-1,7
 552 962 552 962 552 1001 c 0,8,9
 552 1057 552 1057 526.5 1092 c 128,-1,10
 501 1127 501 1127 440 1127 c 0,11,12
 396 1127 396 1127 368.5 1108 c 128,-1,13
 341 1089 341 1089 325.5 1058.5 c 128,-1,14
 310 1028 310 1028 304.5 988.5 c 128,-1,15
 299 949 299 949 299 908 c 1,16,-1
 80 908 l 1,17,-1
 80 933 l 2,18,19
 80 1017 80 1017 101 1090.5 c 128,-1,20
 122 1164 122 1164 166 1218 c 128,-1,21
 210 1272 210 1272 278 1303 c 128,-1,22
 346 1334 346 1334 440 1334 c 0,23,24
 539 1334 539 1334 606.5 1307.5 c 128,-1,25
 674 1281 674 1281 714.5 1234 c 128,-1,26
 755 1187 755 1187 772.5 1122.5 c 128,-1,27
 790 1058 790 1058 790 983 c 0,28,29
 790 946 790 946 778.5 906.5 c 128,-1,30
 767 867 767 867 748 827 c 128,-1,31
 729 787 729 787 704.5 748.5 c 128,-1,32
 680 710 680 710 655 676 c 0,33,34
 596 595 596 595 521 517 c 1,35,-1
 521 300 l 1,36,-1
 305 300 l 1,0,-1
306 223 m 1,37,-1
 527 223 l 1,38,-1
 527 0 l 1,39,-1
 306 0 l 1,40,-1
 306 223 l 1,37,-1
EndSplineSet
EndChar

StartChar: questiondown
Encoding: 191 191 190
Width: 891
Flags: W
HStem: -5 207<341.333 528.405> 1106 223<343 564>
VStem: 80 238<228.392 476.859> 349 216<765.423 812 1106 1329> 571 219<243.104 421>
LayerCount: 2
Fore
SplineSet
349 1029 m 1,0,-1
 349 812 l 1,1,2
 273 734 273 734 214 653 c 0,3,4
 189 618 189 618 165 579.5 c 128,-1,5
 141 541 141 541 122 501.5 c 128,-1,6
 103 462 103 462 91.5 422.5 c 128,-1,7
 80 383 80 383 80 346 c 0,8,9
 80 271 80 271 97.5 206.5 c 128,-1,10
 115 142 115 142 155.5 95 c 128,-1,11
 196 48 196 48 263.5 21.5 c 128,-1,12
 331 -5 331 -5 430 -5 c 0,13,14
 524 -5 524 -5 592 26 c 128,-1,15
 660 57 660 57 704 111 c 128,-1,16
 748 165 748 165 769 238.5 c 128,-1,17
 790 312 790 312 790 396 c 2,18,-1
 790 421 l 1,19,-1
 571 421 l 1,20,21
 571 380 571 380 565.5 340.5 c 128,-1,22
 560 301 560 301 544.5 270.5 c 128,-1,23
 529 240 529 240 501.5 221 c 128,-1,24
 474 202 474 202 430 202 c 0,25,26
 368 202 368 202 343 237 c 128,-1,27
 318 272 318 272 318 328 c 0,28,29
 318 367 318 367 336.5 415.5 c 128,-1,30
 355 464 355 464 382 514.5 c 128,-1,31
 409 565 409 565 441.5 613 c 128,-1,32
 474 661 474 661 501 698.5 c 128,-1,33
 528 736 528 736 546.5 759.5 c 128,-1,34
 565 783 565 783 565 784 c 2,35,-1
 565 1029 l 1,36,-1
 349 1029 l 1,0,-1
564 1106 m 1,37,-1
 343 1106 l 1,38,-1
 343 1329 l 1,39,-1
 564 1329 l 1,40,-1
 564 1106 l 1,37,-1
EndSplineSet
EndChar

StartChar: A
Encoding: 65 65 191
Width: 1038
Flags: W
HStem: 0 21G<53 302.486 732.943 979> 350 195<393 635> 1516.2 20G<348.107 677.971>
LayerCount: 2
Fore
SplineSet
352 1536.20019531 m 5,0,-1
 674 1536.20019531 l 5,1,-1
 979 0 l 1,2,-1
 737 0 l 1,3,-1
 666 350 l 1,4,-1
 360 350 l 1,5,-1
 299 0 l 1,6,-1
 53 0 l 1,7,-1
 352 1536.20019531 l 5,0,-1
635 545 m 1,8,-1
 512 1216.20019531 l 5,9,-1
 393 545 l 1,10,-1
 635 545 l 1,8,-1
EndSplineSet
EndChar

StartChar: B
Encoding: 66 66 192
Width: 979
Flags: W
HStem: 0 207<380 638.75> 702.2 188<380 600.361> 1308.2 228<380 626.178>
VStem: 133 247<207 702.2 890.2 1308.2> 683 252<251.005 421.004 970.272 1252.15> 709 262<276.105 601.971>
LayerCount: 2
Fore
SplineSet
431 1536.20019531 m 6,0,1
 530.088385747 1536.20019531 530.088385747 1536.20019531 607.5 1519.20019531 c 4,2,3
 684 1502 684 1502 740 1473.20019531 c 4,4,5
 796 1444 796 1444 833.5 1406.20019531 c 4,6,7
 871 1368 871 1368 893.5 1326.20019531 c 4,8,9
 916 1284 916 1284 925.5 1241.20019531 c 4,10,11
 935 1198 935 1198 935 1159.20019531 c 4,12,13
 935 1096 935 1096 923.5 1042.70019531 c 4,14,15
 912 989 912 989 883.5 945.700195312 c 4,16,17
 855 902 855 902 808 867.700195312 c 4,18,19
 761 833 761 833 691 809.200195312 c 5,20,21
 764 784 764 784 816.5 752.200195312 c 4,22,23
 869 720 869 720 903.5 676.700195312 c 4,24,25
 934 638 934 638 954.5 575.700195312 c 4,26,27
 971 525 971 525 971 424 c 0,28,29
 971 328 971 328 940.5 249.5 c 128,-1,30
 910 171 910 171 854.5 115.5 c 128,-1,31
 799 60 799 60 721 30 c 128,-1,32
 643 0 643 0 548 0 c 2,33,-1
 134 0 l 1,34,35
 134 154 134 154 133 326.100097656 c 0,36,37
 132 498 132 498 131 681.700195312 c 4,38,39
 130 865 130 865 129 1075.70019531 c 4,40,41
 128 1286 128 1286 128 1536.20019531 c 5,42,-1
 431 1536.20019531 l 6,0,1
380 207 m 1,43,-1
 433 207 l 2,44,45
 500 207 500 207 551.5 216.5 c 128,-1,46
 603 226 603 226 638 251 c 128,-1,47
 673 276 673 276 691 318.5 c 128,-1,48
 709 361 709 361 709 426 c 0,49,50
 709 505 709 505 690 554.200195312 c 4,51,52
 671 602 671 602 637 635.200195312 c 4,53,54
 603 668 603 668 556 685.200195312 c 4,55,56
 508.439923269 702.200195312 508.439923269 702.200195312 453 702.200195312 c 6,57,-1
 380 702.200195312 l 5,58,-1
 380 207 l 1,43,-1
380 890.200195312 m 5,59,-1
 418 890.200195312 l 6,60,61
 466 890 466 890 513 899.200195312 c 4,62,63
 560 908 560 908 598 933.200195312 c 4,64,65
 636 958 636 958 659.5 1002.70019531 c 4,66,67
 683 1047 683 1047 683 1118.20019531 c 4,68,69
 683 1177 683 1177 665 1214.20019531 c 4,70,71
 647 1251 647 1251 614.5 1272.20019531 c 4,72,73
 582 1293 582 1293 538 1300.70019531 c 4,74,75
 492.793311037 1308.20019531 492.793311037 1308.20019531 443 1308.20019531 c 6,76,-1
 380 1308.20019531 l 5,77,-1
 380 890.200195312 l 5,59,-1
EndSplineSet
EndChar

StartChar: C
Encoding: 67 67 193
Width: 971
Flags: W
HStem: -27 232<387.108 598.122> 1309 227<386.542 589.753>
VStem: 68 254<281.018 1253.68> 652.5 250<261.818 541 1018 1238.28>
LayerCount: 2
Fore
SplineSet
494 -27 m 0,0,1
 391 -27 391 -27 319.5 1 c 128,-1,2
 248 29 248 29 200.5 77 c 128,-1,3
 153 125 153 125 126.5 189 c 128,-1,4
 100 253 100 253 87 325.5 c 128,-1,5
 74 398 74 398 71 475 c 128,-1,6
 68 552 68 552 68 625 c 2,7,-1
 68 895 l 2,8,9
 68 1039 68 1039 85 1157.5 c 128,-1,10
 102 1276 102 1276 148.5 1360 c 128,-1,11
 195 1444 195 1444 276.5 1490 c 128,-1,12
 358 1536 358 1536 487 1536 c 0,13,14
 610 1536 610 1536 690 1494.5 c 128,-1,15
 770 1453 770 1453 817 1382.5 c 128,-1,16
 864 1312 864 1312 883 1218 c 128,-1,17
 902 1124 902 1124 903 1018 c 1,18,-1
 653 1018 l 1,19,20
 653 1115 653 1115 635.5 1172.5 c 128,-1,21
 618 1230 618 1230 593 1260.5 c 128,-1,22
 568 1291 568 1291 540.5 1300 c 128,-1,23
 513 1309 513 1309 492 1309 c 0,24,25
 430 1309 430 1309 395.5 1284 c 128,-1,26
 361 1259 361 1259 344.5 1208 c 128,-1,27
 328 1157 328 1157 325 1079 c 128,-1,28
 322 1001 322 1001 322 895 c 2,29,-1
 322 625 l 2,30,31
 322 500 322 500 331.5 418.5 c 128,-1,32
 341 337 341 337 362 289.5 c 128,-1,33
 383 242 383 242 416.5 223.5 c 128,-1,34
 450 205 450 205 498 205 c 0,35,36
 508 205 508 205 524.5 206.5 c 128,-1,37
 541 208 541 208 559 217 c 128,-1,38
 577 226 577 226 595.5 246 c 128,-1,39
 614 266 614 266 628.5 303.5 c 128,-1,40
 643 341 643 341 652.5 398.5 c 128,-1,41
 662 456 662 456 662 541 c 1,42,-1
 909 541 l 1,43,44
 909 472 909 472 902.5 403.5 c 128,-1,45
 896 335 896 335 879.5 271.5 c 128,-1,46
 863 208 863 208 833.5 153.5 c 128,-1,47
 804 99 804 99 758 59 c 128,-1,48
 712 19 712 19 647 -4 c 128,-1,49
 582 -27 582 -27 494 -27 c 0,0,1
EndSplineSet
EndChar
